<svg width="953" height="727" viewBox="0 0 953 727" fill="none" xmlns="http://www.w3.org/2000/svg">
<g clip-path="url(#clip0_8_36)">
<path d="M479.498 0H54.3673C39.9531 0.0163066 26.134 5.77647 15.9417 16.0167C5.74936 26.257 0.0161943 40.1411 0 54.623V556.161C0.0161973 570.643 5.74937 584.527 15.9417 594.768C26.134 605.008 39.9532 610.768 54.3673 610.784H479.498C493.912 610.768 507.731 605.008 517.923 594.768C528.116 584.527 533.849 570.643 533.865 556.161V54.623C533.849 40.1411 528.116 26.257 517.923 16.0167C507.731 5.77647 493.912 0.0163066 479.498 0Z" fill="#F2F2F2"/>
<path d="M479.498 15.7249H54.3673C44.1026 15.7364 34.2617 19.8383 27.0035 27.1306C19.7453 34.423 15.6625 44.3102 15.651 54.6231V556.161C15.6625 566.474 19.7453 576.361 27.0035 583.654C34.2617 590.946 44.1026 595.048 54.3673 595.06H479.498C489.763 595.048 499.604 590.946 506.862 583.654C514.12 576.361 518.203 566.474 518.214 556.161V54.6231C518.203 44.3103 514.12 34.4231 506.862 27.1308C499.604 19.8385 489.763 15.7365 479.498 15.7249Z" fill="white"/>
<path d="M415.516 161.559H200.53C198.129 161.559 195.826 160.6 194.128 158.894C192.43 157.188 191.477 154.875 191.477 152.462C191.477 150.05 192.43 147.736 194.128 146.03C195.826 144.325 198.129 143.366 200.53 143.366H415.516C416.705 143.366 417.882 143.602 418.981 144.059C420.079 144.516 421.077 145.186 421.918 146.03C422.758 146.875 423.425 147.878 423.88 148.981C424.335 150.085 424.569 151.268 424.569 152.462C424.569 153.657 424.335 154.84 423.88 155.943C423.425 157.047 422.758 158.05 421.918 158.894C421.077 159.739 420.079 160.409 418.981 160.866C417.882 161.323 416.705 161.559 415.516 161.559Z" fill="#F2F2F2"/>
<path d="M452.862 192.258H200.53C198.131 192.256 195.831 191.296 194.135 189.591C192.439 187.885 191.487 185.573 191.487 183.162C191.487 180.751 192.439 178.439 194.135 176.734C195.831 175.028 198.131 174.069 200.53 174.066H452.862C455.261 174.069 457.562 175.028 459.257 176.734C460.953 178.439 461.906 180.751 461.906 183.162C461.906 185.573 460.953 187.885 459.257 189.591C457.562 191.296 455.261 192.256 452.862 192.258Z" fill="#F2F2F2"/>
<path d="M415.516 299.138H200.53C198.129 299.138 195.826 298.18 194.128 296.474C192.43 294.768 191.477 292.455 191.477 290.042C191.477 287.63 192.43 285.316 194.128 283.61C195.826 281.904 198.129 280.946 200.53 280.946H415.516C416.705 280.946 417.882 281.181 418.981 281.638C420.079 282.096 421.077 282.766 421.918 283.61C422.758 284.455 423.425 285.458 423.88 286.561C424.335 287.665 424.569 288.848 424.569 290.042C424.569 291.237 424.335 292.42 423.88 293.523C423.425 294.627 422.758 295.63 421.918 296.474C421.077 297.319 420.079 297.989 418.981 298.446C417.882 298.903 416.705 299.138 415.516 299.138Z" fill="#F2F2F2"/>
<path d="M452.862 329.838H200.53C198.131 329.835 195.831 328.876 194.135 327.17C192.439 325.465 191.487 323.153 191.487 320.742C191.487 318.331 192.439 316.019 194.135 314.314C195.831 312.608 198.131 311.648 200.53 311.646H452.862C455.261 311.648 457.562 312.608 459.257 314.314C460.953 316.019 461.906 318.331 461.906 320.742C461.906 323.153 460.953 325.465 459.257 327.17C457.562 328.876 455.261 329.835 452.862 329.838Z" fill="#F2F2F2"/>
<path d="M415.516 436.718H200.53C198.129 436.718 195.826 435.76 194.128 434.054C192.43 432.348 191.477 430.035 191.477 427.622C191.477 425.21 192.43 422.896 194.128 421.19C195.826 419.484 198.129 418.526 200.53 418.526H415.516C416.706 418.525 417.884 418.759 418.984 419.215C420.083 419.672 421.083 420.342 421.924 421.187C422.766 422.031 423.434 423.034 423.889 424.139C424.345 425.243 424.58 426.427 424.58 427.622C424.58 428.817 424.345 430.001 423.889 431.105C423.434 432.21 422.766 433.213 421.924 434.058C421.083 434.902 420.083 435.572 418.984 436.029C417.884 436.485 416.706 436.72 415.516 436.718Z" fill="#F2F2F2"/>
<path d="M452.862 467.418H200.53C198.131 467.415 195.831 466.456 194.135 464.75C192.439 463.045 191.487 460.732 191.487 458.322C191.487 455.911 192.439 453.599 194.135 451.893C195.831 450.188 198.131 449.228 200.53 449.226H452.862C455.261 449.228 457.562 450.188 459.257 451.893C460.953 453.599 461.906 455.911 461.906 458.322C461.906 460.732 460.953 463.045 459.257 464.75C457.562 466.456 455.261 467.415 452.862 467.418Z" fill="#F2F2F2"/>
<path d="M152.372 206.195H76.2907C75.1397 206.193 74.0362 205.733 73.2224 204.916C72.4085 204.098 71.9507 202.989 71.9495 201.833V133.792C71.9507 132.635 72.4085 131.527 73.2224 130.709C74.0362 129.891 75.1397 129.431 76.2907 129.43H152.372C153.523 129.431 154.627 129.891 155.44 130.709C156.254 131.527 156.712 132.635 156.713 133.792V201.833C156.712 202.989 156.254 204.098 155.44 204.916C154.627 205.733 153.523 206.193 152.372 206.195Z" fill="#E6E6E6"/>
<path d="M152.372 343.774H76.2907C75.1397 343.773 74.0362 343.313 73.2224 342.495C72.4085 341.678 71.9507 340.569 71.9495 339.413V271.371C71.9507 270.215 72.4085 269.106 73.2224 268.289C74.0362 267.471 75.1397 267.011 76.2907 267.01H152.372C153.523 267.011 154.627 267.471 155.44 268.289C156.254 269.106 156.712 270.215 156.713 271.371V339.413C156.712 340.569 156.254 341.678 155.44 342.496C154.626 343.313 153.523 343.773 152.372 343.774Z" fill="#E6E6E6"/>
<path d="M152.372 481.354H76.2907C75.1397 481.353 74.0362 480.893 73.2224 480.075C72.4085 479.258 71.9507 478.149 71.9495 476.993V408.951C71.9507 407.795 72.4085 406.686 73.2224 405.869C74.0362 405.051 75.1397 404.591 76.2907 404.59H152.372C153.523 404.591 154.627 405.051 155.44 405.869C156.254 406.686 156.712 407.795 156.713 408.951V476.993C156.712 478.149 156.254 479.258 155.44 480.075C154.627 480.893 153.523 481.353 152.372 481.354Z" fill="#E6E6E6"/>
<path d="M854.01 474.337L857.382 444.703L874.293 296.12L877.666 266.486C879.287 252.096 875.161 237.648 866.193 226.31C857.224 214.973 844.146 207.673 829.827 206.012L446.107 161.928C431.784 160.299 417.403 164.444 406.119 173.455C394.835 182.465 387.569 195.605 385.915 209.991L385.906 210.068L362.268 417.765L362.259 417.842C360.638 432.232 364.764 446.681 373.732 458.018C382.701 469.355 395.779 476.655 410.098 478.317L793.818 522.401C808.14 524.03 822.521 519.884 833.806 510.874C845.09 501.863 852.356 488.723 854.01 474.337Z" fill="#E6E6E6"/>
<path d="M838.46 472.551L842.455 437.452L858.121 299.799L862.116 264.7C863.271 254.452 860.332 244.163 853.946 236.09C847.559 228.016 838.246 222.817 828.049 221.634L444.329 177.55C434.13 176.39 423.888 179.342 415.853 185.759C407.817 192.176 402.643 201.533 401.465 211.778L401.456 211.854L377.818 419.552L377.809 419.629C376.654 429.876 379.593 440.165 385.979 448.239C392.366 456.312 401.679 461.511 411.876 462.694L795.596 506.778C805.795 507.938 816.036 504.986 824.072 498.57C832.108 492.153 837.282 482.796 838.46 472.551Z" fill="white"/>
<path d="M775.651 284.228L562.057 259.689C560.875 259.554 559.731 259.187 558.69 258.608C557.65 258.029 556.733 257.249 555.992 256.314C555.251 255.379 554.701 254.306 554.374 253.157C554.046 252.008 553.947 250.805 554.082 249.617C554.217 248.43 554.584 247.281 555.161 246.235C555.739 245.19 556.516 244.27 557.447 243.527C558.379 242.783 559.447 242.232 560.591 241.904C561.736 241.576 562.933 241.477 564.115 241.614L777.708 266.153C780.092 266.43 782.269 267.645 783.761 269.534C785.253 271.422 785.938 273.828 785.666 276.223C785.393 278.618 784.185 280.807 782.307 282.308C780.43 283.809 778.035 284.499 775.651 284.228Z" fill="#E6E6E6"/>
<path d="M809.284 318.992L558.586 290.19C557.404 290.055 556.26 289.688 555.219 289.109C554.178 288.529 553.262 287.75 552.521 286.815C551.78 285.879 551.23 284.806 550.903 283.657C550.575 282.508 550.476 281.306 550.611 280.118C550.746 278.931 551.113 277.782 551.69 276.737C552.268 275.692 553.045 274.771 553.976 274.028C554.908 273.285 555.976 272.733 557.12 272.405C558.264 272.077 559.461 271.978 560.643 272.115L811.341 300.917C812.522 301.053 813.666 301.421 814.705 302C815.745 302.58 816.661 303.359 817.4 304.295C818.14 305.23 818.689 306.302 819.017 307.451C819.344 308.599 819.443 309.801 819.308 310.988C819.173 312.174 818.806 313.323 818.229 314.367C817.653 315.412 816.877 316.332 815.946 317.075C815.015 317.819 813.948 318.37 812.805 318.699C811.662 319.028 810.465 319.127 809.284 318.992Z" fill="#E6E6E6"/>
<path d="M802.294 379.825L432.688 337.362C430.304 337.086 428.127 335.87 426.635 333.982C425.143 332.094 424.458 329.688 424.73 327.292C425.003 324.897 426.211 322.709 428.089 321.208C429.966 319.707 432.36 319.016 434.745 319.287L804.351 361.75C805.534 361.885 806.678 362.252 807.718 362.831C808.759 363.41 809.676 364.19 810.416 365.125C811.157 366.061 811.707 367.133 812.035 368.282C812.362 369.431 812.462 370.634 812.326 371.822C812.191 373.009 811.824 374.158 811.247 375.203C810.67 376.248 809.893 377.169 808.961 377.912C808.029 378.655 806.961 379.207 805.817 379.535C804.673 379.863 803.476 379.961 802.294 379.825Z" fill="#E6E6E6"/>
<path d="M800.011 410.462L429.216 367.863C426.832 367.587 424.655 366.371 423.163 364.483C421.671 362.595 420.986 360.189 421.259 357.793C421.531 355.398 422.739 353.209 424.617 351.709C426.495 350.208 428.889 349.517 431.273 349.788L802.068 392.387C804.452 392.664 806.629 393.879 808.121 395.768C809.613 397.656 810.298 400.062 810.025 402.457C809.752 404.852 808.545 407.041 806.667 408.542C804.789 410.043 802.395 410.733 800.011 410.462Z" fill="#E6E6E6"/>
<path d="M795.492 439.591L425.885 397.129C424.703 396.994 423.559 396.627 422.518 396.048C421.478 395.468 420.561 394.689 419.82 393.754C419.079 392.818 418.529 391.745 418.201 390.596C417.874 389.447 417.775 388.245 417.91 387.057C418.045 385.869 418.412 384.72 418.989 383.675C419.567 382.63 420.343 381.71 421.275 380.966C422.207 380.223 423.275 379.672 424.419 379.344C425.563 379.015 426.761 378.917 427.942 379.054L797.549 421.517C799.933 421.793 802.11 423.009 803.602 424.897C805.094 426.785 805.779 429.191 805.507 431.586C805.234 433.982 804.026 436.17 802.148 437.671C800.271 439.172 797.876 439.863 795.492 439.591Z" fill="#E6E6E6"/>
<path d="M793.208 470.229L422.414 427.63C420.03 427.353 417.853 426.137 416.361 424.249C414.869 422.361 414.184 419.955 414.457 417.56C414.729 415.165 415.937 412.976 417.815 411.475C419.693 409.974 422.087 409.283 424.471 409.555L795.266 452.154C796.448 452.289 797.592 452.656 798.633 453.235C799.673 453.814 800.59 454.594 801.331 455.529C802.072 456.464 802.622 457.537 802.949 458.686C803.277 459.835 803.376 461.038 803.241 462.226C803.106 463.413 802.739 464.562 802.162 465.607C801.584 466.653 800.807 467.573 799.876 468.316C798.944 469.059 797.876 469.611 796.732 469.939C795.588 470.267 794.39 470.366 793.208 470.229Z" fill="#E6E6E6"/>
<path d="M509.164 298.539L433.575 289.855C432.432 289.722 431.387 289.139 430.671 288.234C429.955 287.329 429.626 286.175 429.755 285.026L437.449 217.425C437.581 216.276 438.161 215.227 439.062 214.508C439.963 213.788 441.112 213.457 442.255 213.587L517.844 222.271C518.987 222.404 520.032 222.987 520.748 223.892C521.464 224.798 521.794 225.951 521.664 227.1L513.97 294.701C513.838 295.85 513.258 296.899 512.357 297.619C511.456 298.338 510.308 298.669 509.164 298.539Z" fill="#6C63FF"/>
<path d="M951.87 726.82H704.464C704.164 726.82 703.877 726.701 703.665 726.488C703.453 726.275 703.334 725.986 703.334 725.685C703.334 725.384 703.453 725.095 703.665 724.883C703.877 724.67 704.164 724.55 704.464 724.55H951.87C952.17 724.55 952.457 724.67 952.669 724.883C952.881 725.095 953 725.384 953 725.685C953 725.986 952.881 726.275 952.669 726.488C952.457 726.701 952.17 726.82 951.87 726.82Z" fill="#3F3D56"/>
<path d="M858.97 293.199C858.59 294.707 858.543 296.281 858.834 297.809C859.124 299.338 859.745 300.783 860.652 302.045C861.559 303.306 862.73 304.352 864.082 305.11C865.435 305.867 866.937 306.317 868.482 306.428L876.135 329.502L891.226 328.249L879.962 295.817C879.976 293.197 879.033 290.664 877.312 288.696C875.591 286.728 873.211 285.463 870.623 285.14C868.036 284.818 865.42 285.46 863.273 286.945C861.125 288.43 859.594 290.656 858.97 293.199Z" fill="#FFB8B8"/>
<path d="M870.528 444.299C872.296 445.931 874.462 447.065 876.806 447.587C879.151 448.109 881.591 448.001 883.88 447.273C886.17 446.545 888.228 445.223 889.846 443.441C891.464 441.659 892.586 439.479 893.098 437.122L905.05 382.104C907.094 372.696 906.613 362.911 903.656 353.751L889.668 310.421C889.467 309.799 889.135 309.228 888.694 308.747C888.254 308.266 887.715 307.886 887.115 307.634C886.514 307.381 885.867 307.262 885.217 307.284C884.566 307.306 883.928 307.469 883.346 307.762L874.217 312.354C873.272 312.83 872.522 313.623 872.099 314.597C871.676 315.57 871.606 316.662 871.901 317.682L872.821 320.862C880.476 347.308 880.877 375.341 873.984 401.998L866.549 430.748C865.926 433.157 865.967 435.691 866.668 438.078C867.369 440.465 868.703 442.615 870.528 444.299Z" fill="#6C63FF"/>
<path d="M822.703 714.951L809.788 714.95L803.646 664.9L822.708 664.901L822.703 714.951Z" fill="#FFB8B8"/>
<path d="M800.562 711.242H825.47V726.998H784.88C784.88 724.929 785.286 722.88 786.074 720.969C786.862 719.057 788.017 717.32 789.473 715.857C790.929 714.394 792.658 713.233 794.561 712.441C796.464 711.649 798.503 711.242 800.562 711.242Z" fill="#2F2E41"/>
<path d="M892.317 714.951L879.402 714.95L873.26 664.9L892.322 664.901L892.317 714.951Z" fill="#FFB8B8"/>
<path d="M870.177 711.242H895.084V726.998H854.494C854.494 724.929 854.9 722.88 855.688 720.969C856.476 719.057 857.631 717.32 859.087 715.857C860.544 714.394 862.273 713.233 864.175 712.441C866.078 711.649 868.117 711.242 870.177 711.242Z" fill="#2F2E41"/>
<path d="M854.493 359.15C869.818 359.15 882.24 346.669 882.24 331.273C882.24 315.876 869.818 303.395 854.493 303.395C839.169 303.395 826.747 315.876 826.747 331.273C826.747 346.669 839.169 359.15 854.493 359.15Z" fill="#FFB8B8"/>
<path d="M759.617 513.078C759.811 511.534 760.34 510.052 761.165 508.736C761.991 507.419 763.094 506.301 764.396 505.459C765.699 504.617 767.169 504.072 768.704 503.863C770.238 503.654 771.8 503.786 773.278 504.248L788.785 485.572L802.38 492.272L780.113 518.337C779.174 520.781 777.376 522.795 775.059 523.996C772.741 525.197 770.066 525.502 767.54 524.854C765.014 524.205 762.812 522.649 761.352 520.478C759.892 518.308 759.274 515.675 759.617 513.078Z" fill="#FFB8B8"/>
<path d="M861.249 359.149C865.425 359.239 869.573 358.441 873.42 356.806C877.267 355.172 880.726 352.738 883.571 349.664C886.415 346.591 888.579 342.947 889.922 338.973C891.264 334.999 891.755 330.785 891.361 326.607C890.967 322.429 889.697 318.382 887.636 314.732C885.574 311.083 882.767 307.912 879.399 305.43C876.031 302.948 872.179 301.21 868.094 300.33C864.01 299.45 859.787 299.449 855.702 300.326C849.6 296.604 842.506 294.099 835.396 294.736C828.286 295.373 821.254 299.614 818.595 306.27C815.936 312.926 818.793 321.7 825.404 324.405C829.642 326.139 834.429 325.298 838.952 324.599C843.475 323.899 848.41 323.443 852.346 325.788C856.283 328.133 858.052 334.42 854.527 337.352C852.658 338.967 851.323 341.117 850.701 343.514C850.078 345.91 850.198 348.441 851.043 350.768C852.814 355.372 857.651 359.071 861.249 359.149Z" fill="#2F2E41"/>
<path d="M895.675 511.976L900.597 699.64C900.613 700.265 900.501 700.887 900.266 701.467C900.032 702.047 899.681 702.572 899.235 703.009C898.789 703.446 898.258 703.786 897.676 704.007C897.093 704.228 896.471 704.325 895.849 704.293L879.635 703.462C878.601 703.409 877.616 703.001 876.845 702.305C876.075 701.609 875.566 700.669 875.403 699.641L856.118 577.752C856.035 577.23 855.774 576.754 855.38 576.405C854.985 576.056 854.482 575.856 853.956 575.84C853.431 575.823 852.916 575.991 852.501 576.315C852.086 576.639 851.796 577.098 851.681 577.613L825.576 694.971C825.437 695.598 825.166 696.188 824.783 696.703C824.399 697.217 823.911 697.644 823.351 697.955C822.791 698.265 822.172 698.453 821.534 698.505C820.897 698.558 820.255 698.473 819.652 698.258L803.561 697.271C802.63 696.938 801.833 696.308 801.293 695.477C800.752 694.647 800.497 693.661 800.567 692.67L814.614 510.2L895.675 511.976Z" fill="#2F2E41"/>
<path d="M903.574 422.842C906.288 394.404 885.476 368.681 857.113 366.658C844.892 365.786 825.919 365.474 819.665 381.568C800.824 430.049 833.806 428.871 822.442 470.874C811.079 512.878 801.042 515.286 816.634 518.319C832.226 521.352 902.342 539.256 899.463 509.692C897.693 491.52 900.866 451.209 903.574 422.842Z" fill="#6C63FF"/>
<path d="M825.26 376.636C827.5 375.766 829.928 375.504 832.301 375.877C834.673 376.25 836.906 377.246 838.773 378.763C840.64 380.28 842.076 382.265 842.935 384.518C843.795 386.771 844.047 389.212 843.668 391.594L834.812 447.2C833.298 456.708 829.295 465.642 823.215 473.086L794.453 508.299C794.041 508.804 793.524 509.214 792.939 509.5C792.354 509.787 791.715 509.943 791.064 509.958C790.413 509.973 789.767 509.846 789.17 509.587C788.572 509.328 788.038 508.943 787.602 508.457L780.77 500.834C780.063 500.045 779.653 499.031 779.613 497.97C779.572 496.909 779.904 495.866 780.549 495.025L782.561 492.402C799.293 470.585 809.849 444.633 813.114 417.287L816.634 387.794C816.929 385.323 817.888 382.979 819.408 381.013C820.927 379.048 822.95 377.535 825.26 376.636Z" fill="#6C63FF"/>
</g>
<defs>
<clipPath id="clip0_8_36">
<rect width="953" height="727" fill="white"/>
</clipPath>
</defs>
</svg>
