<svg width="883" height="829" viewBox="0 0 883 829" fill="none" xmlns="http://www.w3.org/2000/svg">
<g clip-path="url(#clip0_4_105)">
<path d="M217.144 61.1275H162.593C157.349 61.1323 152.32 63.2231 148.612 66.9409C144.904 70.6587 142.818 75.6998 142.813 80.9575V140.249C142.116 140.207 141.418 140.145 140.731 140.061C127.808 138.698 115.521 133.743 105.256 125.754C94.9916 117.764 87.1573 107.059 82.6366 94.8453C78.1159 82.6312 77.0887 69.394 79.6706 56.6259C82.2526 43.8579 88.3411 32.0668 97.2497 22.5822C106.158 13.0976 117.533 6.29665 130.091 2.94607C142.648 -0.404516 155.89 -0.171448 168.323 3.61901C180.756 7.40946 191.885 14.6066 200.456 24.3988C209.027 34.1911 214.699 46.1891 216.832 59.0402C216.947 59.729 217.051 60.4283 217.144 61.1275Z" fill="#F2F2F2"/>
<path d="M861.138 59.0402H162.593C156.797 59.0465 151.24 61.3577 147.142 65.4666C143.043 69.5756 140.738 75.1466 140.731 80.9575V450.422C140.738 456.233 143.043 461.804 147.142 465.913C151.24 470.021 156.797 472.333 162.593 472.339H861.138C866.934 472.333 872.491 470.021 876.59 465.913C880.688 461.804 882.994 456.233 883 450.422V80.9575C882.994 75.1466 880.688 69.5756 876.59 65.4666C872.491 61.3577 866.934 59.0465 861.138 59.0402ZM880.918 450.422C880.913 455.679 878.828 460.721 875.119 464.438C871.411 468.156 866.382 470.247 861.138 470.252H162.593C157.349 470.247 152.32 468.156 148.612 464.438C144.904 460.721 142.818 455.679 142.813 450.422V80.9575C142.818 75.6997 144.904 70.6587 148.612 66.9409C152.32 63.223 157.349 61.1323 162.593 61.1275H861.138C866.382 61.1323 871.411 63.223 875.119 66.9409C878.828 70.6587 880.913 75.6997 880.918 80.9575V450.422Z" fill="#3F3D56"/>
<path d="M826.783 118.916H196.948C196.672 118.916 196.407 118.806 196.212 118.61C196.017 118.415 195.907 118.149 195.907 117.872C195.907 117.595 196.017 117.33 196.212 117.134C196.407 116.939 196.672 116.829 196.948 116.829H826.783C827.059 116.829 827.324 116.939 827.519 117.134C827.715 117.33 827.824 117.595 827.824 117.872C827.824 118.149 827.715 118.415 827.519 118.61C827.324 118.806 827.059 118.916 826.783 118.916Z" fill="#3F3D56"/>
<path d="M374.968 427.461C374.691 427.461 374.427 427.351 374.231 427.155C374.036 426.959 373.927 426.694 373.927 426.417V83.0449C373.927 82.7681 374.036 82.5026 374.231 82.3069C374.427 82.1112 374.691 82.0012 374.968 82.0012C375.244 82.0012 375.508 82.1112 375.704 82.3069C375.899 82.5026 376.009 82.7681 376.009 83.0449V426.417C376.009 426.694 375.899 426.959 375.704 427.155C375.508 427.351 375.244 427.461 374.968 427.461Z" fill="#3F3D56"/>
<path d="M532.166 427.461C531.89 427.461 531.625 427.351 531.43 427.155C531.235 426.959 531.125 426.694 531.125 426.417V83.0449C531.125 82.7681 531.235 82.5026 531.43 82.3069C531.625 82.1112 531.89 82.0012 532.166 82.0012C532.442 82.0012 532.707 82.1112 532.902 82.3069C533.097 82.5026 533.207 82.7681 533.207 83.0449V426.417C533.207 426.694 533.097 426.959 532.902 427.155C532.707 427.351 532.442 427.461 532.166 427.461Z" fill="#3F3D56"/>
<path d="M689.365 427.461C689.089 427.461 688.824 427.351 688.629 427.155C688.433 426.959 688.324 426.694 688.324 426.417V83.0449C688.324 82.7681 688.433 82.5026 688.629 82.3069C688.824 82.1112 689.089 82.0012 689.365 82.0012C689.641 82.0012 689.906 82.1112 690.101 82.3069C690.296 82.5026 690.406 82.7681 690.406 83.0449V426.417C690.406 426.694 690.296 426.959 690.101 427.155C689.906 427.351 689.641 427.461 689.365 427.461Z" fill="#3F3D56"/>
<path d="M273.898 226.643H235.858C234.616 226.641 233.425 226.146 232.547 225.266C231.669 224.385 231.175 223.191 231.173 221.946V176.943C231.175 175.698 231.669 174.504 232.547 173.623C233.425 172.743 234.616 172.248 235.858 172.246H273.898C275.14 172.248 276.331 172.743 277.209 173.623C278.087 174.504 278.581 175.698 278.583 176.943V221.946C278.581 223.191 278.087 224.385 277.209 225.266C276.331 226.146 275.14 226.641 273.898 226.643Z" fill="#6C63FF"/>
<path d="M328.032 355.016H289.992C288.75 355.014 287.56 354.519 286.681 353.639C285.803 352.758 285.309 351.564 285.308 350.319V305.316C285.309 304.071 285.803 302.877 286.681 301.996C287.56 301.116 288.75 300.621 289.992 300.619H328.032C329.274 300.621 330.465 301.116 331.344 301.996C332.222 302.877 332.716 304.071 332.717 305.316V350.319C332.716 351.564 332.222 352.758 331.344 353.639C330.465 354.519 329.274 355.014 328.032 355.016Z" fill="#6C63FF"/>
<path d="M450.877 253.778H412.837C411.595 253.777 410.404 253.282 409.525 252.401C408.647 251.521 408.153 250.327 408.152 249.082V204.079C408.153 202.833 408.647 201.64 409.525 200.759C410.404 199.879 411.595 199.383 412.837 199.382H450.877C452.119 199.383 453.309 199.879 454.188 200.759C455.066 201.64 455.56 202.833 455.561 204.079V249.082C455.56 250.327 455.066 251.521 454.188 252.401C453.309 253.282 452.119 253.777 450.877 253.778Z" fill="#6C63FF"/>
<path d="M610.157 204.725H572.117C570.875 204.724 569.684 204.229 568.806 203.348C567.928 202.468 567.434 201.274 567.432 200.029V155.025C567.434 153.78 567.928 152.586 568.806 151.706C569.684 150.826 570.875 150.33 572.117 150.329H610.157C611.399 150.33 612.59 150.826 613.468 151.706C614.346 152.586 614.84 153.78 614.842 155.025V200.029C614.84 201.274 614.346 202.468 613.468 203.348C612.59 204.229 611.399 204.724 610.157 204.725Z" fill="#6C63FF"/>
<path d="M756.945 204.725H718.905C717.663 204.724 716.472 204.229 715.594 203.348C714.716 202.468 714.222 201.274 714.22 200.029V155.025C714.222 153.78 714.716 152.586 715.594 151.706C716.472 150.826 717.663 150.33 718.905 150.329H756.945C758.187 150.33 759.378 150.826 760.256 151.706C761.134 152.586 761.628 153.78 761.63 155.025V200.029C761.628 201.274 761.134 202.468 760.256 203.348C759.378 204.229 758.187 204.724 756.945 204.725Z" fill="#6C63FF"/>
<path d="M824.613 217.249H786.573C785.331 217.248 784.141 216.753 783.262 215.872C782.384 214.992 781.89 213.798 781.889 212.553V167.55C781.89 166.304 782.384 165.111 783.262 164.23C784.141 163.35 785.331 162.854 786.573 162.853H824.613C825.855 162.854 827.046 163.35 827.924 164.23C828.803 165.111 829.297 166.304 829.298 167.55V212.553C829.297 213.798 828.803 214.992 827.924 215.872C827.046 216.753 825.855 217.248 824.613 217.249Z" fill="#E6E6E6"/>
<path d="M794.423 297.613H756.383C755.141 297.612 753.95 297.117 753.072 296.236C752.194 295.356 751.7 294.162 751.698 292.917V247.913C751.7 246.668 752.194 245.474 753.072 244.594C753.95 243.713 755.141 243.218 756.383 243.217H794.423C795.665 243.218 796.856 243.713 797.734 244.594C798.612 245.474 799.106 246.668 799.108 247.913V292.917C799.106 294.162 798.612 295.356 797.734 296.236C796.856 297.117 795.665 297.612 794.423 297.613Z" fill="#E6E6E6"/>
<path d="M665.333 280.914H627.293C626.051 280.913 624.86 280.418 623.982 279.537C623.104 278.657 622.61 277.463 622.608 276.218V231.214C622.61 229.969 623.104 228.775 623.982 227.895C624.86 227.014 626.051 226.519 627.293 226.518H665.333C666.575 226.519 667.766 227.014 668.644 227.895C669.522 228.775 670.016 229.969 670.018 231.214V276.218C670.016 277.463 669.522 278.657 668.644 279.537C667.766 280.418 666.575 280.913 665.333 280.914Z" fill="#FF6584"/>
<path d="M591.418 297.613H553.378C552.136 297.612 550.945 297.117 550.067 296.236C549.189 295.356 548.695 294.162 548.694 292.917V247.913C548.695 246.668 549.189 245.474 550.067 244.594C550.945 243.713 552.136 243.218 553.378 243.217H591.418C592.66 243.218 593.851 243.713 594.729 244.594C595.608 245.474 596.102 246.668 596.103 247.913V292.917C596.102 294.162 595.608 295.356 594.729 296.236C593.851 297.117 592.66 297.612 591.418 297.613Z" fill="#E6E6E6"/>
<path d="M432.138 368.584H394.098C392.856 368.582 391.665 368.087 390.787 367.206C389.908 366.326 389.414 365.132 389.413 363.887V318.884C389.414 317.639 389.908 316.445 390.787 315.564C391.665 314.684 392.856 314.189 394.098 314.187H432.138C433.38 314.189 434.57 314.684 435.449 315.564C436.327 316.445 436.821 317.639 436.822 318.884V363.887C436.821 365.132 436.327 366.326 435.449 367.207C434.57 368.087 433.38 368.582 432.138 368.584Z" fill="#E6E6E6"/>
<path d="M239.543 309.094H201.503C200.261 309.092 199.07 308.597 198.192 307.717C197.314 306.836 196.82 305.642 196.818 304.397V259.394C196.82 258.149 197.314 256.955 198.192 256.074C199.07 255.194 200.261 254.699 201.503 254.697H239.543C240.785 254.699 241.976 255.194 242.854 256.074C243.733 256.955 244.227 258.149 244.228 259.394V304.397C244.227 305.642 243.733 306.836 242.854 307.717C241.976 308.597 240.785 309.092 239.543 309.094Z" fill="#FF6584"/>
<path d="M346.771 226.643H308.731C307.489 226.641 306.299 226.146 305.42 225.266C304.542 224.385 304.048 223.191 304.047 221.946V176.943C304.048 175.698 304.542 174.504 305.42 173.623C306.299 172.743 307.489 172.248 308.731 172.246H346.771C348.013 172.248 349.204 172.743 350.082 173.623C350.961 174.504 351.455 175.698 351.456 176.943V221.946C351.455 223.191 350.961 224.385 350.082 225.266C349.204 226.146 348.013 226.641 346.771 226.643Z" fill="#E6E6E6"/>
<path d="M315.628 101.831H256.288C255.183 101.831 254.124 101.391 253.343 100.608C252.562 99.8255 252.124 98.7636 252.124 97.6564C252.124 96.5492 252.562 95.4874 253.343 94.7044C254.124 93.9215 255.183 93.4817 256.288 93.4817H315.628C316.732 93.4817 317.791 93.9215 318.572 94.7044C319.353 95.4874 319.792 96.5492 319.792 97.6564C319.792 98.7636 319.353 99.8255 318.572 100.608C317.791 101.391 316.732 101.831 315.628 101.831Z" fill="#CCCCCC"/>
<path d="M483.237 101.831H423.897C422.792 101.831 421.733 101.391 420.952 100.608C420.171 99.8255 419.733 98.7636 419.733 97.6564C419.733 96.5492 420.171 95.4874 420.952 94.7044C421.733 93.9215 422.792 93.4817 423.897 93.4817H483.237C484.341 93.4817 485.4 93.9215 486.181 94.7044C486.962 95.4874 487.401 96.5492 487.401 97.6564C487.401 98.7636 486.962 99.8255 486.181 100.608C485.4 101.391 484.341 101.831 483.237 101.831Z" fill="#CCCCCC"/>
<path d="M640.435 101.831H581.095C579.991 101.831 578.932 101.391 578.151 100.608C577.37 99.8255 576.931 98.7636 576.931 97.6564C576.931 96.5492 577.37 95.4874 578.151 94.7044C578.932 93.9215 579.991 93.4817 581.095 93.4817H640.435C641.54 93.4817 642.599 93.9215 643.38 94.7044C644.161 95.4874 644.6 96.5492 644.6 97.6564C644.6 98.7636 644.161 99.8255 643.38 100.608C642.599 101.391 641.54 101.831 640.435 101.831Z" fill="#CCCCCC"/>
<path d="M787.223 101.831H727.883C726.779 101.831 725.72 101.391 724.939 100.608C724.158 99.8255 723.719 98.7636 723.719 97.6564C723.719 96.5492 724.158 95.4874 724.939 94.7044C725.72 93.9215 726.779 93.4817 727.883 93.4817H787.223C788.328 93.4817 789.387 93.9215 790.168 94.7044C790.949 95.4874 791.387 96.5492 791.387 97.6564C791.387 98.7636 790.949 99.8255 790.168 100.608C789.387 101.391 788.328 101.831 787.223 101.831Z" fill="#CCCCCC"/>
<path d="M182.72 407.517C181.197 407.368 179.725 406.885 178.408 406.103C177.091 405.322 175.961 404.26 175.097 402.994C174.234 401.727 173.658 400.286 173.41 398.772C173.162 397.258 173.248 395.708 173.663 394.231L146.978 369.327L161.087 365.739L187.327 387.076C189.756 387.938 191.785 389.664 193.03 391.925C194.274 394.187 194.648 396.828 194.08 399.348C193.512 401.868 192.042 404.091 189.948 405.597C187.854 407.102 185.283 407.786 182.72 407.517Z" fill="#FFB8B8"/>
<path d="M219.568 591.583H232.331L238.402 542.229H219.566L219.568 591.583Z" fill="#FFB8B8"/>
<path d="M256.946 603.463L216.833 603.465L216.832 587.928L241.447 587.926C245.557 587.926 249.499 589.563 252.406 592.477C255.312 595.39 256.945 599.342 256.946 603.463Z" fill="#2F2E41"/>
<path d="M132.058 582.344L144.392 585.636L162.924 539.509L144.721 534.652L132.058 582.344Z" fill="#FFB8B8"/>
<path d="M165.13 603.467L126.367 593.123L130.354 578.109L154.14 584.456C158.112 585.516 161.501 588.114 163.562 591.679C165.623 595.245 166.187 599.485 165.13 603.467Z" fill="#2F2E41"/>
<path d="M235.763 582.239H216.288C215.058 582.243 213.871 581.785 212.96 580.956C212.05 580.127 211.482 578.986 211.368 577.758L199.545 454.675C199.459 453.772 199.062 452.927 198.422 452.286C197.783 451.644 196.941 451.245 196.041 451.157C195.14 451.068 194.237 451.297 193.486 451.802C192.735 452.308 192.183 453.06 191.924 453.929L157.597 568.942C157.234 570.164 156.414 571.199 155.308 571.83C154.203 572.462 152.897 572.64 151.663 572.33L133.545 567.788C132.913 567.63 132.318 567.347 131.795 566.958C131.272 566.568 130.831 566.078 130.497 565.517C130.164 564.955 129.944 564.333 129.851 563.687C129.759 563.04 129.794 562.381 129.957 561.748C130.252 560.589 159.533 445.87 159.789 444.691C166.424 395.671 174.361 382.535 178.625 375.479C178.978 374.895 179.302 374.358 179.594 373.85C179.96 373.215 182.21 366.916 183.637 362.824C183.823 362.159 184.144 361.539 184.58 361.004C185.016 360.47 185.558 360.031 186.172 359.717C204.089 350.531 225.053 356.89 231.051 359.057C232.045 359.408 232.899 360.073 233.485 360.952C251.479 388.162 242.649 546.197 240.696 577.601C240.614 578.857 240.059 580.036 239.143 580.897C238.227 581.758 237.019 582.238 235.763 582.239Z" fill="#2F2E41"/>
<path d="M185.505 270.475C199.626 270.475 211.074 258.998 211.074 244.841C211.074 230.684 199.626 219.207 185.505 219.207C171.383 219.207 159.935 230.684 159.935 244.841C159.935 258.998 171.383 270.475 185.505 270.475Z" fill="#FFB8B8"/>
<path d="M182.795 367.801L182.612 367.623C182.267 367.289 148.199 333.829 152.608 302.889C154.494 289.656 165.174 281.2 183.494 278.435C190.224 277.433 197.089 278.9 202.827 282.566C208.564 286.233 212.789 291.852 214.725 298.391L232.839 360.474L182.795 367.801Z" fill="#CCCCCC"/>
<path d="M165.359 391.6L141.083 367.417C139.423 365.754 138.218 363.691 137.584 361.426C136.949 359.161 136.907 356.77 137.461 354.484L149.213 306.559C149.565 305.123 150.207 303.775 151.1 302.598C151.993 301.421 153.117 300.44 154.403 299.716C155.689 298.992 157.11 298.54 158.577 298.389C160.045 298.237 161.527 298.389 162.934 298.836C165.614 299.702 167.853 301.58 169.176 304.072C170.499 306.565 170.803 309.476 170.022 312.189L157.65 354.35L177.657 375.888L165.359 391.6Z" fill="#CCCCCC"/>
<path d="M295.565 309.068C294.923 310.46 293.984 311.695 292.815 312.685C291.645 313.675 290.274 314.396 288.796 314.797C287.319 315.197 285.772 315.269 284.264 315.005C282.757 314.742 281.325 314.15 280.07 313.272L247.663 330.112L249.095 315.807L277.825 297.982C279.436 295.966 281.729 294.613 284.269 294.179C286.809 293.744 289.419 294.259 291.606 295.625C293.793 296.992 295.404 299.115 296.133 301.592C296.863 304.07 296.66 306.73 295.565 309.068Z" fill="#FFB8B8"/>
<path d="M276.531 319.715L244.939 333.402C242.836 334.306 240.537 334.652 238.262 334.407C235.987 334.163 233.813 333.335 231.95 332.005L191.777 303.148C190.578 302.287 189.568 301.188 188.809 299.919C188.051 298.651 187.561 297.24 187.368 295.774C187.175 294.308 187.285 292.818 187.69 291.396C188.095 289.974 188.787 288.651 189.722 287.507C191.52 285.334 194.092 283.948 196.892 283.642C199.691 283.337 202.5 284.136 204.722 285.871L239.169 313.051L266.549 302.431L276.531 319.715Z" fill="#CCCCCC"/>
<path d="M189.744 253.055C192.898 249.093 198.791 248.88 203.124 246.266C208.8 242.843 211.146 235.192 209.317 228.81C207.488 222.427 202.094 217.453 195.91 215.075C189.726 212.696 182.845 212.666 176.322 213.816C166.608 215.528 157.045 220.073 151.121 227.978C145.197 235.883 143.69 247.459 149.059 255.753C151.526 259.565 155.335 262.711 156.32 267.147C157.614 272.97 153.539 278.587 149.174 282.641C144.202 287.261 138.496 291.13 134.14 296.338C129.783 301.545 126.878 308.66 128.866 315.158C130.531 320.602 135.378 324.613 140.694 326.621C146.009 328.63 151.798 328.92 157.477 329.032C162.991 329.14 168.849 329.005 173.494 326.024C178.467 322.833 181.123 316.779 181.319 310.863C181.515 304.946 179.543 299.15 176.9 293.856C175.325 290.701 173.493 287.644 172.446 284.275C171.4 280.906 171.218 277.084 172.895 273.982C174.657 270.72 178.222 268.754 181.852 268.039C182.041 268.002 182.24 267.968 182.449 267.939C183.482 267.804 184.477 267.462 185.373 266.931C186.27 266.4 187.051 265.692 187.667 264.851C188.283 264.009 188.723 263.051 188.959 262.034C189.196 261.017 189.224 259.962 189.042 258.934C188.628 256.623 188.664 254.411 189.744 253.055Z" fill="#2F2E41"/>
<path d="M530.659 592.676H517.896L511.825 543.322L530.661 543.323L530.659 592.676Z" fill="#A0616A"/>
<path d="M508.78 589.02H533.394V604.557H493.282C493.282 602.516 493.683 600.496 494.461 598.611C495.24 596.726 496.382 595.013 497.821 593.57C499.26 592.128 500.969 590.983 502.849 590.202C504.729 589.421 506.744 589.02 508.78 589.02Z" fill="#2F2E41"/>
<path d="M623.266 578.182L611.657 583.498L585.679 541.135L602.814 533.289L623.266 578.182Z" fill="#A0616A"/>
<path d="M601.849 583.97L624.239 573.717L630.678 587.85L594.191 604.558C593.345 602.702 592.873 600.697 592.8 598.658C592.727 596.619 593.056 594.585 593.767 592.674C594.478 590.762 595.558 589.009 596.945 587.516C598.331 586.022 599.998 584.817 601.849 583.97Z" fill="#2F2E41"/>
<path d="M586.098 426.268C587.321 425.345 588.327 424.165 589.046 422.81C589.764 421.456 590.178 419.959 590.257 418.427C590.337 416.895 590.08 415.364 589.506 413.942C588.931 412.52 588.053 411.241 586.932 410.196L601.935 376.068L582.875 379.306L571.55 411.219C569.924 413.223 569.087 415.755 569.199 418.336C569.311 420.916 570.363 423.366 572.157 425.221C573.95 427.076 576.36 428.207 578.929 428.4C581.498 428.593 584.049 427.834 586.098 426.268Z" fill="#A0616A"/>
<path d="M529.846 579.662H517.653C516.471 579.658 515.333 579.208 514.467 578.4C513.601 577.593 513.07 576.488 512.981 575.306L506.331 397.297C506.282 396.615 506.382 395.93 506.624 395.291C506.866 394.651 507.244 394.072 507.732 393.595C508.221 393.117 508.807 392.752 509.451 392.526C510.095 392.299 510.78 392.216 511.459 392.282L581.974 399.79C583.117 399.902 584.179 400.431 584.959 401.276C585.738 402.122 586.181 403.225 586.203 404.376L587.681 482.897C587.689 483.324 587.771 483.745 587.925 484.143L616.85 559.343C617.074 559.924 617.18 560.544 617.162 561.166C617.144 561.789 617.004 562.401 616.747 562.969C616.491 563.536 616.125 564.047 615.671 564.471C615.216 564.895 614.682 565.224 614.099 565.439L601.743 570.003C600.67 570.399 599.489 570.388 598.424 569.972C597.358 569.556 596.481 568.764 595.958 567.745L560.424 498.476C560.23 498.1 560.089 497.699 560.003 497.284L553.933 467.963C553.757 467.113 553.284 466.353 552.601 465.82C551.917 465.288 551.066 465.017 550.201 465.056C549.335 465.095 548.512 465.442 547.879 466.035C547.246 466.627 546.844 467.426 546.745 468.289L534.5 575.5C534.37 576.646 533.823 577.703 532.965 578.471C532.106 579.239 530.996 579.663 529.846 579.662Z" fill="#2F2E41"/>
<path d="M535.917 258.111C550.039 258.111 561.486 246.634 561.486 232.477C561.486 218.32 550.039 206.843 535.917 206.843C521.796 206.843 510.348 218.32 510.348 232.477C510.348 246.634 521.796 258.111 535.917 258.111Z" fill="#A0616A"/>
<path d="M553.452 413.574C536.113 413.382 519.186 408.242 504.655 398.755L504.406 398.583L504.432 398.281L514.213 284.085C514.55 280.211 516.275 276.59 519.069 273.892C521.863 271.194 525.537 269.602 529.411 269.409C542.087 268.825 559.113 269.562 568.227 276.367C582.001 286.652 588.64 302.14 586.441 318.858C581.881 353.528 587.047 400.296 587.651 405.514L587.695 405.89L587.351 406.048C576.733 411.001 565.164 413.569 553.452 413.574Z" fill="#6C63FF"/>
<path d="M587.533 405.708C586.812 405.707 586.1 405.556 585.44 405.264C584.78 404.973 584.188 404.547 583.701 404.015L578.108 397.898C577.504 397.233 577.08 396.423 576.878 395.547C576.676 394.67 576.702 393.757 576.953 392.893L589.707 349.618L570.302 308.765C569.396 306.852 569.174 304.685 569.673 302.628C570.114 300.823 571.09 299.193 572.473 297.955C573.856 296.717 575.58 295.928 577.42 295.692C579.259 295.456 581.126 295.785 582.775 296.635C584.424 297.485 585.777 298.817 586.656 300.453L612.989 343.288C614.059 345.026 614.687 347 614.817 349.038C614.948 351.076 614.578 353.115 613.739 354.976L592.283 402.635C591.93 403.423 591.386 404.111 590.702 404.635C590.017 405.16 589.213 405.506 588.362 405.641C588.088 405.685 587.811 405.708 587.533 405.708Z" fill="#6C63FF"/>
<path d="M407.304 323.043C408.532 323.958 409.945 324.593 411.445 324.902C412.944 325.211 414.492 325.186 415.981 324.83C417.47 324.474 418.862 323.795 420.061 322.841C421.259 321.887 422.235 320.682 422.918 319.309L459.811 324.106L451.333 306.688L417.598 304.803C415.222 303.805 412.563 303.716 410.125 304.551C407.687 305.387 405.639 307.091 404.37 309.339C403.102 311.587 402.699 314.224 403.24 316.75C403.781 319.275 405.227 321.515 407.304 323.043Z" fill="#A0616A"/>
<path d="M488.622 332.555C487.98 332.555 487.338 332.511 486.702 332.422L428.662 324.352C427.714 324.221 426.813 323.856 426.04 323.289C425.267 322.722 424.648 321.972 424.237 321.105C424.104 320.825 423.994 320.536 423.906 320.239C423.681 319.469 423.618 318.66 423.721 317.864C423.825 317.068 424.091 316.302 424.504 315.614L429.307 307.631C429.824 306.778 430.551 306.072 431.418 305.581C432.285 305.09 433.263 304.831 434.258 304.828H434.266L484.857 304.886L522.641 270.948C524.399 269.373 526.644 268.452 528.999 268.34C531.067 268.244 533.115 268.778 534.873 269.873C536.632 270.968 538.018 272.571 538.85 274.472C539.681 276.372 539.918 278.481 539.529 280.519C539.141 282.557 538.145 284.43 536.674 285.89L498.972 327.927C497.668 329.384 496.072 330.548 494.288 331.346C492.505 332.143 490.575 332.555 488.622 332.555Z" fill="#6C63FF"/>
<path d="M538.824 255.282C541.161 249.86 543.138 242.64 538.656 238.807C536.056 236.584 532.312 236.579 528.906 236.303C519.31 235.523 509.433 231.097 504.743 222.668C500.052 214.24 502.672 201.707 511.52 197.904C517.485 195.341 524.322 197.087 530.566 198.862L549.31 204.191C554.88 205.774 560.728 207.52 564.738 211.707C571.133 218.383 570.655 229.67 565.575 237.4C560.496 245.13 552.847 253.192 544.091 256.127L538.824 255.282Z" fill="#2F2E41"/>
<path d="M797.434 604.897H28.8334C28.6703 604.897 28.5087 604.866 28.3579 604.803C28.2071 604.741 28.0701 604.65 27.9546 604.534C27.8391 604.419 27.7475 604.282 27.6849 604.131C27.6224 603.98 27.5902 603.818 27.5902 603.654C27.5902 603.491 27.6224 603.329 27.6849 603.178C27.7475 603.027 27.8391 602.89 27.9546 602.774C28.0701 602.659 28.2071 602.567 28.3579 602.505C28.5087 602.443 28.6703 602.411 28.8334 602.412H797.434C797.598 602.411 797.759 602.443 797.91 602.505C798.061 602.567 798.198 602.659 798.313 602.774C798.429 602.89 798.52 603.027 798.583 603.178C798.645 603.329 798.678 603.491 798.678 603.654C798.678 603.818 798.645 603.98 798.583 604.131C798.52 604.282 798.429 604.419 798.313 604.534C798.198 604.65 798.061 604.741 797.91 604.803C797.759 604.866 797.598 604.897 797.434 604.897Z" fill="#3F3D56"/>
</g>
<g clip-path="url(#clip1_4_105)">
<path d="M341.758 773.582C337.022 775.245 331.936 775.662 326.992 774.792C322.048 773.921 317.411 771.793 313.529 768.613C303.641 760.32 300.541 746.659 298.019 734.009L290.558 696.593L306.178 707.34C317.411 715.068 328.896 723.044 336.674 734.238C344.452 745.433 347.846 760.714 341.597 772.827" fill="#E6E6E6"/>
<path d="M340.423 818.882C342.004 807.375 343.629 795.721 342.52 784.091C341.536 773.762 338.382 763.674 331.962 755.402C328.554 751.02 324.407 747.266 319.708 744.307C318.483 743.534 317.355 745.475 318.575 746.244C326.706 751.379 332.995 758.961 336.535 767.897C340.445 777.835 341.073 788.668 340.399 799.225C339.992 805.609 339.128 811.951 338.258 818.285C338.189 818.572 338.232 818.873 338.378 819.13C338.523 819.386 338.761 819.577 339.042 819.665C339.329 819.742 339.635 819.703 339.893 819.557C340.152 819.41 340.342 819.167 340.423 818.882Z" fill="#F2F2F2"/>
<path d="M325.196 798.52C323.164 801.605 320.372 804.115 317.088 805.809C313.804 807.503 310.139 808.323 306.445 808.19C296.954 807.74 289.041 801.12 281.917 794.836L260.848 776.248L274.793 775.581C284.82 775.102 295.107 774.654 304.658 777.745C314.209 780.835 323.018 788.271 324.765 798.15" fill="#E6E6E6"/>
<path d="M344.891 825.496C337.281 812.043 328.455 797.091 312.685 792.312C308.3 790.987 303.702 790.513 299.138 790.914C297.7 791.038 298.059 793.253 299.495 793.129C307.144 792.495 314.778 794.513 321.113 798.844C327.208 802.99 331.954 808.754 335.971 814.866C338.431 818.61 340.635 822.512 342.84 826.41C343.544 827.655 345.603 826.756 344.891 825.496Z" fill="#F2F2F2"/>
<path d="M548.841 555.986L382.946 693.373C380.859 695.097 378.172 695.924 375.476 695.672C372.779 695.42 370.292 694.109 368.562 692.027L298.629 607.715C296.903 605.63 296.076 602.945 296.328 600.25C296.581 597.556 297.892 595.071 299.976 593.342L465.87 455.955C467.958 454.23 470.644 453.403 473.341 453.655C476.038 453.908 478.524 455.218 480.255 457.3L550.187 541.612C551.913 543.698 552.741 546.382 552.489 549.077C552.236 551.772 550.924 554.256 548.841 555.986Z" fill="#CCCCCC"/>
<path d="M542.193 551.849L380.112 686.077C379.037 686.966 377.653 687.392 376.263 687.262C374.874 687.132 373.593 686.457 372.702 685.384L305.93 604.883C305.041 603.809 304.615 602.426 304.745 601.038C304.875 599.649 305.55 598.37 306.624 597.479L468.705 463.25C469.78 462.361 471.164 461.935 472.553 462.065C473.942 462.195 475.223 462.871 476.115 463.943L542.887 544.444C543.776 545.519 544.202 546.902 544.072 548.29C543.942 549.678 543.266 550.958 542.193 551.849Z" fill="white"/>
<path d="M549.665 579.947L516.328 576.829L540.188 558.065L553.041 573.561C553.542 574.152 553.853 574.881 553.933 575.652C554.012 576.423 553.857 577.2 553.488 577.881C553.245 578.344 552.914 578.754 552.513 579.088C552.118 579.413 551.664 579.655 551.175 579.803C550.686 579.95 550.173 579.999 549.665 579.947Z" fill="#CCCCCC"/>
<path d="M482.72 520.282L400.726 588.186C400.225 588.601 399.648 588.913 399.026 589.105C398.405 589.296 397.751 589.364 397.104 589.303C396.456 589.243 395.827 589.055 395.252 588.752C394.677 588.448 394.167 588.034 393.752 587.534C393.337 587.033 393.024 586.456 392.832 585.835C392.641 585.214 392.573 584.561 392.634 583.914C392.694 583.267 392.882 582.638 393.186 582.064C393.49 581.489 393.904 580.98 394.405 580.565L476.398 512.661C476.899 512.246 477.477 511.934 478.098 511.742C478.72 511.551 479.373 511.483 480.021 511.544C480.669 511.604 481.298 511.792 481.873 512.095C482.448 512.399 482.958 512.813 483.373 513.313C483.788 513.814 484.1 514.391 484.292 515.012C484.484 515.633 484.552 516.286 484.491 516.933C484.43 517.58 484.243 518.209 483.939 518.784C483.635 519.358 483.221 519.868 482.72 520.282Z" fill="#CCCCCC"/>
<path d="M442.591 526.195L387.293 571.991C386.282 572.828 384.979 573.23 383.671 573.108C382.363 572.986 381.157 572.349 380.319 571.338C379.48 570.328 379.078 569.026 379.201 567.719C379.323 566.412 379.96 565.207 380.971 564.369L436.27 518.574C437.281 517.736 438.584 517.334 439.892 517.457C441.2 517.579 442.406 518.215 443.244 519.226C444.082 520.237 444.485 521.539 444.362 522.846C444.24 524.153 443.603 525.358 442.591 526.195Z" fill="#CCCCCC"/>
<path d="M356.907 619.854C365.456 619.854 372.386 612.929 372.386 604.387C372.386 595.845 365.456 588.92 356.907 588.92C348.358 588.92 341.428 595.845 341.428 604.387C341.428 612.929 348.358 619.854 356.907 619.854Z" fill="#6C63FF"/>
<path d="M480.035 573.384C482.77 573.384 484.988 571.168 484.988 568.435C484.988 565.701 482.77 563.485 480.035 563.485C477.299 563.485 475.082 565.701 475.082 568.435C475.082 571.168 477.299 573.384 480.035 573.384Z" fill="#E6E6E6"/>
<path d="M493.383 562.33C496.118 562.33 498.336 560.114 498.336 557.381C498.336 554.647 496.118 552.431 493.383 552.431C490.647 552.431 488.429 554.647 488.429 557.381C488.429 560.114 490.647 562.33 493.383 562.33Z" fill="#E6E6E6"/>
<path d="M506.73 551.276C509.466 551.276 511.684 549.06 511.684 546.326C511.684 543.593 509.466 541.377 506.73 541.377C503.995 541.377 501.777 543.593 501.777 546.326C501.777 549.06 503.995 551.276 506.73 551.276Z" fill="#E6E6E6"/>
<path d="M427.782 816.877L439.154 816.876L444.563 773.049L427.78 773.05L427.782 816.877Z" fill="#FFB8B8"/>
<path d="M424.882 813.167L447.276 813.167H447.277C449.151 813.166 451.007 813.535 452.739 814.252C454.47 814.969 456.043 816.019 457.369 817.343C458.694 818.667 459.745 820.239 460.462 821.97C461.18 823.7 461.549 825.554 461.549 827.427V827.89L424.882 827.892L424.882 813.167Z" fill="#2F2E41"/>
<path d="M386.97 816.877L398.342 816.876L403.751 773.049L386.968 773.05L386.97 816.877Z" fill="#FFB8B8"/>
<path d="M384.07 813.167L406.464 813.167H406.465C408.339 813.166 410.195 813.535 411.927 814.252C413.658 814.969 415.231 816.019 416.557 817.343C417.882 818.667 418.933 820.239 419.65 821.97C420.368 823.7 420.737 825.554 420.737 827.427V827.89L384.07 827.892L384.07 813.167Z" fill="#2F2E41"/>
<path d="M398.382 803.467H398.38L388.709 803.464C387.628 803.468 386.587 803.05 385.808 802.3C385.03 801.549 384.575 800.524 384.54 799.444L384.236 790.99C381.791 723.387 379.263 653.483 394.918 622.063L395.041 621.816L446.873 619.942L457.278 715.322C457.723 719.39 457.56 723.502 456.796 727.523L443.04 799.953C442.854 800.935 442.321 801.817 441.539 802.439C440.756 803.062 439.776 803.382 438.776 803.343L427.914 802.991C427.345 802.969 426.787 802.83 426.274 802.584C425.761 802.338 425.303 801.99 424.929 801.561C424.556 801.132 424.274 800.631 424.101 800.089C423.928 799.547 423.868 798.975 423.924 798.409L432.456 731.419C432.747 728.528 432.485 725.608 431.682 722.814L421.071 685.747C420.983 685.44 420.793 685.173 420.531 684.99C420.27 684.808 419.954 684.72 419.635 684.742C419.317 684.765 419.016 684.896 418.783 685.113C418.55 685.331 418.399 685.622 418.355 685.938L402.515 799.87C402.373 800.866 401.877 801.777 401.118 802.438C400.36 803.098 399.388 803.463 398.382 803.467Z" fill="#2F2E41"/>
<path d="M404.58 524.583C417.162 524.583 427.361 514.391 427.361 501.819C427.361 489.247 417.162 479.055 404.58 479.055C391.998 479.055 381.798 489.247 381.798 501.819C381.798 514.391 391.998 524.583 404.58 524.583Z" fill="#FFB8B8"/>
<path d="M444.443 626.982H397.302C396.703 626.982 396.111 626.854 395.566 626.605C395.021 626.356 394.537 625.992 394.145 625.54C393.753 625.087 393.463 624.555 393.295 623.98C393.127 623.405 393.085 622.801 393.172 622.209L395.501 606.271L381.825 568.685C380.413 564.805 379.889 560.658 380.29 556.549C380.691 552.44 382.007 548.472 384.143 544.938C386.279 541.403 389.179 538.391 392.631 536.123C396.084 533.854 400 532.387 404.094 531.828C409.927 531.016 415.867 532.09 421.045 534.894C426.223 537.699 430.366 542.086 432.867 547.413L435.871 553.8L448.547 622.052C448.659 622.653 448.636 623.272 448.482 623.865C448.327 624.457 448.044 625.008 447.652 625.479C447.261 625.949 446.77 626.328 446.215 626.588C445.661 626.848 445.056 626.983 444.443 626.982Z" fill="#6C63FF"/>
<path d="M344.93 666.962C346.349 666.632 347.678 665.996 348.825 665.098C349.971 664.2 350.906 663.061 351.564 661.763C352.223 660.465 352.588 659.038 352.635 657.583C352.682 656.128 352.409 654.681 351.835 653.343L388.568 570.418L367.555 565.129L338.055 648.305C335.869 649.417 334.168 651.291 333.273 653.573C332.378 655.854 332.352 658.385 333.199 660.684C334.047 662.984 335.709 664.893 337.871 666.05C340.033 667.207 342.545 667.532 344.93 666.962Z" fill="#FFB8B8"/>
<path d="M383.595 585.249L363.158 575.69C362.577 575.418 362.061 575.024 361.646 574.535C361.23 574.045 360.925 573.472 360.751 572.855C360.578 572.237 360.539 571.589 360.639 570.956C360.738 570.322 360.973 569.717 361.327 569.182L373.747 550.439C375.158 547.476 377.687 545.193 380.779 544.089C383.871 542.986 387.276 543.152 390.245 544.552C393.215 545.951 395.509 548.47 396.624 551.557C397.738 554.643 397.583 558.045 396.192 561.017L389.77 582.485C389.586 583.1 389.271 583.668 388.848 584.15C388.424 584.632 387.902 585.017 387.316 585.28C386.73 585.542 386.094 585.675 385.452 585.669C384.81 585.664 384.177 585.521 383.595 585.249Z" fill="#6C63FF"/>
<path d="M498.161 453.572C498.605 454.958 498.739 456.425 498.554 457.869C498.369 459.312 497.869 460.698 497.09 461.928C496.311 463.158 495.272 464.202 494.045 464.988C492.819 465.773 491.435 466.28 489.991 466.473L437.521 540.465L422.214 525.139L478.603 457.226C478.44 454.781 479.18 452.36 480.683 450.424C482.186 448.487 484.347 447.169 486.758 446.718C489.169 446.268 491.661 446.717 493.763 447.98C495.865 449.243 497.43 451.233 498.161 453.572Z" fill="#FFB8B8"/>
<path d="M449.654 531.78C449.729 532.417 449.666 533.063 449.468 533.673C449.27 534.284 448.943 534.844 448.509 535.317L433.344 551.823C431.502 554.541 428.657 556.418 425.432 557.043C422.208 557.668 418.866 556.99 416.141 555.157C413.416 553.324 411.529 550.486 410.895 547.266C410.261 544.045 410.93 540.705 412.757 537.977L422.508 517.719C422.786 517.14 423.186 516.629 423.68 516.219C424.174 515.809 424.75 515.511 425.37 515.344C425.99 515.176 426.639 515.145 427.272 515.251C427.905 515.357 428.508 515.598 429.04 515.958L447.722 528.603C448.254 528.962 448.702 529.432 449.036 529.98C449.369 530.529 449.58 531.143 449.654 531.78Z" fill="#6C63FF"/>
<path d="M434.513 492.291C434.499 490.231 434.212 488.181 433.661 486.196C429.991 472.644 416.441 464.51 402.843 466.551C400.199 465.793 397.461 465.41 394.71 465.413C387.712 465.413 380.944 467.913 375.629 472.463C370.314 477.012 366.802 483.311 365.728 490.221L354.744 560.876H414.107L423.692 499.218C424.048 496.927 424.132 494.602 423.942 492.291H434.513Z" fill="#2F2E41"/>
<path d="M508.295 828.406H312.583C312.337 828.406 312.101 828.308 311.927 828.134C311.753 827.961 311.655 827.725 311.655 827.479C311.655 827.233 311.753 826.998 311.927 826.824C312.101 826.65 312.337 826.552 312.583 826.552H508.295C508.541 826.552 508.777 826.65 508.951 826.824C509.125 826.998 509.222 827.233 509.222 827.479C509.222 827.725 509.125 827.961 508.951 828.134C508.777 828.308 508.541 828.406 508.295 828.406Z" fill="#CCCCCC"/>
<path d="M705.463 373.349C706.821 373.219 708.19 373.387 709.475 373.843C710.76 374.298 711.93 375.03 712.901 375.986C713.873 376.942 714.623 378.099 715.098 379.376C715.574 380.653 715.764 382.019 715.654 383.377L745.991 396.718L731.52 406.052L704.93 391.952C702.659 391.616 700.59 390.46 699.115 388.702C697.64 386.944 696.862 384.707 696.927 382.414C696.993 380.121 697.898 377.931 699.472 376.261C701.045 374.59 703.177 373.554 705.463 373.349Z" fill="#A0616A"/>
<path d="M827.836 356.706C840.418 356.706 850.617 346.515 850.617 333.943C850.617 321.371 840.418 311.179 827.836 311.179C815.254 311.179 805.054 321.371 805.054 333.943C805.054 346.515 815.254 356.706 827.836 356.706Z" fill="#A0616A"/>
<path d="M786.605 658.529L775.233 658.529L769.824 614.701L786.607 614.702L786.605 658.529Z" fill="#A0616A"/>
<path d="M789.505 669.544L752.838 669.542V669.079C752.838 667.206 753.208 665.352 753.925 663.622C754.642 661.892 755.693 660.319 757.018 658.995C758.344 657.671 759.917 656.621 761.648 655.904C763.38 655.187 765.236 654.819 767.11 654.819L789.505 654.82L789.505 669.544Z" fill="#2F2E41"/>
<path d="M833.91 658.529L822.538 658.529L817.128 614.701L833.911 614.702L833.91 658.529Z" fill="#A0616A"/>
<path d="M836.809 669.544L800.143 669.542V669.079C800.143 667.206 800.512 665.352 801.229 663.622C801.947 661.892 802.998 660.319 804.323 658.995C805.648 657.671 807.222 656.621 808.953 655.904C810.685 655.187 812.541 654.819 814.415 654.819L836.81 654.82L836.809 669.544Z" fill="#2F2E41"/>
<path d="M833.37 649.195C833.2 649.194 833.03 649.184 832.861 649.163L816.216 647.115C815.241 646.997 814.339 646.538 813.67 645.82C813 645.102 812.606 644.17 812.557 643.19L807.707 534.044C807.69 533.734 807.57 533.439 807.367 533.205C807.163 532.971 806.887 532.812 806.582 532.753C806.277 532.694 805.962 532.739 805.685 532.88C805.409 533.02 805.187 533.25 805.056 533.531L792.595 575.038L790.029 641.71C790.007 642.285 789.866 642.849 789.615 643.367C789.365 643.885 789.009 644.345 788.572 644.719C788.134 645.093 787.624 645.372 787.073 645.54C786.522 645.707 785.942 645.758 785.37 645.691L770.956 643.996C769.925 643.878 768.976 643.379 768.294 642.598C767.612 641.816 767.247 640.809 767.271 639.772L768.494 577.014L778.26 478.5L778.697 478.516L838.08 480.803L837.545 645.037C837.541 646.141 837.1 647.198 836.317 647.978C835.535 648.757 834.475 649.194 833.37 649.195Z" fill="#2F2E41"/>
<path d="M835.83 489.805C835.794 489.805 835.757 489.805 835.721 489.805L775.914 488.239C775.328 488.223 774.751 488.085 774.222 487.832C773.693 487.579 773.223 487.218 772.843 486.771C772.464 486.325 772.182 485.804 772.017 485.241C771.853 484.679 771.808 484.088 771.887 483.508L783.38 398.989C784.097 393.283 786.011 387.791 788.997 382.874C791.983 377.956 795.972 373.723 800.706 370.451C804.87 367.586 809.6 365.646 814.576 364.759C819.553 363.872 824.662 364.06 829.561 365.31C850.436 370.596 862.959 392.994 857.477 415.24L839.883 486.632C839.656 487.536 839.135 488.338 838.401 488.913C837.667 489.487 836.762 489.801 835.83 489.805Z" fill="#3F3D56"/>
<path d="M757.368 422.69C753.427 422.695 749.57 421.55 746.271 419.396L711.393 396.531C710.883 396.197 710.452 395.754 710.131 395.235C709.81 394.716 709.607 394.133 709.537 393.527C709.466 392.921 709.529 392.307 709.722 391.728C709.915 391.149 710.232 390.619 710.652 390.176L715.906 384.634C716.479 384.026 717.222 383.605 718.038 383.425C718.854 383.245 719.705 383.316 720.481 383.626L759.439 399.128L795.529 373.375C797.216 372.171 799.136 371.33 801.165 370.905C803.195 370.481 805.291 370.481 807.32 370.908C809.349 371.334 811.268 372.177 812.954 373.382C814.641 374.588 816.059 376.13 817.118 377.911C818.177 379.693 818.855 381.674 819.108 383.731C819.362 385.787 819.185 387.874 818.59 389.859C817.994 391.844 816.993 393.683 815.649 395.261C814.306 396.84 812.649 398.122 810.784 399.027L766.18 420.676C763.433 422.005 760.42 422.694 757.368 422.69Z" fill="#3F3D56"/>
<path d="M835.73 355.712C839.617 356.629 844.305 357.333 847.083 354.466C847.575 353.924 848.015 353.338 848.396 352.714L852.028 347.174C854.81 342.93 857.64 338.575 858.818 333.641C859.495 330.805 859.6 327.863 859.13 324.986C858.659 322.109 857.62 319.355 856.075 316.882C854.53 314.41 852.508 312.268 850.128 310.583C847.747 308.898 845.055 307.702 842.209 307.065C836.786 305.852 831.481 303.765 825.937 304.146C820.394 304.526 813.893 304.401 809.241 301.365C809.532 302.719 811.099 308.7 811.099 308.7C811.099 308.7 804.104 315.112 802.701 316.711C804.537 315.897 806.536 315.515 808.543 315.594C810.55 315.673 812.512 316.211 814.279 317.166C816.046 318.121 817.57 319.468 818.734 321.104C819.898 322.74 820.672 324.62 820.995 326.601C821.392 329.035 821.159 331.734 822.606 333.731C823.982 335.631 826.451 336.297 828.525 337.394C831.516 339.096 833.799 341.81 834.964 345.047C836.128 348.284 836.097 351.829 834.876 355.045L835.73 355.712Z" fill="#2F2E41"/>
<path d="M808.377 497.958H619.539C617.165 497.955 614.889 497.012 613.21 495.335C611.532 493.657 610.588 491.383 610.585 489.011V393.039C610.588 390.667 611.532 388.393 613.21 386.716C614.889 385.039 617.165 384.095 619.539 384.093H808.377C810.751 384.095 813.027 385.039 814.705 386.716C816.384 388.393 817.328 390.667 817.331 393.039V489.012C817.328 491.383 816.384 493.658 814.705 495.335C813.027 497.012 810.751 497.955 808.377 497.958Z" fill="#CCCCCC"/>
<path d="M806.207 491.451H621.709C620.486 491.45 619.314 490.964 618.449 490.1C617.585 489.236 617.098 488.065 617.097 486.843V395.208C617.098 393.986 617.585 392.815 618.449 391.951C619.314 391.086 620.486 390.6 621.709 390.599H806.207C807.429 390.6 808.602 391.086 809.467 391.951C810.331 392.815 810.818 393.986 810.819 395.208V486.843C810.818 488.065 810.331 489.236 809.467 490.1C808.602 490.964 807.429 491.45 806.207 491.451Z" fill="white"/>
<path d="M795.522 514.587L774.772 493.854L801.374 494.526V512.165C801.381 512.844 801.183 513.51 800.806 514.074C800.428 514.639 799.889 515.077 799.258 515.33C798.835 515.507 798.382 515.598 797.924 515.599C797.477 515.598 797.034 515.508 796.621 515.334C796.209 515.16 795.835 514.906 795.522 514.587Z" fill="#CCCCCC"/>
<path d="M783.743 436.916H690.409C689.258 436.916 688.153 436.459 687.339 435.646C686.525 434.832 686.068 433.729 686.068 432.578C686.068 431.428 686.525 430.325 687.339 429.511C688.153 428.698 689.258 428.241 690.409 428.241H783.743C784.894 428.241 785.998 428.698 786.813 429.511C787.627 430.325 788.084 431.428 788.084 432.578C788.084 433.729 787.627 434.832 786.813 435.646C785.998 436.459 784.894 436.916 783.743 436.916Z" fill="#CCCCCC"/>
<path d="M753.355 418.481H690.409C689.838 418.481 689.273 418.37 688.746 418.152C688.218 417.935 687.739 417.615 687.335 417.212C686.931 416.81 686.611 416.331 686.393 415.804C686.174 415.278 686.062 414.713 686.062 414.143C686.062 413.573 686.174 413.008 686.393 412.481C686.611 411.955 686.931 411.476 687.335 411.073C687.739 410.671 688.218 410.351 688.746 410.134C689.273 409.916 689.838 409.804 690.409 409.805H753.355C754.506 409.805 755.611 410.262 756.425 411.076C757.239 411.889 757.696 412.992 757.696 414.143C757.696 415.293 757.239 416.397 756.425 417.21C755.611 418.024 754.506 418.481 753.355 418.481Z" fill="#CCCCCC"/>
<path d="M651.773 436.916C659.265 436.916 665.339 430.847 665.339 423.361C665.339 415.874 659.265 409.805 651.773 409.805C644.281 409.805 638.207 415.874 638.207 423.361C638.207 430.847 644.281 436.916 651.773 436.916Z" fill="#6C63FF"/>
<path d="M754.98 472.246C757.378 472.246 759.321 470.303 759.321 467.908C759.321 465.512 757.378 463.57 754.98 463.57C752.582 463.57 750.639 465.512 750.639 467.908C750.639 470.303 752.582 472.246 754.98 472.246Z" fill="#E6E6E6"/>
<path d="M770.174 472.246C772.572 472.246 774.515 470.303 774.515 467.908C774.515 465.512 772.572 463.57 770.174 463.57C767.776 463.57 765.833 465.512 765.833 467.908C765.833 470.303 767.776 472.246 770.174 472.246Z" fill="#E6E6E6"/>
<path d="M785.368 472.246C787.766 472.246 789.709 470.303 789.709 467.908C789.709 465.512 787.766 463.57 785.368 463.57C782.97 463.57 781.027 465.512 781.027 467.908C781.027 470.303 782.97 472.246 785.368 472.246Z" fill="#E6E6E6"/>
<path d="M805.453 486.545C805.603 485.191 806.048 483.886 806.757 482.722C807.467 481.558 808.423 480.564 809.558 479.809C810.693 479.055 811.98 478.558 813.329 478.354C814.677 478.151 816.053 478.245 817.361 478.63L836.639 451.688L842.821 467.752L823.567 490.874C822.774 493.026 821.217 494.813 819.193 495.896C817.17 496.979 814.819 497.282 812.586 496.749C810.353 496.215 808.394 494.882 807.079 493.001C805.764 491.12 805.186 488.823 805.453 486.545Z" fill="#A0616A"/>
<path d="M827.535 485.091C827.232 485.117 826.927 485.109 826.625 485.068C826.02 484.987 825.44 484.775 824.926 484.445C824.412 484.115 823.978 483.676 823.653 483.159L819.579 476.701C819.131 475.996 818.906 475.172 818.934 474.337C818.962 473.503 819.241 472.696 819.735 472.022L844.409 438.143L828.371 396.829C826.939 393.194 826.993 389.142 828.522 385.547C830.051 381.951 832.933 379.1 836.546 377.608C838.588 376.752 840.794 376.359 843.006 376.457C845.218 376.555 847.38 377.142 849.338 378.175C851.296 379.208 853 380.661 854.328 382.431C855.657 384.201 856.576 386.243 857.02 388.41L866.971 436.951C867.663 440.374 867.459 443.918 866.378 447.239C865.297 450.561 863.377 453.547 860.802 455.909L829.998 484.015C829.319 484.636 828.453 485.015 827.535 485.091Z" fill="#3F3D56"/>
<path d="M879.313 671.773H683.601C683.355 671.773 683.119 671.675 682.945 671.501C682.771 671.327 682.673 671.092 682.673 670.846C682.673 670.6 682.771 670.364 682.945 670.19C683.119 670.017 683.355 669.919 683.601 669.919H879.313C879.559 669.919 879.795 670.017 879.969 670.19C880.143 670.364 880.24 670.6 880.24 670.846C880.24 671.092 880.143 671.327 879.969 671.501C879.795 671.675 879.559 671.773 879.313 671.773Z" fill="#CCCCCC"/>
<path d="M238.024 441.108H49.186C46.8121 441.106 44.5363 440.162 42.8578 438.485C41.1792 436.808 40.235 434.534 40.2324 432.162V336.189C40.235 333.817 41.1792 331.543 42.8578 329.866C44.5363 328.189 46.8121 327.245 49.186 327.243H238.024C240.398 327.245 242.674 328.189 244.353 329.866C246.031 331.543 246.975 333.817 246.978 336.189V432.162C246.975 434.534 246.031 436.808 244.353 438.485C242.674 440.162 240.398 441.106 238.024 441.108Z" fill="#CCCCCC"/>
<path d="M235.854 434.602H51.3565C50.1336 434.6 48.9612 434.114 48.0965 433.25C47.2318 432.386 46.7454 431.215 46.7441 429.993V338.358C46.7454 337.136 47.2318 335.965 48.0965 335.101C48.9612 334.237 50.1336 333.751 51.3565 333.749H235.854C237.077 333.751 238.249 334.237 239.114 335.101C239.979 335.965 240.465 337.136 240.466 338.358V429.993C240.465 431.215 239.979 432.386 239.114 433.25C238.249 434.114 237.077 434.6 235.854 434.602Z" fill="white"/>
<path d="M225.169 457.737L204.42 437.004L231.022 437.676V455.315C231.029 455.994 230.831 456.659 230.453 457.224C230.075 457.789 229.536 458.226 228.905 458.48C228.483 458.656 228.029 458.748 227.572 458.749C227.124 458.748 226.681 458.658 226.269 458.484C225.856 458.31 225.483 458.056 225.169 457.737Z" fill="#CCCCCC"/>
<path d="M213.39 380.066H120.056C118.905 380.066 117.801 379.609 116.987 378.796C116.172 377.982 115.715 376.879 115.715 375.728C115.715 374.578 116.172 373.475 116.987 372.661C117.801 371.848 118.905 371.391 120.056 371.391H213.39C214.542 371.391 215.646 371.848 216.46 372.661C217.274 373.475 217.731 374.578 217.731 375.728C217.731 376.879 217.274 377.982 216.46 378.796C215.646 379.609 214.542 380.066 213.39 380.066Z" fill="#CCCCCC"/>
<path d="M183.002 361.631H120.056C118.905 361.631 117.801 361.174 116.987 360.36C116.172 359.547 115.715 358.443 115.715 357.293C115.715 356.143 116.172 355.039 116.987 354.226C117.801 353.412 118.905 352.955 120.056 352.955H183.002C184.154 352.955 185.258 353.412 186.072 354.226C186.886 355.039 187.344 356.143 187.344 357.293C187.344 358.443 186.886 359.547 186.072 360.36C185.258 361.174 184.154 361.631 183.002 361.631Z" fill="#CCCCCC"/>
<path d="M81.4201 380.066C88.9124 380.066 94.9861 373.997 94.9861 366.511C94.9861 359.024 88.9124 352.955 81.4201 352.955C73.9278 352.955 67.8541 359.024 67.8541 366.511C67.8541 373.997 73.9278 380.066 81.4201 380.066Z" fill="#6C63FF"/>
<path d="M184.627 415.395C187.025 415.395 188.968 413.453 188.968 411.058C188.968 408.662 187.025 406.72 184.627 406.72C182.23 406.72 180.286 408.662 180.286 411.058C180.286 413.453 182.23 415.395 184.627 415.395Z" fill="#E6E6E6"/>
<path d="M199.821 415.395C202.219 415.395 204.162 413.453 204.162 411.058C204.162 408.662 202.219 406.72 199.821 406.72C197.424 406.72 195.48 408.662 195.48 411.058C195.48 413.453 197.424 415.395 199.821 415.395Z" fill="#E6E6E6"/>
<path d="M215.015 415.395C217.413 415.395 219.356 413.453 219.356 411.058C219.356 408.662 217.413 406.72 215.015 406.72C212.618 406.72 210.674 408.662 210.674 411.058C210.674 413.453 212.618 415.395 215.015 415.395Z" fill="#E6E6E6"/>
<path d="M230.193 318.022C228.91 318.483 227.744 319.22 226.777 320.181C225.81 321.141 225.065 322.302 224.596 323.581C224.126 324.86 223.943 326.227 224.059 327.584C224.175 328.942 224.588 330.257 225.268 331.438L203.544 356.454L220.619 358.714L238.63 334.613C240.54 333.34 241.916 331.411 242.498 329.192C243.08 326.973 242.827 324.617 241.787 322.572C240.747 320.527 238.992 318.935 236.855 318.096C234.718 317.257 232.348 317.231 230.193 318.022Z" fill="#FFB8B8"/>
<path d="M85.1469 328.036C85.6102 329.318 85.7868 330.685 85.664 332.042C85.5413 333.399 85.1223 334.713 84.4366 335.89C83.7508 337.068 82.815 338.081 81.695 338.858C80.575 339.636 79.2981 340.158 77.9543 340.389L72.5485 373.065L59.9084 361.374L66.9797 332.136C66.7414 329.854 67.3489 327.565 68.6872 325.701C70.0255 323.837 72.0015 322.529 74.2409 322.023C76.4802 321.518 78.8273 321.851 80.8374 322.959C82.8474 324.067 84.3808 325.874 85.1469 328.036Z" fill="#FFB8B8"/>
<path d="M119.096 658.529L130.468 658.529L135.877 614.701L119.094 614.702L119.096 658.529Z" fill="#FFB8B8"/>
<path d="M116.195 654.82L138.59 654.819H138.591C140.465 654.819 142.321 655.187 144.052 655.904C145.784 656.621 147.357 657.671 148.682 658.995C150.007 660.319 151.059 661.892 151.776 663.622C152.493 665.352 152.862 667.206 152.862 669.079V669.542L116.196 669.544L116.195 654.82Z" fill="#2F2E41"/>
<path d="M60.6605 658.529L72.0322 658.529L77.4417 614.701L60.6587 614.702L60.6605 658.529Z" fill="#FFB8B8"/>
<path d="M57.7598 654.82L80.1542 654.819H80.1552C82.0293 654.819 83.8852 655.187 85.6167 655.904C87.3482 656.621 88.9215 657.671 90.2468 658.995C91.572 660.319 92.6233 661.892 93.3405 663.622C94.0577 665.352 94.4268 667.206 94.4268 669.079V669.542L57.7605 669.544L57.7598 654.82Z" fill="#2F2E41"/>
<path d="M116.722 359.299C129.304 359.299 139.503 349.108 139.503 336.535C139.503 323.963 129.304 313.772 116.722 313.772C104.14 313.772 93.9406 323.963 93.9406 336.535C93.9406 349.108 104.14 359.299 116.722 359.299Z" fill="#FFB8B8"/>
<path d="M113.991 643.97L112.108 524.033C112.103 523.694 111.974 523.368 111.746 523.117C111.518 522.867 111.205 522.708 110.868 522.671C110.531 522.634 110.192 522.721 109.914 522.917C109.637 523.112 109.441 523.402 109.363 523.732L78.4839 641.046C78.2515 641.985 77.7037 642.816 76.9319 643.399C76.1602 643.983 75.2113 644.284 74.2441 644.252L57.2793 643.527C56.7025 643.502 56.1372 643.358 55.619 643.104C55.1008 642.85 54.641 642.491 54.2686 642.05C53.8962 641.61 53.6194 641.096 53.4556 640.543C53.2917 639.99 53.2445 639.409 53.3168 638.837L79.5188 488.081L79.5725 487.656L152.554 491.106L153.03 491.128L137.38 644.22C137.298 645.268 136.824 646.247 136.053 646.963C135.282 647.678 134.27 648.077 133.218 648.081H118.165C117.069 648.077 116.019 647.644 115.239 646.876C114.459 646.107 114.011 645.064 113.991 643.97Z" fill="#2F2E41"/>
<path d="M171.633 501.266L65.7283 492.582C65.089 492.529 64.4705 492.33 63.9206 492C63.3708 491.67 62.9044 491.218 62.5578 490.679C62.2112 490.14 61.9936 489.528 61.9219 488.891C61.8503 488.254 61.9265 487.61 62.1447 487.007L78.8226 440.933L79.7823 386.248C79.8171 384.262 80.2461 382.304 81.0442 380.486C81.8424 378.668 82.994 377.026 84.4321 375.656C85.8702 374.286 87.5662 373.215 89.4218 372.505C91.2774 371.795 93.2556 371.46 95.2417 371.52L102.285 365.141H128.088L130.335 368.084L148.29 370.841C151.488 371.345 154.439 372.864 156.707 375.173C158.975 377.481 160.44 380.457 160.886 383.662L176.111 496.553C176.19 497.142 176.143 497.741 175.972 498.31C175.8 498.879 175.509 499.405 175.118 499.853C174.727 500.3 174.245 500.659 173.704 500.906C173.162 501.152 172.575 501.28 171.98 501.28C171.865 501.28 171.749 501.276 171.633 501.266Z" fill="#2F2E41"/>
<path d="M150.999 376.142L196.155 362.922L216.592 336.037C217.154 335.296 217.948 334.765 218.848 334.527C219.747 334.29 220.701 334.359 221.556 334.725L234.316 340.174C234.86 340.407 235.348 340.752 235.748 341.187C236.149 341.622 236.452 342.138 236.638 342.699C236.824 343.26 236.888 343.854 236.827 344.442C236.765 345.03 236.579 345.598 236.281 346.109L221.009 372.297C218.522 376.581 214.736 379.964 210.199 381.957L157.087 405.418L150.999 376.142Z" fill="#2F2E41"/>
<path d="M64.365 395.918C61.6665 393.975 59.5145 391.371 58.1166 388.355C56.7188 385.34 56.1223 382.015 56.3847 378.702L58.3663 352.466C58.4481 351.418 58.9218 350.439 59.6931 349.724C60.4644 349.01 61.4768 348.612 62.5287 348.609H62.5657L77.5287 348.742C78.1416 348.748 78.7459 348.888 79.2984 349.153C79.851 349.419 80.3383 349.802 80.7257 350.277C81.1132 350.752 81.3913 351.306 81.5402 351.9C81.6892 352.494 81.7054 353.114 81.5876 353.715L78.8113 367.869L98.6238 376.234L81.94 408.666L64.365 395.918Z" fill="#2F2E41"/>
<path d="M129.975 309.24C129.975 309.24 106.151 296.421 93.1653 311.55C80.1796 326.678 98.1127 350.335 98.1127 350.335L123.665 353.555C123.665 353.555 124.592 336.199 130.676 336.536C136.76 336.873 155.654 314.972 129.975 309.24Z" fill="#2F2E41"/>
<path d="M196.64 670.846H0.927545C0.681545 670.846 0.445619 670.748 0.271671 670.574C0.0977225 670.401 0 670.165 0 669.919C0 669.673 0.0977225 669.437 0.271671 669.264C0.445619 669.09 0.681545 668.992 0.927545 668.992H196.64C196.886 668.992 197.122 669.09 197.295 669.264C197.469 669.437 197.567 669.673 197.567 669.919C197.567 670.165 197.469 670.401 197.295 670.574C197.122 670.748 196.886 670.846 196.64 670.846Z" fill="#CCCCCC"/>
</g>
<defs>
<clipPath id="clip0_4_105">
<rect width="855.406" height="604.303" fill="white" transform="translate(27.5938 0.593872)"/>
</clipPath>
<clipPath id="clip1_4_105">
<rect width="880.24" height="527.041" fill="white" transform="translate(0 301.365)"/>
</clipPath>
</defs>
</svg>
