<svg width="606" height="242" viewBox="0 0 606 242" fill="none" xmlns="http://www.w3.org/2000/svg">
<g clip-path="url(#clip0_1985_1033)">
<path d="M230.906 205.841L178.32 217.632C178.32 217.632 167.597 216.419 177.766 201.538C178.679 200.198 179.763 198.756 181.036 197.191L208.29 183.897L208.036 182.109L202.234 141.436L199.99 125.694L217.095 109.889L220.361 106.869L263.772 146.781L263.462 147.348L245.315 179.951L230.906 205.841Z" fill="#FFB7B7"/>
<path d="M211.462 193.988L158.876 205.779C158.086 205.69 157.325 205.435 156.641 205.032C155.958 204.629 155.369 204.087 154.912 203.44C154.455 202.794 154.141 202.059 153.992 201.283C153.842 200.508 153.859 199.71 154.043 198.941C154.297 197.421 154.776 195.947 155.464 194.566C157.134 191.26 159.191 188.163 161.592 185.337L188.846 172.043L185.504 148.618L183.839 136.937L182.762 129.384L180.546 113.84L200.917 95.0156L223.102 115.407L244.328 134.927L241.463 140.066L238.048 146.208L221.657 175.672L218.318 181.673L211.462 193.988Z" fill="#FFB7B7"/>
<path d="M302.888 185.754C302.888 185.754 283.183 184.451 275.814 171.201C273.481 166.817 272.582 161.82 273.242 156.904L265.211 141.125L253.781 118.642L224.624 114.066L223.102 115.407L201.96 134.077L195.492 139.79L185.504 148.618L137.065 191.394C135.136 194.809 132.658 197.887 129.728 200.507C127.036 202.99 124.074 205.166 120.896 206.996C111.653 212.327 97.8369 216.471 77.9699 214.295L-26.764 242L-37 172.186L50.8449 143.479L179.674 59.7207L266.642 81.8419L306.97 138.758L302.888 185.754Z" fill="#FFB7B7"/>
<path d="M600.684 0H233.915C232.506 0.00156777 231.155 0.558709 230.158 1.54917C229.162 2.53963 228.601 3.88253 228.6 5.28325V221.141C228.601 222.542 229.162 223.885 230.158 224.875C231.155 225.866 232.506 226.423 233.915 226.425H600.684C602.094 226.423 603.445 225.866 604.441 224.875C605.438 223.885 605.998 222.542 606 221.141V5.28322C605.998 3.88252 605.438 2.53967 604.441 1.54923C603.445 0.558788 602.094 0.00162972 600.684 0Z" fill="white"/>
<path d="M600.684 0H233.915C232.506 0.00156777 231.155 0.558709 230.158 1.54917C229.162 2.53963 228.601 3.88253 228.6 5.28325V221.141C228.601 222.542 229.162 223.885 230.158 224.875C231.155 225.866 232.506 226.423 233.915 226.425H600.684C602.094 226.423 603.445 225.866 604.441 224.875C605.438 223.885 605.998 222.542 606 221.141V5.28322C605.998 3.88252 605.438 2.53967 604.441 1.54923C603.445 0.558788 602.094 0.00162972 600.684 0ZM604.481 221.141C604.481 222.142 604.081 223.102 603.369 223.809C602.657 224.517 601.691 224.915 600.684 224.915H233.915C232.908 224.915 231.943 224.517 231.231 223.809C230.519 223.102 230.119 222.142 230.118 221.141V5.28322C230.119 4.28249 230.519 3.32287 231.231 2.61526C231.943 1.90764 232.908 1.50993 233.915 1.5095H600.684C601.691 1.50992 602.657 1.90764 603.369 2.61526C604.081 3.32288 604.481 4.28249 604.481 5.28322V221.141Z" fill="#3F3D56"/>
<path d="M269.602 29.4367C267.8 29.4367 266.038 28.9055 264.54 27.9103C263.041 26.9151 261.873 25.5006 261.184 23.8457C260.494 22.1907 260.313 20.3697 260.665 18.6128C261.017 16.8559 261.885 15.2421 263.159 13.9755C264.433 12.7088 266.057 11.8463 267.825 11.4968C269.592 11.1473 271.424 11.3267 273.089 12.0122C274.754 12.6977 276.178 13.8585 277.179 15.3479C278.18 16.8374 278.715 18.5884 278.715 20.3797C278.715 22.7818 277.754 25.0855 276.046 26.784C274.337 28.4825 272.019 29.4367 269.602 29.4367ZM269.602 12.8322C268.1 12.8322 266.632 13.2749 265.383 14.1042C264.135 14.9336 263.161 16.1123 262.587 17.4914C262.012 18.8706 261.862 20.3881 262.155 21.8522C262.448 23.3162 263.171 24.6611 264.233 25.7166C265.295 26.7722 266.648 27.491 268.121 27.7822C269.594 28.0734 271.121 27.924 272.508 27.3527C273.896 26.7815 275.082 25.8141 275.916 24.5729C276.75 23.3317 277.196 21.8725 277.196 20.3797C277.196 19.3886 276.999 18.4071 276.618 17.4914C276.236 16.5757 275.677 15.7437 274.972 15.0429C274.267 14.342 273.429 13.7861 272.508 13.4068C271.587 13.0275 270.599 12.8322 269.602 12.8322Z" fill="#6C63FF"/>
<path d="M255.439 20.3799C255.439 18.6522 255.981 16.9677 256.99 15.5609C257.999 14.1541 259.425 13.0951 261.068 12.5315C259.81 12.1001 258.466 11.9738 257.149 12.163C255.832 12.3523 254.579 12.8516 253.495 13.6195C252.411 14.3873 251.528 15.4015 250.918 16.5774C250.309 17.7533 249.991 19.057 249.991 20.3799C249.991 21.7027 250.309 23.0064 250.918 24.1823C251.528 25.3583 252.411 26.3724 253.495 27.1403C254.579 27.9081 255.832 28.4075 257.149 28.5967C258.466 28.786 259.81 28.6596 261.068 28.2282C259.425 27.6646 257.999 26.6056 256.99 25.1988C255.981 23.7921 255.439 22.1075 255.439 20.3799Z" fill="#6C63FF"/>
<path d="M306.54 127.387C304.728 127.385 302.991 126.668 301.71 125.395C300.429 124.121 299.708 122.395 299.706 120.594V100.216C299.708 98.4156 300.429 96.6899 301.711 95.4178C302.992 94.1457 304.729 93.4312 306.54 93.4312C308.351 93.4312 310.088 94.1457 311.37 95.4178C312.651 96.6899 313.372 98.4156 313.374 100.216V120.594C313.372 122.395 312.652 124.121 311.37 125.395C310.089 126.668 308.352 127.385 306.54 127.387Z" fill="#6C63FF"/>
<path d="M324.765 127.387C322.953 127.385 321.216 126.668 319.934 125.395C318.653 124.121 317.932 122.395 317.93 120.594V100.216C317.933 98.4156 318.654 96.6899 319.935 95.4178C321.216 94.1457 322.953 93.4312 324.765 93.4312C326.576 93.4312 328.313 94.1457 329.594 95.4178C330.876 96.6899 331.597 98.4156 331.599 100.216V120.594C331.597 122.395 330.876 124.121 329.595 125.395C328.314 126.668 326.577 127.385 324.765 127.387Z" fill="#6C63FF"/>
<path d="M342.989 127.387C341.177 127.385 339.44 126.668 338.159 125.395C336.878 124.121 336.157 122.395 336.155 120.594V100.216C336.157 98.4156 336.878 96.6899 338.16 95.4178C339.441 94.1457 341.178 93.4312 342.989 93.4312C344.8 93.4312 346.537 94.1457 347.819 95.4178C349.1 96.6899 349.821 98.4156 349.823 100.216V120.594C349.821 122.395 349.101 124.121 347.819 125.395C346.538 126.668 344.801 127.385 342.989 127.387Z" fill="#6C63FF"/>
<path d="M371.085 127.387C369.274 127.385 367.536 126.668 366.255 125.395C364.974 124.121 364.253 122.395 364.251 120.594V100.216C364.253 98.4156 364.974 96.6899 366.256 95.4178C367.537 94.1457 369.274 93.4312 371.085 93.4312C372.897 93.4312 374.634 94.1457 375.915 95.4178C377.197 96.6899 377.917 98.4156 377.92 100.216V120.594C377.918 122.395 377.197 124.121 375.916 125.395C374.634 126.668 372.897 127.385 371.085 127.387Z" fill="#6C63FF"/>
<path d="M389.31 127.387C387.498 127.385 385.761 126.668 384.48 125.395C383.198 124.121 382.478 122.395 382.476 120.594V100.216C382.478 98.4156 383.199 96.6899 384.48 95.4178C385.762 94.1457 387.499 93.4312 389.31 93.4312C391.121 93.4312 392.858 94.1457 394.139 95.4178C395.421 96.6899 396.142 98.4156 396.144 100.216V120.594C396.142 122.395 395.421 124.121 394.14 125.395C392.859 126.668 391.122 127.385 389.31 127.387Z" fill="#6C63FF"/>
<path d="M407.534 127.387C405.722 127.385 403.985 126.668 402.704 125.395C401.423 124.121 400.702 122.395 400.7 120.594V100.216C400.702 98.4156 401.423 96.6899 402.705 95.4178C403.986 94.1457 405.723 93.4312 407.534 93.4312C409.346 93.4312 411.083 94.1457 412.364 95.4178C413.645 96.6899 414.366 98.4156 414.369 100.216V120.594C414.367 122.395 413.646 124.121 412.365 125.395C411.083 126.668 409.346 127.385 407.534 127.387Z" fill="#6C63FF"/>
<path d="M435.631 127.387C433.819 127.385 432.082 126.668 430.8 125.395C429.519 124.121 428.798 122.395 428.796 120.594V100.216C428.799 98.4156 429.52 96.6899 430.801 95.4178C432.082 94.1457 433.819 93.4312 435.631 93.4312C437.442 93.4312 439.179 94.1457 440.46 95.4178C441.742 96.6899 442.463 98.4156 442.465 100.216V120.594C442.463 122.395 441.742 124.121 440.461 125.395C439.18 126.668 437.442 127.385 435.631 127.387Z" fill="#6C63FF"/>
<path d="M453.855 127.387C452.043 127.385 450.306 126.668 449.025 125.395C447.744 124.121 447.023 122.395 447.021 120.594V100.216C447.023 98.4156 447.744 96.6899 449.026 95.4178C450.307 94.1457 452.044 93.4312 453.855 93.4312C455.666 93.4312 457.403 94.1457 458.685 95.4178C459.966 96.6899 460.687 98.4156 460.689 100.216V120.594C460.687 122.395 459.967 124.121 458.685 125.395C457.404 126.668 455.667 127.385 453.855 127.387Z" fill="#6C63FF"/>
<path d="M472.08 127.387C470.268 127.385 468.531 126.668 467.25 125.395C465.968 124.121 465.248 122.395 465.246 120.594V100.216C465.248 98.4156 465.969 96.6899 467.25 95.4178C468.532 94.1457 470.269 93.4312 472.08 93.4312C473.891 93.4312 475.628 94.1457 476.909 95.4178C478.191 96.6899 478.912 98.4156 478.914 100.216V120.594C478.912 122.395 478.191 124.121 476.91 125.395C475.629 126.668 473.892 127.385 472.08 127.387Z" fill="#6C63FF"/>
<path d="M500.176 127.387C498.364 127.385 496.627 126.668 495.346 125.395C494.065 124.121 493.344 122.395 493.342 120.594V100.216C493.344 98.4156 494.065 96.6899 495.346 95.4178C496.628 94.1457 498.365 93.4312 500.176 93.4312C501.987 93.4312 503.724 94.1457 505.006 95.4178C506.287 96.6899 507.008 98.4156 507.01 100.216V120.594C507.008 122.395 506.287 124.121 505.006 125.395C503.725 126.668 501.988 127.385 500.176 127.387Z" fill="#6C63FF"/>
<path d="M518.401 127.387C516.589 127.385 514.852 126.668 513.57 125.395C512.289 124.121 511.568 122.395 511.566 120.594V100.216C511.569 98.4156 512.29 96.6899 513.571 95.4178C514.852 94.1457 516.59 93.4312 518.401 93.4312C520.212 93.4312 521.949 94.1457 523.23 95.4178C524.512 96.6899 525.233 98.4156 525.235 100.216V120.594C525.233 122.395 524.512 124.121 523.231 125.395C521.95 126.668 520.213 127.385 518.401 127.387Z" fill="#6C63FF"/>
<path d="M536.625 127.387C534.813 127.385 533.076 126.668 531.795 125.395C530.514 124.121 529.793 122.395 529.791 120.594V100.216C529.793 98.4156 530.514 96.6899 531.795 95.4178C533.077 94.1457 534.814 93.4312 536.625 93.4312C538.436 93.4312 540.173 94.1457 541.455 95.4178C542.736 96.6899 543.457 98.4156 543.459 100.216V120.594C543.457 122.395 542.736 124.121 541.455 125.395C540.174 126.668 538.437 127.385 536.625 127.387Z" fill="#6C63FF"/>
<path d="M352.874 202.987H254.583C253.98 202.988 253.382 202.871 252.824 202.642C252.266 202.413 251.759 202.077 251.332 201.653C250.905 201.229 250.566 200.726 250.335 200.171C250.103 199.617 249.984 199.023 249.984 198.423C249.984 197.823 250.103 197.229 250.335 196.675C250.566 196.121 250.905 195.617 251.332 195.193C251.759 194.769 252.266 194.433 252.824 194.204C253.382 193.975 253.98 193.858 254.583 193.859H352.874C354.091 193.861 355.258 194.342 356.117 195.198C356.977 196.054 357.46 197.214 357.46 198.423C357.46 199.632 356.977 200.792 356.117 201.648C355.258 202.504 354.091 202.986 352.874 202.987Z" fill="#E6E6E6"/>
<path d="M321.361 183.364H286.097C284.879 183.364 283.711 182.883 282.849 182.027C281.988 181.171 281.504 180.01 281.504 178.8C281.504 177.589 281.988 176.428 282.849 175.572C283.711 174.716 284.879 174.235 286.097 174.235H321.361C322.579 174.235 323.747 174.716 324.608 175.572C325.47 176.428 325.953 177.589 325.953 178.8C325.953 180.01 325.47 181.171 324.608 182.027C323.747 182.883 322.579 183.364 321.361 183.364Z" fill="#E6E6E6"/>
<path d="M604.208 45.1191H229.845V46.6286H604.208V45.1191Z" fill="#3F3D56"/>
<path opacity="0.15" d="M187.04 198.189L186.243 196.402L218.7 182.095L226.437 155.116L214.774 145.744L216.01 144.223L228.685 154.409L220.339 183.512L187.04 198.189Z" fill="black"/>
<path opacity="0.1" d="M155.464 194.565L146.933 198.695L129.728 200.506C127.036 202.989 124.074 205.166 120.896 206.996L105.809 206.499L80.3271 205.706L166.472 132.697L183.839 136.936C183.839 136.936 154.66 196.269 155.464 194.565Z" fill="black"/>
<path d="M275.814 171.201C273.553 171.634 271.073 171.992 268.334 172.266C254.191 173.672 224.293 175.54 221.657 175.671C203.949 176.5 192.816 176.49 192.816 176.49L155.464 194.565L146.933 198.695L77.7827 205.974L171.419 126.616L182.762 129.384L201.96 134.077L223.111 139.245L241.463 140.066L265.211 141.124L284.406 141.981C287.732 142.096 290.877 143.514 293.154 145.926C295.431 148.337 296.656 151.546 296.56 154.853C296.259 161.146 291.867 168.1 275.814 171.201Z" fill="#FFB7B7"/>
<path opacity="0.15" d="M283.093 166.416C282.787 166.323 275.576 164.068 273.287 157.759C271.748 153.517 272.832 148.554 276.506 143.006L278.149 144.081C274.837 149.08 273.822 153.456 275.133 157.084C277.078 162.471 283.604 164.527 283.669 164.547L283.093 166.416Z" fill="black"/>
<path opacity="0.15" d="M189.792 176.864L156.747 192.861L157.608 194.619L190.654 178.621L189.792 176.864Z" fill="black"/>
<path opacity="0.15" d="M177.454 131.505L224.263 113.156L224.984 114.975L184.534 130.832L218.912 137.214L218.55 139.136L177.454 131.505Z" fill="black"/>
</g>
<defs>
<clipPath id="clip0_1985_1033">
<rect width="643" height="242" fill="white" transform="translate(-37)"/>
</clipPath>
</defs>
</svg>
