<svg width="23" height="23" viewBox="0 0 23 23" fill="none" xmlns="http://www.w3.org/2000/svg">
<rect width="23" height="23" rx="4" fill="black"/>
<path d="M1 4H7.55935V4.43429H6.37652V19.5657H7.55935V20H1V19.5657H2.18283V4.43429H1V4Z" fill="#5D5FEF"/>
<path d="M21.7849 4L22 9.73714H21.5914C20.9605 7.71048 20.4014 6.33143 19.9139 5.6C19.4264 4.85333 18.7239 4.48 17.8063 4.48H17.5482V19.52H19.3763V20H11.5265V19.52H13.3546V4.48H13.075C12.1574 4.48 11.4477 4.86857 10.9459 5.64571C10.4441 6.40762 9.89209 7.77143 9.28992 9.73714H8.8813L9.09636 4H21.7849Z" fill="#5D5FEF"/>
</svg>
