<svg width="23" height="23" viewBox="0 0 23 23" fill="none" xmlns="http://www.w3.org/2000/svg">
<rect width="23" height="23" rx="4" fill="black"/>
<path d="M3 5.3999H8.49V5.7419H7.5V17.6579H8.49V17.9999H3V17.6579H3.99V5.7419H3V5.3999Z" fill="white"/>
<path d="M20.3964 5.3999L20.5764 9.9179H20.2344C19.7064 8.3219 19.2384 7.2359 18.8304 6.6599C18.4224 6.0719 17.8344 5.7779 17.0664 5.7779H16.8504V17.6219H18.3804V17.9999H11.8104V17.6219H13.3404V5.7779H13.1064C12.3384 5.7779 11.7444 6.0839 11.3244 6.6959C10.9044 7.2959 10.4424 8.3699 9.93844 9.9179H9.59644L9.77644 5.3999H20.3964Z" fill="white"/>
</svg>
