<svg width="724" height="282" viewBox="0 0 724 282" fill="none" xmlns="http://www.w3.org/2000/svg">
<g clip-path="url(#clip0_1997_596)">
<path d="M287.072 239.865L225.816 253.604C225.816 253.604 213.325 252.19 225.171 234.85C226.234 233.288 227.497 231.608 228.981 229.784L260.726 214.293L260.431 212.21L253.672 164.814L251.059 146.469L270.983 128.052L274.787 124.533L325.355 171.042L324.994 171.703L303.855 209.694L287.072 239.865Z" fill="#FFB7B7"/>
<path d="M264.422 226.052L203.166 239.791C202.246 239.688 201.359 239.391 200.563 238.921C199.767 238.452 199.081 237.819 198.549 237.066C198.017 236.313 197.651 235.457 197.477 234.553C197.302 233.649 197.323 232.719 197.536 231.824C197.833 230.052 198.391 228.334 199.192 226.725C201.138 222.873 203.534 219.264 206.331 215.971L238.077 200.48L234.183 173.183L232.245 159.57L230.99 150.769L228.409 132.656L252.137 110.72L277.981 134.482L302.705 157.229L299.368 163.217L295.39 170.374L276.297 204.708L272.407 211.702L264.422 226.052Z" fill="#FFB7B7"/>
<path d="M370.919 216.457C370.919 216.457 347.966 214.938 339.382 199.498C336.665 194.39 335.617 188.566 336.386 182.838L327.031 164.451L313.717 138.252L279.753 132.919L277.981 134.483L253.353 156.238L245.819 162.895L234.184 173.183L177.76 223.029C175.513 227.009 172.626 230.596 169.214 233.648C166.078 236.542 162.627 239.078 158.925 241.211C148.159 247.423 132.065 252.251 108.923 249.716L-13.0766 282L-25 200.646L77.3263 167.194L227.394 69.5918L328.698 95.3694L375.675 161.693L370.919 216.457Z" fill="#FFB7B7"/>
<path d="M717.809 0H290.577C288.935 0.0018269 287.361 0.651057 286.2 1.80523C285.04 2.9594 284.387 4.52427 284.385 6.15651V257.694C284.387 259.326 285.039 260.891 286.2 262.045C287.361 263.199 288.935 263.848 290.577 263.85H717.809C719.45 263.848 721.024 263.199 722.185 262.045C723.346 260.891 723.999 259.326 724 257.694V6.15648C723.998 4.52426 723.345 2.95945 722.185 1.8053C721.024 0.65115 719.45 0.00189909 717.809 0Z" fill="white"/>
<path d="M717.809 0H290.577C288.935 0.0018269 287.361 0.651057 286.2 1.80523C285.04 2.9594 284.387 4.52427 284.385 6.15651V257.694C284.387 259.326 285.039 260.891 286.2 262.045C287.361 263.199 288.935 263.848 290.577 263.85H717.809C719.45 263.848 721.024 263.199 722.185 262.045C723.346 260.891 723.999 259.326 724 257.694V6.15648C723.998 4.52426 723.345 2.95945 722.185 1.8053C721.024 0.65115 719.45 0.00189909 717.809 0ZM722.231 257.694C722.231 258.86 721.765 259.978 720.936 260.803C720.106 261.627 718.981 262.091 717.809 262.091H290.577C289.404 262.091 288.279 261.627 287.45 260.803C286.62 259.978 286.154 258.86 286.154 257.694V6.15648C286.154 4.99034 286.62 3.87211 287.45 3.04753C288.279 2.22295 289.404 1.7595 290.577 1.759H717.809C718.981 1.7595 720.106 2.22295 720.935 3.04753C721.765 3.87211 722.231 4.99034 722.231 6.15648V257.694Z" fill="#3F3D56"/>
<path d="M332.147 34.3023C330.047 34.3023 327.995 33.6833 326.25 32.5237C324.504 31.364 323.144 29.7157 322.34 27.7872C321.537 25.8587 321.327 23.7366 321.736 21.6893C322.146 19.6421 323.157 17.7615 324.641 16.2855C326.126 14.8095 328.017 13.8044 330.076 13.3971C332.135 12.9899 334.269 13.1989 336.209 13.9977C338.148 14.7965 339.806 16.1493 340.972 17.8849C342.139 19.6204 342.761 21.661 342.761 23.7483C342.761 26.5474 341.643 29.2319 339.652 31.2111C337.662 33.1904 334.962 34.3023 332.147 34.3023ZM332.147 14.9533C330.397 14.9533 328.687 15.4692 327.232 16.4356C325.778 17.402 324.644 18.7755 323.975 20.3826C323.305 21.9897 323.13 23.7581 323.471 25.4641C323.813 27.1702 324.655 28.7373 325.892 29.9674C327.129 31.1974 328.705 32.035 330.421 32.3743C332.137 32.7137 333.915 32.5395 335.532 31.8739C337.148 31.2082 338.529 30.0809 339.501 28.6346C340.473 27.1882 340.992 25.4878 340.992 23.7483C340.992 22.5934 340.763 21.4497 340.319 20.3826C339.874 19.3156 339.223 18.346 338.401 17.5293C337.58 16.7126 336.605 16.0648 335.532 15.6228C334.458 15.1808 333.308 14.9533 332.147 14.9533Z" fill="#6C63FF"/>
<path d="M315.648 23.7482C315.648 21.735 316.28 19.772 317.455 18.1327C318.631 16.4934 320.291 15.2594 322.205 14.6027C320.739 14.0999 319.174 13.9527 317.64 14.1732C316.105 14.3938 314.646 14.9756 313.384 15.8704C312.121 16.7652 311.092 17.9469 310.382 19.3172C309.672 20.6876 309.302 22.2067 309.302 23.7482C309.302 25.2897 309.672 26.8089 310.382 28.1792C311.092 29.5495 312.121 30.7313 313.384 31.626C314.646 32.5208 316.105 33.1027 317.64 33.3232C319.174 33.5438 320.739 33.3965 322.205 32.8938C320.291 32.237 318.631 31.003 317.455 29.3637C316.28 27.7244 315.648 25.7614 315.648 23.7482Z" fill="#6C63FF"/>
<path d="M375.174 148.443C373.063 148.44 371.04 147.605 369.547 146.121C368.055 144.638 367.215 142.626 367.213 140.527V116.781C367.215 114.683 368.055 112.672 369.548 111.19C371.041 109.707 373.064 108.875 375.174 108.875C377.283 108.875 379.307 109.707 380.799 111.19C382.292 112.672 383.132 114.683 383.135 116.781V140.527C383.132 142.626 382.293 144.638 380.8 146.121C379.308 147.605 377.284 148.44 375.174 148.443Z" fill="#6C63FF"/>
<path d="M396.402 148.443C394.292 148.44 392.268 147.605 390.776 146.121C389.283 144.638 388.444 142.626 388.441 140.527V116.781C388.444 114.683 389.284 112.672 390.776 111.19C392.269 109.707 394.293 108.875 396.402 108.875C398.512 108.875 400.535 109.707 402.028 111.19C403.521 112.672 404.361 114.683 404.363 116.781V140.527C404.361 142.626 403.521 144.638 402.029 146.121C400.536 147.605 398.513 148.44 396.402 148.443Z" fill="#6C63FF"/>
<path d="M417.632 148.443C415.521 148.44 413.498 147.605 412.005 146.121C410.513 144.638 409.673 142.626 409.671 140.527V116.781C409.673 114.683 410.513 112.672 412.006 111.19C413.499 109.707 415.522 108.875 417.632 108.875C419.741 108.875 421.765 109.707 423.258 111.19C424.75 112.672 425.59 114.683 425.593 116.781V140.527C425.59 142.626 424.751 144.638 423.258 146.121C421.766 147.605 419.742 148.44 417.632 148.443Z" fill="#6C63FF"/>
<path d="M450.359 148.443C448.249 148.44 446.225 147.605 444.733 146.121C443.24 144.638 442.401 142.626 442.398 140.527V116.781C442.401 114.683 443.241 112.672 444.734 111.19C446.226 109.707 448.25 108.875 450.359 108.875C452.469 108.875 454.492 109.707 455.985 111.19C457.478 112.672 458.318 114.683 458.32 116.781V140.527C458.318 142.626 457.478 144.638 455.986 146.121C454.493 147.605 452.47 148.44 450.359 148.443Z" fill="#6C63FF"/>
<path d="M471.588 148.443C469.477 148.44 467.454 147.605 465.961 146.121C464.469 144.638 463.629 142.626 463.627 140.527V116.781C463.629 114.683 464.469 112.672 465.962 111.19C467.455 109.707 469.478 108.875 471.588 108.875C473.697 108.875 475.721 109.707 477.214 111.19C478.706 112.672 479.546 114.683 479.549 116.781V140.527C479.546 142.626 478.707 144.638 477.214 146.121C475.722 147.605 473.698 148.44 471.588 148.443Z" fill="#6C63FF"/>
<path d="M492.817 148.443C490.707 148.44 488.683 147.605 487.191 146.121C485.698 144.638 484.859 142.626 484.856 140.527V116.781C484.859 114.683 485.699 112.672 487.191 111.19C488.684 109.707 490.708 108.875 492.817 108.875C494.927 108.875 496.95 109.707 498.443 111.19C499.936 112.672 500.776 114.683 500.778 116.781V140.527C500.776 142.626 499.936 144.638 498.444 146.121C496.951 147.605 494.928 148.44 492.817 148.443Z" fill="#6C63FF"/>
<path d="M525.545 148.443C523.434 148.44 521.411 147.605 519.918 146.121C518.426 144.638 517.586 142.626 517.584 140.527V116.781C517.587 114.683 518.426 112.672 519.919 111.19C521.412 109.707 523.435 108.875 525.545 108.875C527.654 108.875 529.678 109.707 531.171 111.19C532.663 112.672 533.503 114.683 533.506 116.781V140.527C533.503 142.626 532.664 144.638 531.171 146.121C529.679 147.605 527.655 148.44 525.545 148.443Z" fill="#6C63FF"/>
<path d="M546.773 148.443C544.663 148.44 542.639 147.605 541.147 146.121C539.654 144.638 538.815 142.626 538.812 140.527V116.781C538.815 114.683 539.655 112.672 541.148 111.19C542.64 109.707 544.664 108.875 546.773 108.875C548.883 108.875 550.906 109.707 552.399 111.19C553.892 112.672 554.732 114.683 554.734 116.781V140.527C554.732 142.626 553.892 144.638 552.4 146.121C550.907 147.605 548.884 148.44 546.773 148.443Z" fill="#6C63FF"/>
<path d="M568.003 148.443C565.892 148.44 563.869 147.605 562.376 146.121C560.884 144.638 560.044 142.626 560.042 140.527V116.781C560.045 114.683 560.884 112.672 562.377 111.19C563.87 109.707 565.893 108.875 568.003 108.875C570.112 108.875 572.136 109.707 573.629 111.19C575.121 112.672 575.961 114.683 575.964 116.781V140.527C575.961 142.626 575.122 144.638 573.629 146.121C572.137 147.605 570.113 148.44 568.003 148.443Z" fill="#6C63FF"/>
<path d="M600.73 148.443C598.62 148.44 596.596 147.605 595.104 146.121C593.611 144.638 592.772 142.626 592.77 140.527V116.781C592.772 114.683 593.612 112.672 595.105 111.19C596.597 109.707 598.621 108.875 600.73 108.875C602.84 108.875 604.863 109.707 606.356 111.19C607.849 112.672 608.689 114.683 608.691 116.781V140.527C608.689 142.626 607.849 144.638 606.357 146.121C604.864 147.605 602.841 148.44 600.73 148.443Z" fill="#6C63FF"/>
<path d="M621.96 148.443C619.849 148.44 617.826 147.605 616.333 146.121C614.841 144.638 614.001 142.626 613.999 140.527V116.781C614.002 114.683 614.841 112.672 616.334 111.19C617.827 109.707 619.85 108.875 621.96 108.875C624.07 108.875 626.093 109.707 627.586 111.19C629.078 112.672 629.918 114.683 629.921 116.781V140.527C629.918 142.626 629.079 144.638 627.586 146.121C626.094 147.605 624.071 148.44 621.96 148.443Z" fill="#6C63FF"/>
<path d="M643.188 148.443C641.078 148.44 639.054 147.605 637.562 146.121C636.07 144.638 635.23 142.626 635.228 140.527V116.781C635.23 114.683 636.07 112.672 637.563 111.19C639.055 109.707 641.079 108.875 643.188 108.875C645.298 108.875 647.321 109.707 648.814 111.19C650.307 112.672 651.147 114.683 651.149 116.781V140.527C651.147 142.626 650.307 144.638 648.815 146.121C647.322 147.605 645.299 148.44 643.188 148.443Z" fill="#6C63FF"/>
<path d="M429.147 236.539H314.652C313.949 236.54 313.252 236.403 312.602 236.137C311.953 235.87 311.362 235.478 310.864 234.984C310.367 234.49 309.972 233.904 309.703 233.258C309.434 232.612 309.295 231.92 309.295 231.221C309.295 230.521 309.434 229.829 309.703 229.183C309.972 228.538 310.367 227.951 310.864 227.457C311.362 226.963 311.953 226.571 312.602 226.305C313.252 226.038 313.949 225.901 314.652 225.902H429.147C430.564 225.904 431.923 226.465 432.924 227.462C433.925 228.46 434.488 229.811 434.488 231.221C434.488 232.63 433.925 233.981 432.924 234.979C431.923 235.976 430.564 236.537 429.147 236.539Z" fill="#E6E6E6"/>
<path d="M392.438 213.672H351.36C349.941 213.672 348.581 213.112 347.578 212.114C346.574 211.117 346.011 209.764 346.011 208.353C346.011 206.943 346.574 205.59 347.578 204.592C348.581 203.595 349.941 203.035 351.36 203.035H392.438C393.857 203.035 395.217 203.595 396.22 204.592C397.224 205.59 397.787 206.943 397.787 208.353C397.787 209.764 397.224 211.117 396.22 212.114C395.217 213.112 393.857 213.672 392.438 213.672Z" fill="#E6E6E6"/>
<path d="M721.912 52.5767H285.835V54.3357H721.912V52.5767Z" fill="#3F3D56"/>
<path opacity="0.15" d="M235.974 230.947L235.046 228.865L272.853 212.194L281.866 180.755L268.28 169.833L269.72 168.061L284.484 179.931L274.762 213.844L235.974 230.947Z" fill="black"/>
<path opacity="0.1" d="M199.193 226.725L189.255 231.538L169.214 233.648C166.078 236.541 162.627 239.078 158.925 241.21L141.351 240.631L111.669 239.707L212.015 154.63L232.245 159.57C232.245 159.57 198.256 228.711 199.193 226.725Z" fill="black"/>
<path d="M339.382 199.498C336.748 200.003 333.86 200.42 330.669 200.74C314.194 202.378 279.368 204.555 276.298 204.708C255.67 205.673 242.702 205.662 242.702 205.662L199.193 226.725L189.255 231.537L108.705 240.02L217.777 147.544L230.99 150.769L253.354 156.238L277.991 162.261L299.369 163.217L327.031 164.451L349.391 165.449C353.265 165.583 356.928 167.235 359.581 170.045C362.233 172.856 363.66 176.595 363.549 180.448C363.198 187.782 358.082 195.885 339.382 199.498Z" fill="#FFB7B7"/>
<path opacity="0.15" d="M347.861 193.923C347.505 193.814 339.104 191.187 336.438 183.835C334.646 178.892 335.907 173.108 340.188 166.644L342.101 167.896C338.244 173.722 337.062 178.82 338.588 183.048C340.855 189.325 348.455 191.721 348.532 191.744L347.861 193.923Z" fill="black"/>
<path opacity="0.15" d="M239.179 206.097L200.687 224.739L201.69 226.787L240.183 208.145L239.179 206.097Z" fill="black"/>
<path opacity="0.15" d="M224.807 153.242L279.332 131.859L280.173 133.979L233.054 152.457L273.099 159.895L272.678 162.134L224.807 153.242Z" fill="black"/>
</g>
<defs>
<clipPath id="clip0_1997_596">
<rect width="749" height="282" fill="white" transform="translate(-25)"/>
</clipPath>
</defs>
</svg>
