<svg width="900" height="109" viewBox="0 0 900 109" fill="none" xmlns="http://www.w3.org/2000/svg">
<path d="M0 7.17105H43.8639V9.89605H35.954V104.841H43.8639V107.566H0V104.841H7.90989V9.89605H0V7.17105Z" fill="black"/>
<path d="M52.2727 109V83.3276H53.9984C56.4913 91.6461 59.847 97.4785 64.0656 100.825C68.2842 104.171 73.5574 105.845 79.8853 105.845C89.6648 105.845 94.5546 102.737 94.5546 96.5224C94.5546 93.8452 93.3561 91.8373 90.9592 90.4987C87.22 88.3952 82.4261 86.7697 76.5776 85.6224C70.0579 83.9013 64.5929 81.6066 60.1825 78.7382C54.9093 75.2961 52.2727 69.8461 52.2727 62.3882C52.2727 54.9303 54.5737 49.0022 59.1758 44.604C63.7779 40.1101 69.9141 37.8632 77.5843 37.8632C82.2823 37.8632 87.1241 38.9627 92.1097 41.1618C93.9314 41.9268 95.3216 42.3092 96.2804 42.3092C97.2392 42.3092 98.0541 41.9746 98.7253 41.3053C99.3964 40.636 100.211 39.393 101.17 37.5763H102.752V59.5197H101.026C96.1366 47.0899 88.5623 40.875 78.3034 40.875C73.7971 40.875 70.4414 41.6877 68.2362 43.3132C66.0311 44.843 64.9285 46.8031 64.9285 49.1934C64.9285 50.6276 65.264 51.775 65.9352 52.6355C66.6063 53.4004 67.1336 53.9741 67.5172 54.3566C67.9007 54.739 68.5239 55.1693 69.3868 55.6474C70.2497 56.0298 70.9687 56.3645 71.544 56.6513C72.1193 56.8425 72.9822 57.1294 74.1327 57.5118C75.3791 57.8943 76.2899 58.1333 76.8652 58.229C83.3849 59.8544 88.0829 61.2886 90.9592 62.5316C93.8355 63.6789 96.568 65.1132 99.1567 66.8342C104.43 70.4675 107.067 76.3478 107.067 84.475C107.067 92.5066 104.67 98.6259 99.8758 102.833C95.0819 106.944 88.5143 109 80.173 109C74.2286 109 68.4759 107.614 62.915 104.841C61.7645 104.076 60.8537 103.693 60.1825 103.693C58.0732 103.693 56.0119 105.462 53.9984 109H52.2727Z" fill="black"/>
<path d="M114.63 109V83.3276H116.356C118.849 91.6461 122.205 97.4785 126.423 100.825C130.642 104.171 135.915 105.845 142.243 105.845C152.023 105.845 156.912 102.737 156.912 96.5224C156.912 93.8452 155.714 91.8373 153.317 90.4987C149.578 88.3952 144.784 86.7697 138.935 85.6224C132.416 83.9013 126.951 81.6066 122.54 78.7382C117.267 75.2961 114.63 69.8461 114.63 62.3882C114.63 54.9303 116.931 49.0022 121.534 44.604C126.136 40.1101 132.272 37.8632 139.942 37.8632C144.64 37.8632 149.482 38.9627 154.467 41.1618C156.289 41.9268 157.679 42.3092 158.638 42.3092C159.597 42.3092 160.412 41.9746 161.083 41.3053C161.754 40.636 162.569 39.393 163.528 37.5763H165.11V59.5197H163.384C158.494 47.0899 150.92 40.875 140.661 40.875C136.155 40.875 132.799 41.6877 130.594 43.3132C128.389 44.843 127.286 46.8031 127.286 49.1934C127.286 50.6276 127.622 51.775 128.293 52.6355C128.964 53.4004 129.491 53.9741 129.875 54.3566C130.258 54.739 130.882 55.1693 131.745 55.6474C132.607 56.0298 133.327 56.3645 133.902 56.6513C134.477 56.8425 135.34 57.1294 136.49 57.5118C137.737 57.8943 138.648 58.1333 139.223 58.229C145.743 59.8544 150.441 61.2886 153.317 62.5316C156.193 63.6789 158.926 65.1132 161.514 66.8342C166.788 70.4675 169.424 76.3478 169.424 84.475C169.424 92.5066 167.027 98.6259 162.234 102.833C157.44 106.944 150.872 109 142.531 109C136.586 109 130.834 107.614 125.273 104.841C124.122 104.076 123.211 103.693 122.54 103.693C120.431 103.693 118.37 105.462 116.356 109H114.63Z" fill="black"/>
<path d="M256.689 107.566H223.899L222.317 97.0961C220.783 100.921 218.482 103.885 215.414 105.988C212.442 107.996 207.984 109 202.039 109C187.178 109 179.748 101.016 179.748 85.0487V41.8789H171.694V39.2974H206.497V88.4908C206.497 94.2276 206.881 98.0044 207.648 99.8211C208.511 101.638 210.141 102.546 212.538 102.546C215.031 102.546 217.236 101.064 219.153 98.1C221.071 95.136 222.03 91.0246 222.03 85.7658V41.8789H215.414V39.2974H248.779V104.984H256.689V107.566Z" fill="black"/>
<path d="M297.457 109C285.088 109 275.788 105.845 269.556 99.5342C263.42 93.1281 260.352 84.2838 260.352 73.0013C260.352 61.6232 263.804 52.9224 270.707 46.8987C277.706 40.875 286.575 37.8632 297.313 37.8632C319.077 37.8632 329.528 48.7632 328.665 70.5632H288.109V76.1566C288.109 85.5268 289.307 92.6022 291.704 97.3829C294.101 102.164 298.272 104.554 304.216 104.554C315.338 104.554 322.624 98.6259 326.076 86.7697L328.665 87.2C326.843 94.0842 323.535 99.4386 318.741 103.263C314.043 107.088 306.948 109 297.457 109ZM288.252 67.6947H303.065V60.6671C303.065 52.9224 302.586 47.6636 301.627 44.8908C300.764 42.0224 298.943 40.5882 296.162 40.5882C293.478 40.5882 291.464 42.118 290.122 45.1776C288.876 48.1417 288.252 53.3048 288.252 60.6671V67.6947Z" fill="black"/>
<path d="M449.659 7.17105L451.097 43.1697H448.365C444.146 30.4531 440.407 21.8 437.147 17.2105C433.887 12.5254 429.189 10.1829 423.053 10.1829H421.327V104.554H433.552V107.566H381.059V104.554H393.283V10.1829H391.413C385.277 10.1829 380.531 12.6211 377.176 17.4974C373.82 22.2781 370.129 30.8355 366.102 43.1697H363.369L364.807 7.17105H449.659Z" fill="black"/>
<path d="M503.027 43.3132C499.48 43.3132 496.364 45.6079 493.679 50.1974C490.995 54.7868 489.652 60.2368 489.652 66.5474V104.984H499.863V107.566H454.993V104.984H462.902V41.8789H454.993V39.2974H489.652V53.0658C490.899 48.1895 493.296 44.4605 496.843 41.8789C500.39 39.2018 504.417 37.8632 508.924 37.8632C513.43 37.8632 517.073 39.154 519.854 41.7355C522.73 44.2215 524.168 47.807 524.168 52.4921C524.168 57.0816 523.113 60.6193 521.004 63.1053C518.895 65.5912 515.635 66.8342 511.225 66.8342C506.91 66.8342 503.698 65.4 501.589 62.5316C499.576 59.6632 499.336 55.6952 500.87 50.6276H506.047C508.444 45.7513 507.437 43.3132 503.027 43.3132Z" fill="black"/>
<path d="M558.608 73.8618H562.778V62.8184C562.778 53.7351 562.251 47.6636 561.196 44.604C560.237 41.4487 558.32 39.8711 555.444 39.8711C553.718 39.8711 552.136 40.3491 550.698 41.3053C549.355 42.1658 548.684 43.4088 548.684 45.0342C548.684 46.564 548.972 48.1417 549.547 49.7671H553.142C553.91 51.775 554.293 54.2132 554.293 57.0816C554.293 59.8544 553.095 62.2925 550.698 64.3961C548.301 66.404 545.281 67.4079 541.637 67.4079C533.392 67.4079 529.269 63.4399 529.269 55.504C529.269 43.7434 539.288 37.8632 559.327 37.8632C570.736 37.8632 578.598 39.8232 582.912 43.7434C587.323 47.568 589.528 54.6434 589.528 64.9697V94.0842C589.528 99.0561 590.918 101.542 593.699 101.542C596.958 101.542 598.876 96.618 599.451 86.7697L601.609 86.9132C601.225 95.3272 599.643 101.112 596.863 104.267C594.082 107.422 589.528 109 583.2 109C571.695 109 565.079 105.462 563.353 98.3868C562.107 102.02 560.237 104.697 557.745 106.418C555.252 108.139 551.608 109 546.815 109C532.625 109 525.53 103.215 525.53 91.6461C525.53 84.8575 528.214 80.2202 533.584 77.7342C539.049 75.1526 547.39 73.8618 558.608 73.8618ZM552.855 91.5026C552.855 96.4746 553.095 99.6776 553.574 101.112C554.149 102.546 555.156 103.263 556.594 103.263C558.128 103.263 559.518 102.068 560.765 99.6776C562.107 97.1917 562.778 93.7974 562.778 89.4947V76.1566H561.771C555.827 76.1566 552.855 80.507 552.855 89.2079V91.5026Z" fill="black"/>
<path d="M643.29 40.4447C639.072 40.4447 636.052 42.7395 634.23 47.3289C632.408 51.9184 631.498 59.5197 631.498 70.1329V77.5908C631.498 87.0566 632.552 93.8452 634.662 97.9566C636.771 102.068 640.654 104.124 646.311 104.124C651.967 104.124 656.474 102.211 659.829 98.3868C663.185 94.5623 665.342 90.2118 666.301 85.3355L668.89 85.6224C667.068 93.8452 663.712 99.7732 658.823 103.407C653.837 107.136 646.982 109 638.257 109C627.135 109 618.602 106.036 612.658 100.108C606.713 94.0842 603.741 85.3355 603.741 73.8618C603.741 62.2925 607.097 53.4004 613.808 47.1855C620.615 40.9706 630.059 37.8632 642.14 37.8632C650.673 37.8632 657.193 39.5364 661.699 42.8829C666.205 46.1338 668.458 50.2452 668.458 55.2171C668.458 60.189 667.356 63.8224 665.151 66.1171C663.041 68.4118 660.069 69.5592 656.234 69.5592C652.495 69.5592 649.475 68.5553 647.174 66.5474C644.872 64.5395 643.722 61.5754 643.722 57.6553C643.722 55.9342 643.962 54.2132 644.441 52.4921H649.187C649.858 50.5798 650.194 48.8588 650.194 47.3289C650.194 42.7395 647.893 40.4447 643.29 40.4447Z" fill="black"/>
<path d="M718.166 107.566V104.984H724.781L708.53 71.7105L705.798 72.4276V104.984H712.413V107.566H671.138V104.984H679.048V2.58158H670.563V0H705.798V69.5592L708.099 68.6987L740.457 41.8789H726.939V39.2974H755.27V41.8789H745.203L728.089 56.3645L752.969 104.984H758.147V107.566H718.166Z" fill="black"/>
<path d="M794.493 109C782.125 109 772.825 105.845 766.593 99.5342C760.456 93.1281 757.388 84.2838 757.388 73.0013C757.388 61.6232 760.84 52.9224 767.743 46.8987C774.742 40.875 783.611 37.8632 794.349 37.8632C816.113 37.8632 826.564 48.7632 825.701 70.5632H785.145V76.1566C785.145 85.5268 786.343 92.6022 788.74 97.3829C791.137 102.164 795.308 104.554 801.252 104.554C812.374 104.554 819.661 98.6259 823.112 86.7697L825.701 87.2C823.879 94.0842 820.572 99.4386 815.778 103.263C811.08 107.088 803.985 109 794.493 109ZM785.289 67.6947H800.102V60.6671C800.102 52.9224 799.622 47.6636 798.664 44.8908C797.801 42.0224 795.979 40.5882 793.198 40.5882C790.514 40.5882 788.501 42.118 787.158 45.1776C785.912 48.1417 785.289 53.3048 785.289 60.6671V67.6947Z" fill="black"/>
<path d="M878.859 43.3132C875.311 43.3132 872.196 45.6079 869.511 50.1974C866.826 54.7868 865.484 60.2368 865.484 66.5474V104.984H875.695V107.566H830.824V104.984H838.734V41.8789H830.824V39.2974H865.484V53.0658C866.731 48.1895 869.127 44.4605 872.675 41.8789C876.222 39.2018 880.249 37.8632 884.755 37.8632C889.262 37.8632 892.905 39.154 895.685 41.7355C898.562 44.2215 900 47.807 900 52.4921C900 57.0816 898.945 60.6193 896.836 63.1053C894.727 65.5912 891.467 66.8342 887.057 66.8342C882.742 66.8342 879.53 65.4 877.421 62.5316C875.407 59.6632 875.168 55.6952 876.702 50.6276H881.879C884.276 45.7513 883.269 43.3132 878.859 43.3132Z" fill="black"/>
</svg>
