<svg width="867" height="700" viewBox="0 0 867 700" fill="none" xmlns="http://www.w3.org/2000/svg">
<g clip-path="url(#clip0_3_7)">
<path d="M545.551 400.293L538.635 398.648L542.818 366.3L553.024 368.728L545.551 400.293Z" fill="#FFB6B6"/>
<path d="M518.246 408.636C517.945 409.814 518.525 410.986 519.541 411.254L533.185 414.847C533.185 414.847 535.929 409.724 542.006 408.808L540.38 416.742L547.418 418.596L549.787 405.774C549.787 405.774 553.393 399.531 550.364 395.056C547.335 390.581 550.379 391.895 550.379 391.895L550.835 383.693L539.875 382.161L536.667 394.379L528.399 405.168L519.857 406.97C519.097 407.13 518.464 407.785 518.246 408.636Z" fill="#2F2E41"/>
<path d="M611.851 392.661L605.543 395.976L587.986 368.646L597.294 363.753L611.851 392.661Z" fill="#FFB6B6"/>
<path d="M596.459 417.021C596.986 418.115 598.177 418.623 599.121 418.155L611.787 411.878C611.787 411.878 610.587 406.176 614.616 401.469L618.467 408.568L625.001 405.33L618.581 394.028C618.581 394.028 617.318 386.905 612.149 385.506C606.98 384.107 610.135 383.095 610.135 383.095L605.224 376.565L595.917 382.636L601.312 394.034L601.948 407.686L596.615 414.692C596.14 415.316 596.079 416.231 596.459 417.021Z" fill="#2F2E41"/>
<path d="M241.932 272.517H425.248C427.556 272.517 429.427 270.618 429.427 268.276V5.03397C429.427 2.69187 427.556 0.793213 425.248 0.793213H241.932C239.624 0.793213 237.753 2.69187 237.753 5.03397V268.276C237.753 270.618 239.624 272.517 241.932 272.517Z" fill="white"/>
<path d="M430.209 273.31H236.971V0H430.209V273.31ZM238.535 271.724H428.645V1.58646H238.535V271.724Z" fill="#E6E6E6"/>
<path d="M386.782 43.7832C387.526 43.7832 388.129 44.3951 388.129 45.1499V47.8834C388.129 48.6383 387.526 49.2501 386.782 49.2501H280.399C279.655 49.2501 279.052 48.6382 279.052 47.8834V45.1499C279.052 44.3951 279.655 43.7832 280.399 43.7832H386.782Z" fill="#E6E6E6"/>
<path d="M386.782 56.7651C387.526 56.7651 388.129 57.377 388.129 58.1319V60.8653C388.129 61.6202 387.526 62.2321 386.782 62.2321H280.399C279.655 62.2321 279.052 61.6202 279.052 60.8653V58.1319C279.052 57.3771 279.655 56.7651 280.399 56.7651H386.782Z" fill="#E6E6E6"/>
<path d="M386.782 69.7478C387.526 69.7478 388.129 70.3597 388.129 71.1145V73.848C388.129 74.6028 387.526 75.2147 386.782 75.2147H280.399C279.655 75.2147 279.052 74.6028 279.052 73.848V71.1153C279.052 70.3605 279.655 69.7486 280.399 69.7486L386.782 69.7478Z" fill="#6C63FF"/>
<path d="M582.593 103.808H617.931C617.879 102.123 618.232 100.45 618.959 98.9347C618.979 100.617 619.343 102.276 620.029 103.808H621.634C624.089 103.805 626.078 101.786 626.081 99.2945V75.9911C626.08 64.5814 616.467 47.4772 606.021 54.6345C605.684 54.6167 600.389 52.2366 600.052 52.2366C590.862 52.2441 587.702 60.6597 584.927 69.5499C581.765 68.0711 579.586 74.2437 578.01 85.1081C577.55 88.2786 577.141 91.8486 576.775 95.7447C575.762 99.0136 577.552 102.497 580.773 103.525C581.363 103.713 581.977 103.81 582.595 103.811L582.593 103.808Z" fill="#2F2E41"/>
<path d="M513.249 237.034C511.497 241.248 512.219 245.582 514.862 246.713C517.505 247.845 521.067 245.345 522.819 241.129C523.542 239.455 523.859 237.629 523.744 235.805L530.946 217.852L522.572 214.602L516.359 232.646C514.991 233.835 513.924 235.34 513.247 237.033L513.249 237.034Z" fill="#FFB6B6"/>
<path d="M590.677 95.9199L607.567 99.5055L604.976 107.392L610.158 167.717L601.523 187.141L548.844 182.759L561.798 156.466C561.798 156.466 556.616 134.558 563.525 130.174C570.434 125.79 581.661 103.881 581.661 103.881L590.677 95.9199Z" fill="#6C63FF"/>
<path d="M606.422 102.994L621.385 109.142L616.203 186.262L627.43 252.866L591.16 259.001C591.16 259.001 595.478 111.771 598.068 109.142C600.658 106.513 606.422 102.99 606.422 102.99V102.994Z" fill="#2F2E41"/>
<path d="M577.115 112.612C577.115 112.612 567.379 106.361 562.119 110.99C556.858 115.618 516.359 227.507 516.359 227.507L527.282 232.324L552.335 179.017L577.115 112.612Z" fill="#2F2E41"/>
<path d="M549.224 301.132L539.346 378.19L553.164 379.066C553.164 379.066 560.348 359.172 568.544 335.739C570.289 330.769 572.076 325.643 573.847 320.508C575.763 314.934 577.673 309.36 579.485 303.98C583.967 290.712 587.897 278.635 590.142 270.748C590.53 269.364 590.875 268.111 591.16 267.006C597.202 243.449 600.659 181.888 600.659 181.888L550.571 177.506L550.036 178.181L539.346 191.738L539.847 194.604L553.164 270.401L549.226 301.135L549.224 301.132Z" fill="#2F2E41"/>
<path d="M553.162 270.4L549.224 301.134L566.936 332.778L568.541 335.74L592.928 380.715L604.976 373.783C604.976 373.783 589.302 337.229 579.482 303.98C578.394 300.325 577.384 296.706 576.477 293.183C573.808 282.868 578.179 264.044 576.469 258.855C570.692 241.346 551.865 206.317 543.126 190.448L539.844 194.602L553.162 270.4Z" fill="#2F2E41"/>
<path d="M581.878 103.221L564.392 110.023L518.622 245.859L546.256 250.242L559.21 171.369L581.878 103.221Z" fill="#2F2E41"/>
<path d="M625.609 249.846C626.053 254.398 628.728 257.855 631.583 257.567C634.437 257.279 636.39 253.356 635.945 248.803C635.791 246.981 635.21 245.224 634.25 243.677L632.126 224.414L623.239 225.619L626.277 244.48C625.635 246.189 625.406 248.029 625.609 249.846Z" fill="#FFB6B6"/>
<path d="M615.338 109.146C615.338 109.146 626.565 106.517 630.019 112.652C633.474 118.787 635.201 237.972 635.201 237.972L623.322 238.849L617.066 180.134L615.339 109.148L615.338 109.146Z" fill="#2F2E41"/>
<path d="M601.011 93.794C610.926 93.794 618.963 85.6379 618.963 75.5769C618.963 65.5159 610.926 57.3599 601.011 57.3599C591.097 57.3599 583.06 65.5159 583.06 75.5769C583.06 85.6379 591.097 93.794 601.011 93.794Z" fill="#FFB6B6"/>
<path d="M608.217 103.807H617.082C617.533 103.807 617.916 103.454 617.937 102.998L617.939 102.948C617.988 101.996 619.304 101.836 619.609 102.737C619.732 103.099 619.872 103.457 620.029 103.807H620.901V75.7219C620.901 70.9048 617.053 66.9998 612.306 66.9998C608.253 66.9998 604.751 69.8728 603.902 73.8942C603.902 73.8942 597.877 81.3933 601.428 85.6094C604.979 89.8254 599.813 93.2571 599.813 93.2571C598.666 98.6868 602.745 103.807 608.217 103.807Z" fill="#2F2E41"/>
<path d="M314.284 136.521C316.274 135.22 316.693 132.433 315.301 130.49L308.783 121.387C307.26 119.259 304.326 118.786 302.229 120.331C302.043 120.468 301.867 120.619 301.703 120.782C290.665 126.77 284.724 135.515 291.33 145.853C291.33 147.579 291.454 149.303 291.701 151.011C291.808 151.752 292.054 152.477 292.471 153.096C293.708 154.932 295.891 155.606 297.812 154.97L308.473 151.455C310.738 150.708 311.965 148.199 311.128 145.936C310.047 143.011 310.492 139.003 314.284 136.521Z" fill="#F2F2F2"/>
<path d="M339.588 163.372C336.521 163.065 333.902 165.63 333.902 168.758V178.091C333.902 178.333 333.92 178.574 333.956 178.813C334.351 181.414 336.748 183.198 339.31 182.798C354.252 184.667 364.462 178.073 365.076 163.607C365.174 163.404 365.258 163.194 365.326 162.979C366.122 160.479 364.771 157.798 362.308 156.99L353.382 154.046C350.302 153.031 347.102 155.06 346.563 158.3C346.076 161.227 344.172 163.832 339.588 163.372Z" fill="#E6E6E6"/>
<path d="M284.401 172.498C287.499 191.16 303.635 198.24 320.464 199.359C320.793 199.411 321.126 199.437 321.46 199.437C325.089 199.439 328.033 196.454 328.035 192.771V177.165C328.035 172.8 324.51 169.4 320.208 169.356C316.05 169.313 313.34 167.316 312.227 163.65C310.955 159.462 306.421 157.254 302.313 158.608L288.276 163.237C286.458 163.836 284.986 165.208 284.244 166.996C283.507 168.766 283.564 170.774 284.401 172.498Z" fill="#3F3D56"/>
<path d="M370.879 107.968C368.288 105.393 364.131 105.437 361.593 108.066C361.368 108.3 361.159 108.55 360.969 108.815L348.497 126.237C346.902 128.465 347.814 131.568 350.306 132.656C356.145 135.204 355.532 140.923 353.631 144.423C352.699 146.138 353.468 148.285 355.303 148.89L376.321 155.82C379.779 156.953 383.487 155.027 384.604 151.518C384.716 151.165 384.799 150.803 384.852 150.435C385.213 147.993 385.395 145.527 385.395 143.058C388.95 129.604 384.03 116.92 370.879 107.968Z" fill="#6C63FF"/>
<path d="M334.784 128.169C337.113 129.499 340.051 128.856 341.622 126.662L345.801 120.826C346.612 119.694 346.894 118.259 346.572 116.898C346.26 115.562 345.387 114.432 344.184 113.807C334.351 104.791 322.713 104.238 312.845 113.761C311.604 114.396 310.701 115.552 310.375 116.923C310.053 118.274 310.332 119.7 311.138 120.824L316.021 127.644C317.698 129.987 320.947 130.599 323.258 128.902C326.616 126.434 331.494 126.289 334.784 128.169Z" fill="#E6E6E6"/>
<path d="M665.58 417.21H0.362915V418.545H665.58V417.21Z" fill="#E6E6E6"/>
<path d="M279.734 245.736C280.109 244.124 281.871 243.595 283.312 243.656C284.222 243.718 285.125 243.863 286.009 244.089C286.935 244.299 287.852 244.548 288.764 244.811C290.437 245.295 292.091 245.881 293.791 246.259C295.218 246.655 296.719 246.678 298.156 246.324C299.539 245.939 300.627 244.856 301.033 243.461C301.446 242.128 300.851 240.687 299.626 240.05C298.492 239.415 297.065 239.834 296.44 240.985C296.431 241.002 296.422 241.019 296.413 241.036C295.888 242.456 296.3 244.058 297.443 245.035C298.028 245.593 298.67 246.088 299.357 246.511C300.054 246.993 300.83 247.345 301.649 247.552C303.041 247.926 304.512 247.344 305.287 246.111C305.441 245.816 305.533 245.492 305.559 245.159C305.599 244.706 304.902 244.708 304.861 245.159C304.744 246.457 303.246 247.063 302.126 246.921C301.37 246.794 300.648 246.51 300.006 246.086C299.386 245.719 298.798 245.299 298.249 244.829C297.3 243.994 296.409 242.622 297.047 241.32C297.544 240.484 298.614 240.214 299.439 240.718C299.549 240.785 299.651 240.865 299.744 240.955C300.741 241.783 300.563 243.284 299.906 244.268C299.116 245.295 297.896 245.885 296.613 245.862C295.259 245.864 293.914 245.65 292.626 245.227C291.02 244.765 289.43 244.247 287.816 243.81C286.9 243.563 285.977 243.34 285.045 243.166C284.163 242.969 283.257 242.905 282.357 242.977C280.837 243.05 279.522 244.075 279.06 245.546C278.959 245.991 279.631 246.18 279.734 245.736Z" fill="#3F3D56"/>
<path d="M307.341 227.293C307.551 227.293 307.721 227.905 307.721 228.66V231.393C307.721 232.148 307.551 232.76 307.341 232.76H277.272C277.062 232.76 276.891 232.148 276.891 231.393V228.66C276.891 227.905 277.062 227.293 277.272 227.293H307.341Z" fill="#E6E6E6"/>
<path d="M387.748 227.293C387.959 227.293 388.129 227.905 388.129 228.66V231.393C388.129 232.148 387.959 232.76 387.748 232.76H357.679C357.469 232.76 357.299 232.148 357.299 231.393V228.66C357.299 227.905 357.469 227.293 357.679 227.293H387.748Z" fill="#E6E6E6"/>
<path d="M374.36 242.69L368.391 244.692L365.407 245.693C364.49 246.09 363.498 246.275 362.502 246.235C361.767 246.185 361.121 245.721 360.831 245.033C360.704 244.344 360.996 243.644 361.572 243.257C362.996 242.157 364.797 243.277 365.807 244.415C367.041 245.808 367.74 247.606 368.898 249.064C369.928 250.373 371.235 251.43 372.722 252.158C375.692 253.653 379.236 253.346 381.914 251.361C385.06 248.898 385.381 244.628 385.398 240.904C385.385 240.546 385.09 240.267 384.737 240.279C384.402 240.291 384.133 240.564 384.121 240.904C384.107 244.279 383.917 248.417 380.885 250.529C377.979 252.553 374.162 252.016 371.487 249.86C370.108 248.614 368.961 247.127 368.101 245.47C367.145 243.884 365.96 242.352 364.162 241.736C362.572 241.15 360.796 241.78 359.912 243.243C359.15 244.545 359.572 246.226 360.855 246.999C360.954 247.059 361.057 247.112 361.162 247.159C363.247 248.167 365.632 246.986 367.639 246.312L374.702 243.944C375.478 243.684 375.146 242.432 374.362 242.694L374.36 242.69Z" fill="#6C63FF"/>
<path d="M109.128 393.442C109.051 393.373 108.991 393.337 108.95 393.337C107.976 393.346 107.109 393.865 106.63 394.722L96.1456 414.483C95.9058 414.913 95.7881 415.383 95.7922 415.852C95.7962 416.322 95.922 416.79 96.1691 417.216C96.6633 418.068 119.819 418.373 119.819 418.373C120.793 418.365 123.465 406.208 109.128 393.442Z" fill="#E6E6E6"/>
<path d="M69.0547 413.586L77.0129 413.515L80.5307 382.331L68.7852 382.435L69.0547 413.586Z" fill="#FFB6B6"/>
<path d="M96.3188 413.161C96.5702 413.582 96.7127 414.948 96.7169 415.441C96.7299 416.955 95.5312 418.192 94.0395 418.206L69.394 418.424C68.3764 418.433 67.5442 417.603 67.5353 416.57L67.5263 415.529C67.5263 415.529 66.2802 412.41 68.7571 408.531C68.7571 408.531 71.9028 411.523 76.5238 406.752L77.8767 404.212L87.891 411.509L93.4125 412.149C94.6205 412.289 95.6889 412.106 96.3188 413.161Z" fill="#2F2E41"/>
<path d="M99.3307 386.663L106.892 389.182L120.066 360.784L108.906 357.066L99.3307 386.663Z" fill="#FFB6B6"/>
<path d="M125.293 395.122C125.398 395.603 125.102 396.943 124.95 397.411C124.485 398.849 122.959 399.632 121.541 399.16L98.1252 391.356C97.1584 391.034 96.6319 389.977 96.9494 388.996L97.2695 388.007C97.2695 388.007 97.0734 384.647 100.644 381.777C100.644 381.777 102.68 385.635 108.563 382.616L110.646 380.65L117.83 390.818L122.859 393.219C123.959 393.744 125.029 393.917 125.293 395.122Z" fill="#2F2E41"/>
<path d="M110.007 205.849L125.907 257.584L144.547 304.08L116.293 370.985L100.573 364.77L114.643 306.864L90.5916 263.628L79.2254 393.419L65.3984 391.739L47.4203 236.266L50.2398 202.458L110.007 205.849Z" fill="#2F2E41"/>
<path d="M93.7397 88.0526L76.5604 83.8445L71.8212 95.267C71.8212 95.267 48.6068 99.2467 47.4203 117.282C47.4203 117.282 42.7936 140.955 45.7553 147.569C48.717 154.182 56.0185 177.567 56.0185 177.567C56.0185 177.567 44.4578 206.702 47.4203 208.503C50.3827 210.304 113.861 216.869 113.861 213.262C113.861 209.656 114.586 166.803 114.586 166.803L112.1 101.877L96.1097 95.8683L93.7397 88.0526Z" fill="#E6E6E6"/>
<path d="M90.8322 85.1478C100.393 85.1478 108.144 77.2823 108.144 67.5797C108.144 57.8772 100.393 50.0117 90.8322 50.0117C81.2712 50.0117 73.5205 57.8772 73.5205 67.5797C73.5205 77.2823 81.2712 85.1478 90.8322 85.1478Z" fill="#FFB6B6"/>
<path d="M79.3691 70.1911C80.7508 70.9581 79.4413 74.6227 80.3048 74.9392C81.303 75.305 84.9402 71.1005 84.9837 66.3926C84.9968 64.9677 84.6735 64.2836 84.9837 62.5941C85.3894 60.3841 86.6361 57.7772 87.791 57.846C88.4756 57.8868 89.1445 58.8687 89.1946 59.7452C89.265 60.9737 88.0893 61.4576 88.2589 62.1193C88.5819 63.3796 93.5199 64.2481 95.2771 62.1193C96.6547 60.4504 95.5968 57.5214 96.2129 57.3712C96.667 57.2605 97.1552 58.8731 99.0202 60.6949C99.7229 61.3812 100.768 62.402 101.36 62.1193C102.215 61.7108 101.592 58.8339 101.827 58.7956C102.022 58.764 102.145 60.7862 103.231 62.5941C104.626 64.9168 107.504 66.7065 108.846 65.9178C109.668 65.4346 109.732 64.0901 109.782 63.0689C109.885 60.9176 112.964 55.9682 112.166 53.6672C110.542 48.9838 107.764 52.2865 106.506 50.7238C104.804 48.6083 103.277 49.7466 100.424 47.4002C97.6363 45.1079 97.6112 42.8031 95.745 42.652C94.0644 42.516 93.4673 44.3355 91.5341 44.0765C89.8963 43.8571 89.5395 42.4462 88.2589 42.652C87.0864 42.8405 87.0095 44.0836 85.4516 44.5513C84.4569 44.8499 84.2382 44.4183 83.1122 44.5513C80.769 44.828 79.1959 46.9944 78.9012 47.4002C77.7652 48.9645 78.2064 49.6239 77.0297 51.1986C76.0149 52.5566 73.765 51.9809 72.9194 52.6593C70.1562 54.8758 68.97 58.9623 68.9476 63.6194C68.932 66.8766 69.3511 68.5222 70.2863 72.6333C70.9965 75.755 74.2825 79.7882 76.0939 81.5866C76.5801 82.0693 77.9432 83.4226 78.9012 83.011C79.809 82.621 79.8358 80.8683 79.837 80.6369C79.8408 79.8411 79.6316 78.8563 77.9654 76.3636C76.2153 73.7452 75.5203 73.4466 75.626 72.5651C75.8129 71.0071 78.2678 69.5797 79.3691 70.1911Z" fill="#2F2E41"/>
<path d="M30.4136 245.423C29.8107 250.531 31.9189 254.988 35.1223 255.377C38.3257 255.767 41.4113 251.941 42.0141 246.833C42.278 244.596 42.0224 242.485 41.3829 240.785L43.6698 219.107L33.6222 218.234L32.4342 239.698C31.4172 241.196 30.6775 243.187 30.4136 245.423Z" fill="#FFB6B6"/>
<path d="M59.3449 101.456C59.3449 101.456 54.1393 101.529 50.6902 108.359C48.8574 111.988 36.944 177.041 36.944 177.041L33.5971 197.615L35.3171 201.018C32.5828 205.262 31.8301 210.513 33.2595 215.371L29.9895 235.473L45.366 235.557L57.3658 182.899L67.4557 152.359L59.3449 101.456Z" fill="#E6E6E6"/>
<path d="M137.903 244.63C138.506 249.738 136.397 254.195 133.194 254.584C129.991 254.974 126.905 251.148 126.302 246.039C126.038 243.803 126.294 241.692 126.933 239.992L124.646 218.314L134.694 217.441L135.882 238.905C136.899 240.403 137.639 242.393 137.903 244.63Z" fill="#FFB6B6"/>
<path d="M108.971 100.662C108.971 100.662 114.177 100.736 117.626 107.566C119.459 111.195 131.372 176.247 131.372 176.247L134.719 196.822L132.999 200.224C135.734 204.468 136.486 209.72 135.057 214.578L138.327 234.68L122.95 234.764L110.95 182.105L100.861 151.565L108.971 100.662Z" fill="#E6E6E6"/>
<path d="M579.434 72.8718C580.072 73.9327 583.46 70.0516 588.663 69.6235C589.987 69.5119 592.973 74.6585 596.399 74.733C598.669 74.7795 600.066 74.7608 602.862 74.733C606.166 74.6957 607.07 74.6213 607.709 73.8024C608.945 72.2111 607.927 69.3823 608.517 69.1496C609.009 68.9542 610.286 70.7036 610.94 72.8718C612.313 77.4223 607.386 83.7593 606.901 89.6218C606.384 95.9402 611.473 83.8337 610.94 89.6218C610.342 96.1357 608.201 95.6424 608.226 97.9968C608.234 98.3504 608.323 98.6574 608.517 98.9273C608.686 99.1693 608.856 99.2623 611.748 99.8579C615.206 100.574 616.942 100.928 617.403 100.788C618.59 100.435 619.794 98.4714 620.634 97.0662C622.024 94.7677 621.038 97.0848 620.634 94.2746C620.247 91.5573 619.035 91.2038 619.019 88.6912C619.002 85.5273 620.917 84.5689 622.25 81.2468C624.714 75.1051 622.307 67.9958 621.442 65.4274C621.027 64.1958 620.274 62.6369 618.954 60.0613C617.895 57.9937 616.489 56.1723 614.774 54.8075C612.204 52.7621 609.218 51.3605 605.991 50.8052C604.223 50.501 602.42 50.6607 600.682 51.1418L596.179 52.3879C594.287 52.9117 592.503 53.861 590.93 55.1813C589.464 55.187 588.192 56.2785 587.689 57.8651C587.637 58.0311 587.589 58.1278 587.55 58.1136C579.434 55.1913 579.439 63.8466 579.528 69.2534C579.537 69.8068 579.52 70.2965 579.458 70.6943V70.7223C579.296 71.7924 579.256 72.5741 579.434 72.8718Z" fill="#2F2E41"/>
<path d="M473.934 120.672H388.494V122.259H473.934V120.672Z" fill="#3F3D56"/>
<path d="M491.131 131.754C485.097 131.754 480.188 126.773 480.188 120.649C480.188 114.526 485.097 109.544 491.131 109.544C497.165 109.544 502.074 114.526 502.074 120.649C502.074 126.773 497.165 131.754 491.131 131.754ZM491.131 111.13C485.959 111.13 481.751 115.401 481.751 120.649C481.751 125.898 485.959 130.168 491.131 130.168C496.303 130.168 500.511 125.898 500.511 120.649C500.511 115.401 496.303 111.13 491.131 111.13Z" fill="#3F3D56"/>
<path d="M491.131 126.202C494.153 126.202 496.602 123.716 496.602 120.649C496.602 117.583 494.153 115.097 491.131 115.097C488.109 115.097 485.659 117.583 485.659 120.649C485.659 123.716 488.109 126.202 491.131 126.202Z" fill="#6C63FF"/>
<path d="M278.76 179.372H193.319V180.958H278.76V179.372Z" fill="#3F3D56"/>
<path d="M165.18 179.348C165.18 173.225 170.089 168.243 176.123 168.243C182.157 168.243 187.066 173.225 187.066 179.348C187.066 185.472 182.157 190.453 176.123 190.453C170.089 190.453 165.18 185.472 165.18 179.348ZM166.743 179.348C166.743 184.597 170.951 188.867 176.123 188.867C181.295 188.867 185.503 184.597 185.503 179.348C185.503 174.1 181.295 169.829 176.123 169.829C170.951 169.829 166.743 174.1 166.743 179.348Z" fill="#3F3D56"/>
<path d="M176.123 184.901C179.145 184.901 181.594 182.415 181.594 179.348C181.594 176.282 179.145 173.796 176.123 173.796C173.101 173.796 170.651 176.282 170.651 179.348C170.651 182.415 173.101 184.901 176.123 184.901Z" fill="#6C63FF"/>
</g>
<g clip-path="url(#clip1_3_7)">
<path d="M383.687 685.701L389.695 675.837L390.894 681.474C391.105 682.461 391.315 683.464 391.51 684.46C393.216 682.971 395.032 681.593 396.808 680.272C402.263 676.227 407.715 672.178 413.164 668.123L411.458 678.234C410.406 684.46 409.307 690.813 406.704 696.505C406.416 697.15 406.104 697.787 405.769 698.408H380.414C380.21 697.831 380.069 697.233 379.993 696.624C379.987 696.585 379.984 696.545 379.986 696.505C379.588 692.644 381.676 689.005 383.687 685.701Z" fill="#F0F0F0"/>
<path d="M765.49 256.559H408.62C405.554 256.564 402.615 257.81 400.446 260.026C398.278 262.241 397.058 265.244 397.053 268.376V514.425C397.056 517.559 398.276 520.563 400.444 522.778C402.613 524.994 405.553 526.24 408.62 526.243H765.49C768.556 526.24 771.497 524.994 773.665 522.778C775.834 520.563 777.053 517.559 777.056 514.425V268.376C777.051 265.244 775.831 262.241 773.663 260.026C771.495 257.81 768.556 256.564 765.49 256.559Z" fill="#E6E6E6"/>
<path d="M763.29 518.096H529.457C496.692 517.999 465.296 504.657 442.128 480.985C418.959 457.313 405.901 425.235 405.805 391.758V271.427C405.806 269.645 406.498 267.935 407.731 266.673C408.963 265.411 410.636 264.7 412.38 264.697H763.29C765.035 264.7 766.707 265.411 767.94 266.673C769.173 267.935 769.865 269.645 769.866 271.427V511.378C769.864 513.159 769.17 514.867 767.937 516.127C766.705 517.386 765.034 518.094 763.29 518.096Z" fill="white"/>
<path d="M744.871 298.154H416.526C416.185 298.147 415.86 298.003 415.622 297.753C415.383 297.504 415.249 297.169 415.249 296.82C415.249 296.471 415.383 296.136 415.622 295.887C415.86 295.638 416.185 295.494 416.526 295.486H744.871C745.213 295.494 745.537 295.638 745.776 295.887C746.015 296.136 746.149 296.471 746.149 296.82C746.149 297.169 746.015 297.504 745.776 297.753C745.537 298.003 745.213 298.147 744.871 298.154Z" fill="#CACACA"/>
<path d="M438.877 288.674C443.104 288.674 446.53 285.096 446.53 280.682C446.53 276.267 443.104 272.689 438.877 272.689C434.651 272.689 431.225 276.267 431.225 280.682C431.225 285.096 434.651 288.674 438.877 288.674Z" fill="#3F3D56"/>
<path d="M465.312 288.674C469.539 288.674 472.965 285.096 472.965 280.682C472.965 276.267 469.539 272.689 465.312 272.689C461.086 272.689 457.66 276.267 457.66 280.682C457.66 285.096 461.086 288.674 465.312 288.674Z" fill="#3F3D56"/>
<path d="M491.747 288.674C495.974 288.674 499.4 285.096 499.4 280.682C499.4 276.267 495.974 272.689 491.747 272.689C487.521 272.689 484.095 276.267 484.095 280.682C484.095 285.096 487.521 288.674 491.747 288.674Z" fill="#3F3D56"/>
<path d="M640.134 418.084H507.165C504.76 418.116 502.432 417.215 500.65 415.564C498.868 413.912 497.765 411.632 497.562 409.183C497.479 407.931 497.638 406.674 498.03 405.484C498.423 404.295 499.04 403.196 499.848 402.25C500.656 401.304 501.639 400.53 502.739 399.973C503.84 399.415 505.037 399.084 506.263 398.999C506.472 398.985 506.682 398.977 506.891 398.977H640.134C642.614 398.977 644.992 399.984 646.746 401.775C648.499 403.567 649.484 405.997 649.484 408.531C649.484 411.065 648.499 413.494 646.746 415.286C644.992 417.078 642.614 418.084 640.134 418.084Z" fill="#6C63FF"/>
<path d="M640.38 364.579C645.046 364.579 648.828 360.715 648.828 355.948C648.828 351.181 645.046 347.317 640.38 347.317C635.715 347.317 631.932 351.181 631.932 355.948C631.932 360.715 635.715 364.579 640.38 364.579Z" fill="#E6E6E6"/>
<path d="M639.228 360.44C639.082 360.44 638.938 360.406 638.807 360.339C638.677 360.272 638.564 360.176 638.476 360.056L636.171 356.917C636.097 356.816 636.042 356.701 636.011 356.578C635.98 356.456 635.972 356.329 635.99 356.203C636.007 356.078 636.048 355.957 636.111 355.848C636.174 355.74 636.257 355.644 636.357 355.569C636.456 355.493 636.568 355.437 636.688 355.406C636.808 355.375 636.933 355.368 637.056 355.387C637.178 355.405 637.296 355.448 637.402 355.512C637.508 355.577 637.601 355.663 637.675 355.765L639.183 357.818L643.055 351.884C643.193 351.671 643.407 351.523 643.651 351.472C643.896 351.422 644.15 351.472 644.357 351.612C644.565 351.753 644.71 351.972 644.76 352.222C644.81 352.471 644.76 352.731 644.623 352.943L644.619 352.949L640.01 360.013C639.926 360.141 639.814 360.246 639.683 360.32C639.551 360.395 639.404 360.436 639.254 360.44L639.228 360.44Z" fill="white"/>
<path d="M640.38 469.668C645.046 469.668 648.828 465.803 648.828 461.036C648.828 456.27 645.046 452.405 640.38 452.405C635.715 452.405 631.932 456.27 631.932 461.036C631.932 465.803 635.715 469.668 640.38 469.668Z" fill="#E6E6E6"/>
<path d="M639.228 465.529C639.082 465.529 638.938 465.494 638.807 465.427C638.677 465.36 638.564 465.264 638.476 465.144L636.171 462.005C636.097 461.904 636.042 461.789 636.011 461.667C635.98 461.544 635.972 461.417 635.99 461.291C636.007 461.166 636.048 461.046 636.111 460.937C636.174 460.828 636.257 460.733 636.357 460.657C636.456 460.581 636.568 460.526 636.688 460.494C636.808 460.463 636.933 460.456 637.056 460.475C637.178 460.493 637.296 460.536 637.402 460.601C637.508 460.665 637.601 460.751 637.675 460.853L639.183 462.907L643.055 456.972C643.193 456.759 643.407 456.611 643.651 456.561C643.896 456.51 644.15 456.56 644.357 456.701C644.565 456.841 644.71 457.06 644.76 457.31C644.81 457.559 644.76 457.819 644.623 458.031L644.619 458.037L640.01 465.101C639.926 465.229 639.814 465.334 639.683 465.409C639.551 465.483 639.404 465.524 639.254 465.528L639.228 465.529Z" fill="white"/>
<path d="M572.344 365.54H507.165C504.76 365.572 502.432 364.671 500.65 363.019C498.868 361.368 497.765 359.088 497.562 356.639C497.479 355.386 497.638 354.13 498.03 352.94C498.423 351.75 499.04 350.651 499.848 349.706C500.656 348.76 501.639 347.986 502.739 347.429C503.84 346.871 505.037 346.54 506.263 346.455C506.472 346.441 506.682 346.433 506.891 346.433H572.344C574.824 346.433 577.202 347.44 578.956 349.231C580.709 351.023 581.694 353.453 581.694 355.987C581.694 358.52 580.709 360.95 578.956 362.742C577.202 364.534 574.824 365.54 572.344 365.54Z" fill="#6C63FF"/>
<path d="M640.134 365.938H506.891C504.308 365.938 501.831 364.89 500.004 363.023C498.177 361.157 497.151 358.626 497.151 355.986C497.151 353.347 498.177 350.816 500.004 348.95C501.831 347.083 504.308 346.035 506.891 346.035H640.134C642.717 346.035 645.194 347.083 647.021 348.95C648.848 350.816 649.874 353.347 649.874 355.986C649.874 358.626 648.848 361.157 647.021 363.023C645.194 364.89 642.717 365.938 640.134 365.938ZM506.891 347.627C504.721 347.627 502.64 348.508 501.106 350.076C499.572 351.643 498.71 353.769 498.71 355.986C498.71 358.203 499.572 360.33 501.106 361.897C502.64 363.465 504.721 364.346 506.891 364.346H640.134C642.304 364.346 644.385 363.465 645.919 361.897C647.453 360.33 648.315 358.203 648.315 355.986C648.315 353.769 647.453 351.643 645.919 350.076C644.385 348.508 642.304 347.627 640.134 347.627H506.891Z" fill="#3F3D56"/>
<path d="M640.134 418.482H506.891C504.308 418.482 501.831 417.434 500.004 415.567C498.177 413.701 497.151 411.17 497.151 408.531C497.151 405.891 498.177 403.36 500.004 401.494C501.831 399.628 504.308 398.579 506.891 398.579H640.134C642.717 398.579 645.194 399.628 647.021 401.494C648.848 403.36 649.874 405.891 649.874 408.531C649.874 411.17 648.848 413.701 647.021 415.567C645.194 417.434 642.717 418.482 640.134 418.482ZM506.891 400.171C504.721 400.171 502.64 401.052 501.106 402.62C499.572 404.187 498.71 406.314 498.71 408.531C498.71 410.748 499.572 412.874 501.106 414.442C502.64 416.009 504.721 416.89 506.891 416.89H640.134C642.304 416.89 644.385 416.009 645.919 414.442C647.453 412.874 648.315 410.748 648.315 408.531C648.315 406.314 647.453 404.187 645.919 402.62C644.385 401.052 642.304 400.171 640.134 400.171H506.891Z" fill="#3F3D56"/>
<path d="M544.293 470.628H507.165C504.76 470.66 502.432 469.759 500.65 468.108C498.868 466.456 497.765 464.176 497.562 461.727C497.479 460.475 497.638 459.218 498.03 458.028C498.423 456.839 499.04 455.74 499.848 454.794C500.656 453.848 501.639 453.075 502.739 452.517C503.84 451.959 505.037 451.628 506.263 451.543C506.472 451.529 506.682 451.522 506.891 451.521H544.293C546.773 451.521 549.151 452.528 550.904 454.32C552.658 456.111 553.643 458.541 553.643 461.075C553.643 463.609 552.658 466.039 550.904 467.83C549.151 469.622 546.773 470.628 544.293 470.628Z" fill="#6C63FF"/>
<path d="M640.134 471.026H506.891C504.308 471.026 501.831 469.978 500.004 468.112C498.177 466.245 497.151 463.714 497.151 461.075C497.151 458.436 498.177 455.904 500.004 454.038C501.831 452.172 504.308 451.123 506.891 451.123H640.134C642.717 451.123 645.194 452.172 647.021 454.038C648.848 455.904 649.874 458.436 649.874 461.075C649.874 463.714 648.848 466.245 647.021 468.112C645.194 469.978 642.717 471.026 640.134 471.026ZM506.891 452.716C504.721 452.716 502.64 453.596 501.106 455.164C499.572 456.732 498.71 458.858 498.71 461.075C498.71 463.292 499.572 465.418 501.106 466.986C502.64 468.553 504.721 469.434 506.891 469.434H640.134C642.304 469.434 644.385 468.553 645.919 466.986C647.453 465.418 648.315 463.292 648.315 461.075C648.315 458.858 647.453 456.732 645.919 455.164C644.385 453.596 642.304 452.716 640.134 452.716H506.891Z" fill="#3F3D56"/>
<path d="M531.826 336.171H500.658C499.832 336.171 499.039 335.836 498.454 335.239C497.87 334.641 497.542 333.831 497.542 332.987C497.542 332.142 497.87 331.332 498.454 330.735C499.039 330.138 499.832 329.802 500.658 329.802H531.826C532.653 329.802 533.446 330.138 534.03 330.735C534.615 331.332 534.943 332.142 534.943 332.987C534.943 333.831 534.615 334.641 534.03 335.239C533.446 335.836 532.653 336.171 531.826 336.171Z" fill="#CCCCCC"/>
<path d="M531.826 388.715H500.658C499.832 388.715 499.039 388.38 498.454 387.783C497.87 387.186 497.542 386.376 497.542 385.531C497.542 384.686 497.87 383.876 498.454 383.279C499.039 382.682 499.832 382.346 500.658 382.346H531.826C532.653 382.346 533.446 382.682 534.03 383.279C534.615 383.876 534.943 384.686 534.943 385.531C534.943 386.376 534.615 387.186 534.03 387.783C533.446 388.38 532.653 388.715 531.826 388.715Z" fill="#CCCCCC"/>
<path d="M531.826 441.26H500.658C499.832 441.26 499.039 440.924 498.454 440.327C497.87 439.73 497.542 438.92 497.542 438.075C497.542 437.231 497.87 436.421 498.454 435.823C499.039 435.226 499.832 434.891 500.658 434.891H531.826C532.653 434.891 533.446 435.226 534.03 435.823C534.615 436.421 534.943 437.231 534.943 438.075C534.943 438.92 534.615 439.73 534.03 440.327C533.446 440.924 532.653 441.26 531.826 441.26Z" fill="#CCCCCC"/>
<path d="M485.083 336.856C486.953 336.856 488.47 335.273 488.47 333.319C488.47 331.365 486.953 329.781 485.083 329.781C483.212 329.781 481.696 331.365 481.696 333.319C481.696 335.273 483.212 336.856 485.083 336.856Z" fill="#3F3D56"/>
<path d="M485.083 389.401C486.953 389.401 488.47 387.817 488.47 385.863C488.47 383.909 486.953 382.326 485.083 382.326C483.212 382.326 481.696 383.909 481.696 385.863C481.696 387.817 483.212 389.401 485.083 389.401Z" fill="#3F3D56"/>
<path d="M485.083 441.945C486.953 441.945 488.47 440.361 488.47 438.407C488.47 436.454 486.953 434.87 485.083 434.87C483.212 434.87 481.696 436.454 481.696 438.407C481.696 440.361 483.212 441.945 485.083 441.945Z" fill="#3F3D56"/>
<path d="M708.259 689.802L700.544 689.801L696.874 659.397L708.261 659.398L708.259 689.802Z" fill="#FFB6B6"/>
<path d="M708.53 698.025L684.806 698.024V697.718C684.806 695.216 685.779 692.816 687.511 691.047C689.243 689.277 691.591 688.283 694.04 688.283L698.374 684.924L706.46 688.284L708.531 688.284L708.53 698.025Z" fill="#2F2E41"/>
<path d="M738.648 689.802L730.933 689.801L727.263 659.397L738.649 659.398L738.648 689.802Z" fill="#FFB6B6"/>
<path d="M738.919 698.025L715.195 698.024V697.718C715.195 695.216 716.168 692.816 717.9 691.047C719.631 689.277 721.98 688.283 724.429 688.283L728.763 684.924L736.849 688.284L738.92 688.284L738.919 698.025Z" fill="#2F2E41"/>
<path d="M681.71 499.377L676.256 518.483L682.682 599.405C682.682 599.405 679.373 604.465 681.71 604.465C684.048 604.465 687.046 605.587 685.157 608.608C683.269 611.63 689.723 622.478 689.723 622.478L698.853 680.097L710.486 679.921C710.486 679.921 716.4 676.555 713.081 673.151C709.762 669.747 707.424 669.747 710.541 666.563C713.658 663.378 713.658 664.337 713.658 661.867C713.658 659.397 716.78 629.214 709.375 617.635L711.606 570.429L716.862 616.733L727.683 678.504L738.889 678.41C738.889 678.41 744.065 673.313 744.056 669.54C744.046 665.766 740.858 665.453 743.231 663.221C745.605 660.99 745.605 626.706 738.592 607.649L738.645 522.407C738.645 522.407 745.536 503.276 738.557 495.753C731.579 488.231 681.71 499.377 681.71 499.377Z" fill="#2F2E41"/>
<path d="M751.947 466.04L756.645 416.322C756.838 414.215 756.212 412.116 754.903 410.476C753.594 408.836 751.707 407.788 749.648 407.557C747.567 407.324 745.482 407.946 743.85 409.284C742.217 410.622 741.173 412.568 740.945 414.694C740.93 414.836 740.918 414.978 740.91 415.12L737.58 466.917L734.258 498.304C732.904 498.72 731.708 499.551 730.833 500.686C729.957 501.82 729.445 503.203 729.365 504.645C729.286 506.088 729.643 507.52 730.387 508.748C731.132 509.976 732.229 510.94 733.529 511.509C734.829 512.077 736.268 512.224 737.652 511.927C739.036 511.631 740.297 510.907 741.264 509.853C742.231 508.799 742.857 507.466 743.057 506.036C743.257 504.606 743.021 503.148 742.381 501.859L751.947 466.04Z" fill="#FFB6B6"/>
<path d="M734.331 391.121L751.257 393.289C751.257 393.289 763.94 417.713 761.329 419.786C758.719 421.859 746.924 434.79 738.227 428.862C729.531 422.934 734.331 391.121 734.331 391.121Z" fill="#3F3D56"/>
<path d="M705.183 367.688C715.104 367.688 723.148 359.47 723.148 349.333C723.148 339.196 715.104 330.978 705.183 330.978C695.261 330.978 687.218 339.196 687.218 349.333C687.218 359.47 695.261 367.688 705.183 367.688Z" fill="#FFB6B6"/>
<path d="M712.124 366.184C706.969 366.011 706.501 364.62 701.346 364.447C699.704 364.392 697.767 364.162 696.973 362.693C696.742 362.142 696.64 361.545 696.673 360.947C696.706 360.349 696.875 359.767 697.166 359.247C697.754 358.215 698.284 357.149 698.754 356.055C699.037 355.197 699.111 354.282 698.97 353.388C698.829 352.494 698.477 351.649 697.945 350.925C697.413 350.202 696.716 349.621 695.915 349.234C695.114 348.848 694.233 348.666 693.348 348.705C691.779 348.774 690.305 349.528 688.741 349.666C686.595 349.855 681.851 342.617 682.839 340.661C683.8 338.758 685.735 337.322 686.04 335.203C686.238 333.817 685.679 332.44 685.602 331.041C685.489 328.967 690.634 333.643 689.691 331.803C687.38 327.288 709.162 321.691 712.748 327.346C714.088 329.46 716.476 329.316 718.605 330.585C720.001 331.417 723.524 334.287 724.325 336.076C725.061 337.901 725.409 339.866 725.345 341.839C725.377 351.015 724.009 359.456 716.765 364.88" fill="#2F2E41"/>
<path d="M700.411 372.793L715.216 369.608L726.587 375.197C726.587 375.197 753.484 386.251 753.393 397.151C753.301 408.051 748.574 431.935 743.146 434.323C737.717 436.711 747.847 444.673 744.73 449.449C741.613 454.226 736.892 486.86 736.892 486.86C736.892 486.86 747.93 509.325 738.592 513.707C729.254 518.089 689.791 522.185 687.262 516.468C684.732 510.751 684.709 513.871 678.876 512.311C673.044 510.751 678.882 488.88 684.145 486.679C689.407 484.479 692.524 436.711 692.524 436.711L684.145 399.569L696.929 381.183L700.411 372.793Z" fill="#3F3D56"/>
<path d="M690.042 474.887L703.417 426.845C703.978 424.808 703.733 422.627 702.734 420.773C701.735 418.919 700.062 417.541 698.078 416.936C696.072 416.325 693.911 416.552 692.07 417.569C690.229 418.585 688.858 420.308 688.26 422.357C688.22 422.493 688.184 422.631 688.151 422.77L675.754 473.109L666.96 503.373C665.555 503.533 664.232 504.132 663.171 505.087C662.11 506.042 661.363 507.308 661.03 508.712C660.698 510.116 660.797 511.591 661.313 512.935C661.83 514.28 662.739 515.43 663.917 516.229C665.096 517.027 666.486 517.435 667.9 517.398C669.313 517.362 670.681 516.881 671.818 516.022C672.955 515.163 673.805 513.967 674.254 512.597C674.702 511.227 674.727 509.749 674.325 508.364L690.042 474.887Z" fill="#FFB6B6"/>
<path d="M685.905 397.953L702.173 403.197C702.173 403.197 712.754 419.072 708.793 421.337C704.832 423.601 703.346 423.122 705.381 427.118C707.415 431.113 710.348 429.554 707.415 431.113C704.483 432.672 690.602 443.224 683.092 435.794C675.582 428.364 685.905 397.953 685.905 397.953Z" fill="#3F3D56"/>
<path d="M307.794 698.513C307.794 698.637 307.817 698.76 307.863 698.874C307.909 698.989 307.977 699.093 308.063 699.181C308.148 699.269 308.25 699.339 308.362 699.387C308.474 699.435 308.594 699.46 308.716 699.46H866.073C866.319 699.46 866.555 699.36 866.728 699.182C866.902 699.005 867 698.764 867 698.513C867 698.261 866.902 698.02 866.728 697.843C866.555 697.665 866.319 697.565 866.073 697.565H308.721C308.6 697.565 308.479 697.589 308.367 697.636C308.255 697.683 308.153 697.752 308.067 697.84C307.981 697.927 307.912 698.031 307.865 698.146C307.819 698.26 307.794 698.383 307.794 698.507V698.513Z" fill="#CCCCCC"/>
<path d="M640.38 424.743C649.164 424.743 656.285 417.467 656.285 408.492C656.285 399.517 649.164 392.242 640.38 392.242C631.596 392.242 624.475 399.517 624.475 408.492C624.475 417.467 631.596 424.743 640.38 424.743Z" fill="#6C63FF"/>
<path d="M638.21 416.95C637.936 416.95 637.665 416.885 637.419 416.759C637.174 416.634 636.96 416.451 636.795 416.227L632.456 410.316C632.175 409.932 632.054 409.45 632.12 408.975C632.186 408.501 632.435 408.073 632.81 407.785C633.185 407.497 633.657 407.374 634.122 407.442C634.586 407.509 635.005 407.763 635.287 408.147L638.126 412.014L645.417 400.839C645.675 400.44 646.079 400.161 646.539 400.065C646.999 399.97 647.477 400.065 647.868 400.329C648.26 400.594 648.532 401.006 648.626 401.476C648.72 401.946 648.627 402.434 648.368 402.834L648.361 402.845L639.683 416.145C639.526 416.386 639.314 416.584 639.067 416.724C638.819 416.864 638.542 416.941 638.26 416.949L638.21 416.95Z" fill="white"/>
</g>
<defs>
<clipPath id="clip0_3_7">
<rect width="665.217" height="418.596" fill="white" transform="translate(0.362915)"/>
</clipPath>
<clipPath id="clip1_3_7">
<rect width="559.206" height="442.901" fill="white" transform="translate(307.794 256.559)"/>
</clipPath>
</defs>
</svg>
