<svg width="448" height="361" viewBox="0 0 448 361" fill="none" xmlns="http://www.w3.org/2000/svg">
<g clip-path="url(#clip0_1997_385)">
<path d="M298.325 361L298.229 360.991L149.676 347.226L14.5913 359.743C11.0643 360.07 7.55156 358.986 4.82593 356.729C2.10029 354.472 0.384987 351.228 0.0573594 347.71C0.0192263 347.3 0.000144567 346.89 0.000111433 346.478V26.0114C-0.0135233 22.6876 1.22454 19.4798 3.46917 17.0232C5.71381 14.5666 8.80137 13.0402 12.1205 12.7464L149.676 0L149.771 0.00900207L298.325 13.7742L433.409 1.25697C436.936 0.930143 440.448 2.01429 443.174 4.27091C445.9 6.52752 447.615 9.77176 447.943 13.2899C447.981 13.6995 448 14.1102 448 14.522V334.988C448.014 338.312 446.776 341.52 444.531 343.977C442.286 346.433 439.199 347.96 435.88 348.254L298.325 361Z" fill="#3F3D56"/>
<path d="M207.079 118.557C178.323 97.6662 148.067 77.8569 117.159 59.6822L115.608 58.7701V120.412H209.632L207.079 118.557ZM117.662 118.362V62.3621C147.066 79.7118 175.858 98.5373 203.314 118.362L117.662 118.362ZM352.611 245.237C340.175 232.34 327.417 219.736 314.337 207.427C310.731 204.03 307.102 200.66 303.452 197.317C281.173 176.903 258.162 157.489 234.418 139.073L234.14 138.858H115.608V246.974H354.286L352.611 245.237ZM117.662 244.924V140.907H233.436C256.332 158.672 278.607 177.431 300.262 197.184C304.022 200.612 307.756 204.067 311.465 207.55C324.431 219.704 337.093 232.162 349.452 244.924H117.662ZM352.611 245.237C340.175 232.34 327.417 219.736 314.337 207.427C310.731 204.03 307.102 200.66 303.452 197.317C281.173 176.903 258.162 157.489 234.418 139.073L234.14 138.858H115.608V246.974H354.286L352.611 245.237ZM117.662 244.924V140.907H233.436C256.332 158.672 278.607 177.431 300.262 197.184C304.022 200.612 307.756 204.067 311.465 207.55C324.431 219.704 337.093 232.162 349.452 244.924H117.662ZM207.079 118.557C178.323 97.6662 148.067 77.8569 117.159 59.6822L115.608 58.7701V120.412H209.632L207.079 118.557ZM117.662 118.362V62.3621C147.066 79.7118 175.858 98.5373 203.314 118.362L117.662 118.362ZM207.079 118.557C178.323 97.6662 148.067 77.8569 117.159 59.6822L115.608 58.7701V120.412H209.632L207.079 118.557ZM117.662 118.362V62.3621C147.066 79.7118 175.858 98.5373 203.314 118.362L117.662 118.362ZM352.611 245.237C340.175 232.34 327.417 219.736 314.337 207.427C310.731 204.03 307.102 200.66 303.452 197.317C281.173 176.903 258.162 157.489 234.418 139.073L234.14 138.858H115.608V246.974H354.286L352.611 245.237ZM117.662 244.924V140.907H233.436C256.332 158.672 278.607 177.431 300.262 197.184C304.022 200.612 307.756 204.067 311.465 207.55C324.431 219.704 337.093 232.162 349.452 244.924H117.662ZM13.9082 265.42V267.47H95.0601V297.189H13.9082V299.238H97.1148V265.42H13.9082ZM115.608 317.685V338.452L117.662 338.262V319.734H434.092V317.685L115.608 317.685ZM434.092 267.47V265.42H115.608V299.238H434.092V297.189H117.662V267.47L434.092 267.47ZM242.205 118.362C202.786 88.0302 161.156 60.6694 117.662 36.5065V15.7544L115.607 15.944V36.8567L117.19 38.5919C160.507 62.6891 201.967 89.9658 241.229 120.196L241.506 120.412H434.092V118.362L242.205 118.362ZM95.0601 118.362H13.9082V120.412H97.1148V17.6554L95.0601 17.845L95.0601 118.362ZM434.092 138.858H264.787L267.001 140.672C287.846 157.781 308.313 175.926 328.401 195.109C331.257 197.835 334.103 200.583 336.939 203.353C351.055 217.111 364.895 231.318 378.46 245.975L380.154 246.974H434.092V244.924H380.284C366.866 230.413 353.158 216.322 339.158 202.651C336.358 199.915 333.549 197.198 330.728 194.499C311.075 175.689 291.002 157.825 270.509 140.907H434.092V138.858ZM13.9082 317.685V319.734H95.0601V340.353L97.1148 340.163V317.685H13.9082ZM13.9082 138.858V140.907H95.0601V244.924H13.9082V246.974H97.1148V138.858H13.9082ZM207.079 118.557C178.323 97.6662 148.067 77.8569 117.159 59.6822L115.608 58.7701V120.412H209.632L207.079 118.557ZM117.662 118.362V62.3621C147.066 79.7118 175.858 98.5373 203.314 118.362L117.662 118.362ZM352.611 245.237C340.175 232.34 327.417 219.736 314.337 207.427C310.731 204.03 307.102 200.66 303.452 197.317C281.173 176.903 258.162 157.489 234.418 139.073L234.14 138.858H115.608V246.974H354.286L352.611 245.237ZM117.662 244.924V140.907H233.436C256.332 158.672 278.607 177.431 300.262 197.184C304.022 200.612 307.756 204.067 311.465 207.55C324.431 219.704 337.093 232.162 349.452 244.924H117.662ZM207.079 118.557C178.323 97.6662 148.067 77.8569 117.159 59.6822L115.608 58.7701V120.412H209.632L207.079 118.557ZM117.662 118.362V62.3621C147.066 79.7118 175.858 98.5373 203.314 118.362L117.662 118.362ZM352.611 245.237C340.175 232.34 327.417 219.736 314.337 207.427C310.731 204.03 307.102 200.66 303.452 197.317C281.173 176.903 258.162 157.489 234.418 139.073L234.14 138.858H115.608V246.974H354.286L352.611 245.237ZM117.662 244.924V140.907H233.436C256.332 158.672 278.607 177.431 300.262 197.184C304.022 200.612 307.756 204.067 311.465 207.55C324.431 219.704 337.093 232.162 349.452 244.924H117.662Z" fill="white"/>
<path d="M229.454 134.876C229.454 160.83 182.342 218.648 182.342 218.648C182.342 218.648 135.23 160.83 135.23 134.876C135.23 122.412 140.194 110.459 149.029 101.646C157.864 92.833 169.848 87.8818 182.342 87.8818C194.837 87.8818 206.82 92.833 215.656 101.646C224.491 110.459 229.454 122.412 229.454 134.876Z" fill="#6C63FF"/>
<path d="M203.88 132.833C203.88 137.081 202.616 141.235 200.25 144.768C197.883 148.301 194.52 151.054 190.584 152.68C186.649 154.306 182.319 154.732 178.141 153.903C173.963 153.074 170.126 151.028 167.114 148.023C164.102 145.019 162.051 141.191 161.219 137.024C160.388 132.856 160.815 128.537 162.445 124.611C164.075 120.686 166.836 117.331 170.377 114.97C173.919 112.61 178.083 111.35 182.343 111.35C185.171 111.348 187.972 111.903 190.586 112.982C193.2 114.061 195.574 115.644 197.574 117.639C199.575 119.634 201.161 122.003 202.243 124.61C203.325 127.217 203.881 130.011 203.88 132.833Z" fill="white"/>
<path d="M182.342 252.565C189.356 252.565 195.042 246.893 195.042 239.897C195.042 232.901 189.356 227.229 182.342 227.229C175.328 227.229 169.643 232.901 169.643 239.897C169.643 246.893 175.328 252.565 182.342 252.565Z" fill="#6C63FF"/>
<path d="M304.024 80.8687C314.394 80.8687 322.8 72.4832 322.8 62.1392C322.8 51.7952 314.394 43.4097 304.024 43.4097C293.654 43.4097 285.247 51.7952 285.247 62.1392C285.247 72.4832 293.654 80.8687 304.024 80.8687Z" fill="#FF6584"/>
<path d="M362.905 119.857H270.792C270.677 119.858 270.562 119.849 270.448 119.83L314.013 44.5581C314.279 44.0893 314.665 43.6993 315.131 43.428C315.598 43.1566 316.128 43.0137 316.668 43.0137C317.208 43.0137 317.738 43.1566 318.205 43.428C318.671 43.6993 319.057 44.0893 319.323 44.5581L348.56 95.0711L349.961 97.4881L362.905 119.857Z" fill="white"/>
<path opacity="0.2" d="M362.905 119.857H331.455L346.893 97.4877L348.004 95.8764L348.56 95.0708L349.961 97.4877L362.905 119.857Z" fill="black"/>
<path d="M414.192 119.857H334.522L349.961 97.4881L351.072 95.8767L371.189 66.7261C372.508 64.8156 375.681 64.6966 377.232 66.3657C377.336 66.4796 377.433 66.5999 377.522 66.7261L414.192 119.857Z" fill="white"/>
<path d="M420.104 225.964C425.352 225.964 429.607 221.72 429.607 216.485C429.607 211.249 425.352 207.005 420.104 207.005C414.855 207.005 410.601 211.249 410.601 216.485C410.601 221.72 414.855 225.964 420.104 225.964Z" fill="white"/>
<path d="M421.021 245.037H419.074L419.961 215.057L421.021 245.037Z" fill="#CBCBCB"/>
<path d="M420.132 220.739L422.222 217.855L420.104 221.453L419.875 221.053L420.132 220.739Z" fill="#CBCBCB"/>
<path d="M419.903 223.651L417.813 220.768L419.932 224.365L420.161 223.965L419.903 223.651Z" fill="#CBCBCB"/>
<path d="M393.082 216.868C400.834 216.868 407.118 210.6 407.118 202.868C407.118 195.136 400.834 188.868 393.082 188.868C385.331 188.868 379.047 195.136 379.047 202.868C379.047 210.6 385.331 216.868 393.082 216.868Z" fill="white"/>
<path d="M394.435 245.037H391.561L392.871 200.759L394.435 245.037Z" fill="#CBCBCB"/>
<path d="M393.125 209.151L396.211 204.892L393.083 210.205L392.745 209.615L393.125 209.151Z" fill="#CBCBCB"/>
<path d="M392.787 213.452L389.7 209.193L392.829 214.506L393.167 213.916L392.787 213.452Z" fill="#CBCBCB"/>
<path d="M67.2268 225.964C72.4752 225.964 76.7299 221.72 76.7299 216.485C76.7299 211.249 72.4752 207.005 67.2268 207.005C61.9783 207.005 57.7236 211.249 57.7236 216.485C57.7236 221.72 61.9783 225.964 67.2268 225.964Z" fill="white"/>
<path d="M68.1427 245.037H66.1963L67.0835 215.057L68.1427 245.037Z" fill="#CBCBCB"/>
<path d="M67.2552 220.739L69.3452 217.855L67.2267 221.453L66.998 221.053L67.2552 220.739Z" fill="#CBCBCB"/>
<path d="M67.0264 223.651L64.9365 220.768L67.055 224.365L67.2837 223.965L67.0264 223.651Z" fill="#CBCBCB"/>
<path d="M40.2053 216.868C47.9568 216.868 54.2406 210.6 54.2406 202.868C54.2406 195.136 47.9568 188.868 40.2053 188.868C32.4538 188.868 26.1699 195.136 26.1699 202.868C26.1699 210.6 32.4538 216.868 40.2053 216.868Z" fill="white"/>
<path d="M41.5582 245.037H38.6836L39.9945 200.759L41.5582 245.037Z" fill="#CBCBCB"/>
<path d="M40.2474 209.151L43.3332 204.892L40.2052 210.205L39.8672 209.615L40.2474 209.151Z" fill="#CBCBCB"/>
<path d="M39.9097 213.452L36.8232 209.193L39.9519 214.506L40.2899 213.916L39.9097 213.452Z" fill="#CBCBCB"/>
</g>
<defs>
<clipPath id="clip0_1997_385">
<rect width="448" height="361" fill="white"/>
</clipPath>
</defs>
</svg>
