<svg width="315" height="315" viewBox="0 0 315 315" fill="none" xmlns="http://www.w3.org/2000/svg">
<g clip-path="url(#clip0_9_64)">
<path d="M160.318 205.625C188.555 205.625 211.446 182.735 211.446 154.498C211.446 126.261 188.555 103.37 160.318 103.37C132.081 103.37 109.19 126.261 109.19 154.498C109.19 182.735 132.081 205.625 160.318 205.625Z" fill="#A0616A"/>
<path d="M118 217.074L128.657 189.837L183.723 181.548L189.64 241.84L133.982 243.024L118 217.074Z" fill="#A0616A"/>
<path d="M211.941 163.931C211.277 166.589 209.936 172.919 207.841 172.95C206.13 172.975 204.492 145.515 206.201 140.973C208.165 135.755 203.005 129.154 199.117 125.766C192.128 119.674 176.613 132.756 160.837 126.829C160.419 126.673 160.502 126.69 155.52 124.703C140.191 118.586 139.385 118.41 138.507 118.323C131.076 117.587 122.007 123.668 118.303 131.083C114.454 138.79 117.67 145.4 114.05 164.046C113.628 166.22 112.966 169.317 111.923 169.363C110.018 169.446 108.157 159.268 107.67 156.603C105.628 145.435 103.66 134.667 107.67 122.576C108.107 121.257 110.803 116.362 116.177 106.626C123.918 92.5999 127.812 85.5604 128.937 84.2956C137.006 75.2209 151.695 66.9426 164.027 70.4722C170.26 72.2562 169.143 75.1243 176.787 77.9156C190.41 82.8896 202.25 76.8065 204.434 81.1056C205.591 83.3828 202.354 85.2603 202.307 89.6123C202.227 97.0796 211.671 99.2375 217.194 106.626C220.163 110.598 225.245 110.64 211.941 163.931Z" fill="#2F2E41"/>
<path d="M275.282 262.072C273.221 264.387 271.084 266.655 268.869 268.87C239.122 298.617 199.569 315 157.5 315C121.139 315 86.6606 302.761 58.7664 280.232C58.7486 280.22 58.7368 280.208 58.7191 280.19C55.0185 277.207 51.4362 274.033 47.9783 270.681C48.0433 270.16 48.1144 269.645 48.1913 269.136C48.6769 265.702 49.2158 262.427 49.8196 259.413C54.7638 234.711 119.818 208.777 121.512 208.101C121.535 208.096 121.547 208.09 121.547 208.09C121.547 208.09 129.92 238.95 165.795 238.554C190.232 238.287 185.495 208.09 185.495 208.09C185.495 208.09 185.791 208.149 186.347 208.267C193.405 209.766 242.408 220.53 261.74 235.22C267.632 239.696 271.859 249.23 274.897 260.598C275.027 261.083 275.151 261.581 275.282 262.072Z" fill="#6C63FF"/>
<path d="M268.869 46.131C239.122 16.3841 199.569 0 157.5 0C115.431 0 75.8784 16.3841 46.1309 46.131C16.3837 75.8785 0 115.431 0 157.5C0 195.898 13.6481 232.2 38.6586 260.864C41.0448 263.605 43.5375 266.276 46.1309 268.87C46.7408 269.479 47.3566 270.089 47.9783 270.681C51.4363 274.033 55.0185 277.206 58.7192 280.19C58.7368 280.208 58.7487 280.22 58.7664 280.232C86.6606 302.761 121.139 315 157.5 315C199.569 315 239.122 298.616 268.869 268.87C271.084 266.655 273.221 264.387 275.282 262.072C300.961 233.225 315 196.443 315 157.5C315 115.431 298.616 75.8785 268.869 46.131ZM274.897 260.597C270.237 265.897 265.228 270.882 259.899 275.507C249.792 284.3 238.542 291.807 226.409 297.788C222.152 299.89 217.788 301.802 213.324 303.514C195.981 310.169 177.158 313.816 157.5 313.816C138.529 313.816 120.339 310.418 103.506 304.2C96.596 301.654 89.9172 298.629 83.5046 295.164C82.5631 294.656 81.6277 294.14 80.6981 293.614C75.8073 290.842 71.0763 287.817 66.5349 284.548C60.0277 279.882 53.8934 274.725 48.1914 269.136C44.9941 266.003 41.9389 262.741 39.0198 259.348C15.4481 231.969 1.18421 196.372 1.18421 157.5C1.18421 71.3076 71.3072 1.18421 157.5 1.18421C243.693 1.18421 313.816 71.3076 313.816 157.5C313.816 196.97 299.114 233.065 274.897 260.597Z" fill="#3F3D56"/>
</g>
<defs>
<clipPath id="clip0_9_64">
<rect width="315" height="315" fill="white"/>
</clipPath>
</defs>
</svg>
