<svg width="315" height="315" viewBox="0 0 315 315" fill="none" xmlns="http://www.w3.org/2000/svg">
<g clip-path="url(#clip0_9_37)">
<path d="M175.888 229.275L183.385 182.422L132.783 161.806L125.286 233.024L175.888 229.275Z" fill="#A0616A"/>
<path d="M226.745 298.519C222.4 300.637 217.973 302.549 213.48 304.245C204.493 307.646 195.216 310.212 185.699 311.925C176.398 313.604 166.848 314.457 157.299 314.457C144.397 314.457 131.571 312.909 119.166 309.847C114.308 308.656 109.409 307.2 104.593 305.503C104.088 305.321 103.575 305.139 103.071 304.956C97.0958 302.789 91.2202 300.248 85.5684 297.377C84.8069 296.996 84.0456 296.607 83.2844 296.193C82.4403 295.763 81.6045 295.308 80.7604 294.836C79.6845 294.248 78.617 293.636 77.5494 293.015C73.9747 290.946 70.4576 288.712 67.0978 286.387L66.8744 286.238C66.6758 286.098 66.4772 285.965 66.2869 285.824C66.4109 285.171 66.5269 284.574 66.6344 284.045C67.0481 281.968 67.3213 280.826 67.3213 280.826L89.9789 234.021L96.2931 220.979L99.3715 219.713L122.625 210.155H179.46L197.392 217.569C197.392 217.569 197.483 217.909 197.665 218.563C199.453 224.976 209.88 261.387 226.058 297.012C226.281 297.508 226.513 298.014 226.745 298.519Z" fill="#6C63FF"/>
<path d="M163.1 197.484C191.599 197.484 214.702 174.381 214.702 145.882C214.702 117.383 191.599 94.2798 163.1 94.2798C134.601 94.2798 111.499 117.383 111.499 145.882C111.499 174.381 134.601 197.484 163.1 197.484Z" fill="#A0616A"/>
<path d="M99.4617 219.268L99.3729 219.712L83.6407 294.513L83.5045 295.164L83.2854 296.195C82.4387 295.762 81.6039 295.306 80.7631 294.839C79.6854 294.247 78.6197 293.637 77.5479 293.015C73.9775 290.949 70.4604 288.71 67.0973 286.389L66.8723 286.235C66.6769 286.099 66.4756 285.963 66.2861 285.827C63.7163 284.033 61.2118 282.162 58.7664 280.231C58.7486 280.22 58.7368 280.208 58.719 280.19C54.3552 276.673 50.1512 272.889 46.1308 268.869C43.5374 266.276 41.0446 263.605 38.6584 260.864L39.0197 259.348L39.0552 259.194L39.5052 257.264C43.5078 240.359 57.0492 227.386 74.1078 224.118L96.7736 219.778L99.4617 219.268Z" fill="#6C63FF"/>
<path d="M260.169 276.646C253.49 282.332 246.332 287.479 238.777 291.998C238.04 292.445 237.287 292.883 236.534 293.321C233.324 295.175 230.055 296.905 226.745 298.519C222.4 300.637 217.973 302.549 213.479 304.245L213.132 302.606L195.365 218.124L197.665 218.563L220.72 222.981C237.776 226.25 251.322 239.226 255.319 256.132L259.73 274.81L260.169 276.646Z" fill="#6C63FF"/>
<path d="M222.524 159.675C221.184 164.674 214.439 187.009 197.169 191.709C193.776 192.636 185.683 193.704 187.826 191.709C188.314 191.254 188.786 190.807 189.258 190.368C208.001 172.742 215.648 161.968 212.155 138.052C209.938 122.825 184.682 108.997 170.473 107.624C164.481 107.045 156.835 109.072 151.787 114.294C143.454 122.9 144.828 149.315 140.21 164.831C138.969 168.985 137.306 172.362 134.914 174.405C133.424 175.68 132.473 174.058 131.769 171.402C130.272 165.758 129.883 155.422 127.756 158.343C121.607 166.809 127.466 178.03 129.237 182.358C129.601 183.244 129.974 184.096 130.346 184.907V184.915C130.561 185.378 130.784 185.842 131 186.281V186.289C136.908 198.337 144.008 202.649 150.265 210.155C152.722 213.092 155.048 216.51 157.125 221.078C158.548 224.207 159.574 227.351 160.278 230.437C163.861 245.912 159.607 259.972 158.457 263.795C156.049 271.756 151.911 285.435 139.772 293.156C124.528 302.855 110.618 294.307 103.964 303.517C103.881 303.624 103.807 303.732 103.733 303.839C103.484 304.212 103.261 304.584 103.071 304.956C97.0958 302.789 91.2202 300.248 85.5684 297.377C84.8069 296.996 84.0456 296.607 83.2844 296.193C82.4403 295.763 81.6045 295.308 80.7604 294.836C80.7272 294.19 80.6941 293.545 80.6693 292.892C80.1811 281.695 80.9176 269.389 83.7064 257.117C85.4938 249.281 87.2648 241.51 89.979 234.021C91.75 229.139 93.918 224.371 96.7729 219.779C99.0571 216.088 101.771 212.505 105.065 209.062C112.298 201.507 118.728 198.354 119.745 190.376C121.202 178.99 109.343 175.564 105.065 158.343C102.144 146.567 99.09 129.595 102.053 118.158C104.85 107.351 107.283 97.9752 115.401 88.7891C117.354 86.5878 133.383 71.2785 151.953 68.7628C160.509 67.6128 168.139 78.5695 178.483 80.9276C190.375 83.634 197.185 85.1816 203.839 90.2704C215.085 98.8601 218.254 111.704 221.192 123.637C223.493 132.971 226.472 145.045 222.524 159.675Z" fill="#2F2E41"/>
<path d="M268.869 46.1309C239.122 16.3835 199.569 0 157.5 0C115.431 0 75.8783 16.3835 46.1309 46.1309C16.3835 75.8783 0 115.431 0 157.5C0 195.898 13.648 232.2 38.6585 260.864C41.0447 263.605 43.5375 266.276 46.1309 268.869C50.1513 272.889 54.3553 276.673 58.7191 280.19C58.7369 280.208 58.7487 280.22 58.7665 280.232C86.6605 302.761 121.139 315 157.5 315C199.569 315 239.122 298.616 268.869 268.869C298.616 239.122 315 199.569 315 157.5C315 115.431 298.616 75.8783 268.869 46.1309ZM259.899 275.507C249.791 284.299 238.541 291.807 226.409 297.787C222.152 299.889 217.788 301.802 213.324 303.513C195.981 310.168 177.158 313.816 157.5 313.816C138.529 313.816 120.339 310.417 103.506 304.2C96.5961 301.654 89.9171 298.628 83.5046 295.164C82.5632 294.655 81.6276 294.14 80.698 293.613C75.8073 290.842 71.0763 287.816 66.5349 284.548C56.3862 277.265 47.1434 268.798 39.0198 259.348C15.448 231.969 1.18421 196.372 1.18421 157.5C1.18421 71.3072 71.3072 1.18421 157.5 1.18421C243.693 1.18421 313.816 71.3072 313.816 157.5C313.816 204.561 292.914 246.831 259.899 275.507Z" fill="#3F3D56"/>
</g>
<defs>
<clipPath id="clip0_9_37">
<rect width="315" height="315" fill="white"/>
</clipPath>
</defs>
</svg>
