<svg width="315" height="315" viewBox="0 0 315 315" fill="none" xmlns="http://www.w3.org/2000/svg">
<g clip-path="url(#clip0_9_65)">
<path d="M160.318 205.628C188.555 205.628 211.446 182.738 211.446 154.5C211.446 126.263 188.555 103.373 160.318 103.373C132.081 103.373 109.191 126.263 109.191 154.5C109.191 182.738 132.081 205.628 160.318 205.628Z" fill="#FFB6B6"/>
<path d="M130.968 213.189L128.658 189.84L174.783 181.215L202.02 247.531L154.652 302.005L120.902 235.689L130.968 213.189Z" fill="#FFB6B6"/>
<path d="M127.917 201.527L138.001 203.806C138.001 203.806 130.074 178.668 132.765 176.268C135.455 173.868 142.049 177.65 142.049 177.65L148.978 185.418L157.418 176.825C157.418 176.825 166.58 165.432 170.168 162.232C173.755 159.032 167.993 147.155 167.993 147.155C167.993 147.155 221.218 132.803 201.413 106.987C201.413 106.987 189.801 86.746 186.02 93.3396C182.239 99.9331 177.73 89.4612 177.73 89.4612L163.961 92.0795C163.961 92.0795 136.787 76.0569 110.995 110.334C85.2036 144.611 127.917 201.527 127.917 201.527Z" fill="#2F2E41"/>
<path d="M256.476 280.036C228.535 302.69 193.968 315 157.5 315C124.2 315 92.481 304.733 65.9487 285.703C65.9961 285.205 66.0435 284.714 66.0849 284.222C66.7895 276.525 67.4172 269.041 67.8316 262.836C69.4362 238.743 125.645 222.685 125.645 222.685C125.645 222.685 125.899 222.94 126.409 223.384C129.511 226.107 142.105 235.984 164.191 238.743C183.884 241.206 190.368 229.524 192.328 223.928C192.92 222.223 193.097 221.08 193.097 221.08L250.911 248.382C254.682 253.77 256.157 265.376 256.447 278.42C256.459 278.959 256.47 279.492 256.476 280.036Z" fill="#6C63FF"/>
<path d="M268.869 46.1309C239.122 16.3835 199.569 0 157.5 0C115.431 0 75.8783 16.3835 46.1309 46.1309C16.3836 75.8783 0 115.431 0 157.5C0 195.898 13.6481 232.2 38.6586 260.864C41.0447 263.605 43.5375 266.276 46.1309 268.869C46.7408 269.479 47.3566 270.089 47.9783 270.681C49.6362 272.286 51.3237 273.855 53.0408 275.376C54.0829 276.306 55.1369 277.218 56.2027 278.112C57.0375 278.816 57.8724 279.509 58.7191 280.19C58.7369 280.208 58.7487 280.22 58.7665 280.232C61.1171 282.126 63.5092 283.95 65.9487 285.703C92.4809 304.733 124.2 315 157.5 315C193.968 315 228.535 302.69 256.476 280.036C258.756 278.189 260.988 276.27 263.179 274.287C265.115 272.534 267.01 270.728 268.869 268.869C269.455 268.283 270.041 267.691 270.616 267.093C272.215 265.447 273.766 263.771 275.282 262.072C300.961 233.224 315 196.443 315 157.5C315 115.431 298.616 75.8783 268.869 46.1309ZM274.897 260.597C273.416 262.279 271.901 263.937 270.349 265.553C267.934 268.07 265.441 270.509 262.865 272.86C261.888 273.76 260.899 274.636 259.899 275.507C258.762 276.495 257.613 277.466 256.447 278.42C247.251 285.969 237.18 292.482 226.409 297.787C222.152 299.889 217.788 301.802 213.324 303.513C195.981 310.168 177.158 313.816 157.5 313.816C138.529 313.816 120.34 310.417 103.506 304.2C96.5961 301.654 89.9171 298.628 83.5046 295.164C82.5632 294.655 81.6277 294.14 80.6981 293.613C75.8073 290.842 71.0763 287.816 66.5349 284.548C66.3869 284.441 66.2329 284.329 66.0849 284.222C62.852 281.889 59.7079 279.432 56.6704 276.851C55.5573 275.909 54.4559 274.956 53.3724 273.979C51.6079 272.41 49.879 270.793 48.1915 269.136C44.9941 266.003 41.9388 262.741 39.0198 259.348C15.448 231.969 1.18421 196.372 1.18421 157.5C1.18421 71.3072 71.3073 1.18421 157.5 1.18421C243.693 1.18421 313.816 71.3072 313.816 157.5C313.816 196.97 299.114 233.064 274.897 260.597Z" fill="#3F3D56"/>
</g>
<defs>
<clipPath id="clip0_9_65">
<rect width="315" height="315" fill="white"/>
</clipPath>
</defs>
</svg>
